SplineFontDB: 3.2
FontName: Samaano-Thin
FullName: Samaano Thin
FamilyName: Samaano
Weight: Thin
Copyright: Copyright 2025 The Samaano Project Authors (https://github.com/mitradranirban/samaano-fonts)
UComments: "2024-8-27: Created with FontForge (http://fontforge.org)"
Version: 2.500
ItalicAngle: 0
UnderlinePosition: 0
UnderlineWidth: 102
Ascent: 1638
Descent: 410
InvalidEm: 0
UFOAscent: 1638
UFODescent: -410
LayerCount: 2
Layer: 0 0 "Back" 1
Layer: 1 0 "public.default" 0 "glyphs"
StyleMap: 0x0040
FSType: 256
OS2Version: 0
OS2_WeightWidthSlopeOnly: 0
OS2_UseTypoMetrics: 0
CreationTime: 1758187953
ModificationTime: 1758193455
PfmFamily: 16
TTFWeight: 700
TTFWidth: 5
LineGap: 0
VLineGap: 0
Panose: 2 7 8 9 2 2 5 2 4 4
OS2TypoAscent: 2457
OS2TypoAOffset: 0
OS2TypoDescent: -615
OS2TypoDOffset: 0
OS2TypoLinegap: 0
OS2WinAscent: 3225
OS2WinAOffset: 0
OS2WinDescent: 1040
OS2WinDOffset: 0
HheadAscent: 2457
HheadAOffset: 0
HheadDescent: -615
HheadDOffset: 0
OS2CapHeight: 1548
OS2XHeight: 1023
OS2FamilyClass: 1031
OS2Vendor: 'anir'
Lookup: 1 0 0 "loclLocalizedFormsinLatinlookup10" { "loclLocalizedFormsinLatinlookup10 subtable"  } ['locl' ('latn' <'MOL ' 'ROM ' > ) ]
Lookup: 6 0 0 "loclLocalizedFormsinLatinlookup11" { "loclLocalizedFormsinLatinlookup11 contextual 0"  "loclLocalizedFormsinLatinlookup11 contextual 1"  } ['locl' ('latn' <'CAT ' > ) ]
Lookup: 4 0 0 "Ligature Substitution lookup 2" { "Ligature Substitution lookup 2 subtable"  } []
Lookup: 4 0 0 "Ligature Substitution lookup 3" { "Ligature Substitution lookup 3 subtable"  } []
Lookup: 6 16 0 "ccmp_soft_dotted" { "ccmp_soft_dotted subtable"  } ['ccmp' ('latn' <'dflt' > 'DFLT' <'dflt' > ) ]
Lookup: 1 16 0 "Single Substitution lookup 5" { "Single Substitution lookup 5 subtable"  } []
Lookup: 4 0 0 "dligDiscretionaryLigatureslookup0" { "dligDiscretionaryLigatureslookup0 subtable"  } ['dlig' ('latn' <'dflt' > 'DFLT' <'dflt' > ) ]

StartChar: uni0000
Encoding: 0 0 0
GlifName: _notdef
Width: 1024
VWidth: 0
Flags: W
LayerCount: 2
Fore
SplineSet
22 -100 m 257
 1020 -100 l 257
 1020 1540 l 257
 22 1540 l 257
 22 -100 l 257
96 -20 m 257
 96 1462 l 257
 489 743 l 257
 96 -20 l 257
188 -20 m 257
 527 666 l 257
 868 -20 l 257
 188 -20 l 257
216 1474 m 257
 847 1474 l 257
 529 825 l 257
 216 1474 l 257
567 748 m 257
 943 1475 l 257
 943 -20 l 257
 567 748 l 257
EndSplineSet
EndChar

StartChar: A
Encoding: 65 65 1
GlifName: A_
Width: 1024
VWidth: 0
GlyphClass: 2
Flags: W
AnchorPoint: "top" 525 1641 basechar 0
AnchorPoint: "base" 546 0 basechar 0
LayerCount: 2
Fore
SplineSet
102 16 m 257
 161 16 l 257
 161 1553 l 257
 102 1553 l 257
 102 16 l 257
161 1492 m 257
 878 1492 l 257
 878 1553 l 257
 161 1553 l 257
 161 1492 l 257
155 970 m 257
 155 911 l 257
 878 911 l 257
 878 970 l 257
 155 970 l 257
862 5 m 257
 922 5 l 257
 922 1553 l 257
 862 1553 l 257
 862 5 l 257
EndSplineSet
EndChar

StartChar: AE
Encoding: 198 198 3
GlifName: A_E_
Width: 1024
VWidth: 0
GlyphClass: 2
Flags: W
AnchorPoint: "top" 533 1805 basechar 0
AnchorPoint: "base" 528 -10 basechar 0
LayerCount: 2
Fore
SplineSet
528 62 m 257
 528 0 l 257
 948 0 l 257
 948 62 l 257
 528 62 l 257
76 0 m 257
 138 0 l 257
 138 1550 l 257
 76 1550 l 257
 76 0 l 257
120 1489 m 257
 926 1489 l 257
 926 1550 l 257
 120 1550 l 257
 120 1489 l 257
124 1023 m 257
 124 964 l 257
 874 964 l 257
 874 1023 l 257
 124 1023 l 257
502 0 m 257
 562 0 l 257
 562 1550 l 257
 502 1550 l 257
 502 0 l 257
EndSplineSet
EndChar

StartChar: uni2C6D
Encoding: 11373 11373 12
GlifName: A_lpha_latin
Width: 1024
VWidth: 0
GlyphClass: 2
Flags: W
AnchorPoint: "top" 512 1555 basechar 0
AnchorPoint: "base" 536 -38 basechar 0
LayerCount: 2
Fore
SplineSet
103 1452 m 257
 103 0 l 257
 162 0 l 257
 162 1452 l 257
 103 1452 l 257
860 1545 m 257
 860 -127 l 257
 921 -127 l 257
 921 1545 l 257
 860 1545 l 257
164 1452 m 257
 164 1396 l 257
 865 1396 l 257
 865 1452 l 257
 164 1452 l 257
149 62 m 257
 149 0 l 257
 868 0 l 257
 868 62 l 257
 149 62 l 257
EndSplineSet
EndChar

StartChar: B
Encoding: 66 66 22
GlifName: B_
Width: 1024
VWidth: 0
GlyphClass: 2
Flags: W
AnchorPoint: "top" 262 1657 basechar 0
AnchorPoint: "base" 250 -67 basechar 0
LayerCount: 2
Fore
SplineSet
27 0 m 257
 84 0 l 257
 84 1553 l 257
 27 1553 l 257
 27 0 l 257
123 1494 m 257
 962 1023 l 257
 962 1081 l 257
 123 1550 l 257
 123 1494 l 257
146 811 m 257
 962 1023 l 257
 962 1079 l 257
 146 870 l 257
 146 811 l 257
128 62 m 257
 128 0 l 257
 996 434 l 257
 996 500 l 257
 128 62 l 257
141 746 m 257
 997 430 l 257
 997 501 l 257
 141 808 l 257
 141 746 l 257
81 870 m 257
 81 811 l 257
 146 811 l 257
 146 870 l 257
 81 870 l 257
81 808 m 257
 81 748 l 257
 141 748 l 257
 141 808 l 257
 81 808 l 257
68 62 m 257
 68 0 l 257
 128 0 l 257
 128 62 l 257
 68 62 l 257
63 1553 m 257
 63 1494 l 257
 123 1494 l 257
 123 1553 l 257
 63 1553 l 257
EndSplineSet
EndChar

StartChar: uni0411
Encoding: 1041 1041 24
GlifName: B_e-cy
Width: 1024
VWidth: 0
Flags: W
AnchorPoint: "base" 498 -36 basechar 0
AnchorPoint: "top" 220 1646 basechar 0
LayerCount: 2
Fore
SplineSet
47 1536 m 257
 47 0 l 257
 107 0 l 257
 107 1536 l 257
 47 1536 l 257
90 808 m 257
 90 747 l 257
 884 747 l 257
 884 808 l 257
 90 808 l 257
871 808 m 257
 871 0 l 257
 931 0 l 257
 931 808 l 257
 871 808 l 257
82 60 m 257
 82 0 l 257
 909 0 l 257
 909 60 l 257
 82 60 l 257
90 1537 m 257
 90 1476 l 257
 884 1476 l 257
 884 1537 l 257
 90 1537 l 257
EndSplineSet
EndChar

StartChar: uniA7B4
Encoding: 42932 42932 26
GlifName: B_eta_latin
Width: 1024
VWidth: 0
GlyphClass: 2
Flags: W
AnchorPoint: "top" 262 1657 basechar 0
AnchorPoint: "base" 250 -67 basechar 0
LayerCount: 2
Fore
SplineSet
27 -412 m 257
 84 -412 l 257
 84 1553 l 257
 27 1553 l 257
 27 -412 l 257
123 1494 m 257
 962 1023 l 257
 962 1081 l 257
 123 1550 l 257
 123 1494 l 257
146 811 m 257
 962 1023 l 257
 962 1079 l 257
 146 870 l 257
 146 811 l 257
128 62 m 257
 128 0 l 257
 996 434 l 257
 996 500 l 257
 128 62 l 257
141 746 m 257
 997 430 l 257
 997 501 l 257
 141 808 l 257
 141 746 l 257
81 870 m 257
 81 811 l 257
 146 811 l 257
 146 870 l 257
 81 870 l 257
81 808 m 257
 81 748 l 257
 141 748 l 257
 141 808 l 257
 81 808 l 257
68 62 m 257
 68 0 l 257
 128 0 l 257
 128 62 l 257
 68 62 l 257
63 1553 m 257
 63 1494 l 257
 123 1494 l 257
 123 1553 l 257
 63 1553 l 257
EndSplineSet
EndChar

StartChar: uni0182
Encoding: 386 386 30
GlifName: B_topbar
Width: 1024
VWidth: 0
GlyphClass: 2
Flags: W
AnchorPoint: "top" 262 1657 basechar 0
AnchorPoint: "base" 250 -67 basechar 0
LayerCount: 2
Fore
SplineSet
27 0 m 257
 84 0 l 257
 84 1553 l 257
 27 1553 l 257
 27 0 l 257
128 62 m 257
 128 0 l 257
 996 434 l 257
 996 500 l 257
 128 62 l 257
141 746 m 257
 997 430 l 257
 997 501 l 257
 141 808 l 257
 141 746 l 257
81 808 m 257
 81 748 l 257
 141 748 l 257
 141 808 l 257
 81 808 l 257
68 62 m 257
 68 0 l 257
 128 0 l 257
 128 62 l 257
 68 62 l 257
63 1553 m 257
 63 1494 l 257
 984 1494 l 257
 984 1553 l 257
 63 1553 l 257
EndSplineSet
EndChar

StartChar: C
Encoding: 67 67 31
GlifName: C_
Width: 1024
VWidth: 0
GlyphClass: 2
Flags: W
AnchorPoint: "top" 470 1637 basechar 0
AnchorPoint: "base" 518 -47 basechar 0
LayerCount: 2
Fore
SplineSet
71 1553 m 257
 71 0 l 257
 131 0 l 257
 131 1553 l 257
 71 1553 l 257
100 1553 m 257
 100 1495 l 257
 953 1495 l 257
 953 1553 l 257
 100 1553 l 257
105 58 m 257
 105 0 l 257
 951 0 l 257
 951 58 l 257
 105 58 l 257
EndSplineSet
EndChar

StartChar: uni0427
Encoding: 1063 1063 37
GlifName: C_he-cy
Width: 1024
VWidth: 0
Flags: W
LayerCount: 2
Fore
SplineSet
865 1554 m 257
 865 -1 l 257
 925 -1 l 257
 925 1554 l 257
 865 1554 l 257
129 1554 m 257
 129 582 l 257
 189 582 l 257
 189 1554 l 257
 129 1554 l 257
169 638 m 257
 189 581 l 257
 887 704 l 257
 867 761 l 257
 169 638 l 257
EndSplineSet
EndChar

StartChar: D
Encoding: 68 68 40
GlifName: D_
Width: 1024
VWidth: 0
GlyphClass: 2
Flags: W
AnchorPoint: "base" 290 -63 basechar 0
AnchorPoint: "top" 294 1641 basechar 0
LayerCount: 2
Fore
SplineSet
96 1553 m 257
 96 0 l 257
 156 0 l 257
 156 1553 l 257
 96 1553 l 257
236 1550 m 257
 236 1493 l 257
 926 961 l 257
 926 1023 l 257
 236 1550 l 257
236 58 m 257
 236 0 l 257
 928 960 l 257
 928 1023 l 257
 236 58 l 257
156 1553 m 257
 156 1493 l 257
 236 1493 l 257
 236 1553 l 257
 156 1553 l 257
158 58 m 257
 158 0 l 257
 236 0 l 257
 236 58 l 257
 158 58 l 257
EndSplineSet
EndChar

StartChar: Dcroat
Encoding: 272 272 44
GlifName: D_croat
Width: 1024
VWidth: 0
GlyphClass: 2
Flags: W
AnchorPoint: "top" 343 1621 basechar 0
AnchorPoint: "base" 340 -136 basechar 0
LayerCount: 2
Fore
SplineSet
56 935 m 257
 56 876 l 257
 532 876 l 257
 532 935 l 257
 56 935 l 257
162 1550 m 257
 162 0 l 257
 224 0 l 257
 224 1550 l 257
 162 1550 l 257
488 1550 m 257
 488 1488 l 257
 968 906 l 257
 968 1023 l 257
 488 1550 l 257
496 61 m 257
 496 0 l 257
 968 915 l 257
 968 1023 l 257
 496 61 l 257
208 1550 m 257
 208 1488 l 257
 488 1488 l 257
 488 1550 l 257
 208 1550 l 257
204 61 m 257
 204 0 l 257
 496 0 l 257
 496 61 l 257
 204 61 l 257
EndSplineSet
EndChar

StartChar: uni0414
Encoding: 1044 1044 45
GlifName: D_e-cy
Width: 1024
VWidth: 0
Flags: W
LayerCount: 2
Fore
SplineSet
18 203 m 257
 18 143 l 257
 992 143 l 257
 992 203 l 257
 18 203 l 257
18 159 m 257
 20 -405 l 257
 80 -405 l 257
 78 159 l 257
 18 159 l 257
932 159 m 257
 932 -412 l 257
 992 -412 l 257
 992 159 l 257
 932 159 l 257
844 1516 m 257
 844 162 l 257
 904 162 l 257
 904 1516 l 257
 844 1516 l 257
428 1538 m 257
 428 1478 l 257
 904 1478 l 257
 904 1538 l 257
 428 1538 l 257
408 1539 m 257
 107 185 l 257
 167 185 l 257
 468 1539 l 257
 408 1539 l 257
EndSplineSet
EndChar

StartChar: uni0402
Encoding: 1026 1026 47
GlifName: D_je-cy
Width: 1024
VWidth: 0
Flags: W
LayerCount: 2
Fore
SplineSet
48 1548 m 257
 48 1488 l 257
 836 1488 l 257
 836 1548 l 257
 48 1548 l 257
303 1544 m 257
 303 -1 l 257
 363 -1 l 257
 363 1544 l 257
 303 1544 l 257
316 994 m 257
 316 934 l 257
 929 934 l 257
 929 994 l 257
 316 994 l 257
869 989 m 257
 869 37 l 257
 929 37 l 257
 929 989 l 257
 869 989 l 257
606 60 m 257
 606 0 l 257
 929 0 l 257
 929 60 l 257
 606 60 l 257
EndSplineSet
EndChar

StartChar: uni040F
Encoding: 1039 1039 51
GlifName: D_zhe-cy
Width: 1024
VWidth: 0
Flags: W
LayerCount: 2
Fore
SplineSet
62 1466 m 257
 62 18 l 257
 122 18 l 257
 122 1466 l 257
 62 1466 l 257
902 1470 m 257
 902 3 l 257
 962 3 l 257
 962 1470 l 257
 902 1470 l 257
62 60 m 257
 62 0 l 257
 962 0 l 257
 962 60 l 257
 62 60 l 257
482 25 m 257
 482 -405 l 257
 542 -405 l 257
 542 25 l 257
 482 25 l 257
EndSplineSet
EndChar

StartChar: E
Encoding: 69 69 52
GlifName: E_
Width: 1024
VWidth: 0
GlyphClass: 2
Flags: W
AnchorPoint: "top" 470 1641 basechar 0
AnchorPoint: "base" 546 -96 basechar 0
LayerCount: 2
Fore
SplineSet
106 1550 m 257
 106 0 l 257
 165 0 l 257
 165 1550 l 257
 106 1550 l 257
142 1553 m 257
 149 1490 l 257
 903 1490 l 257
 903 1553 l 257
 142 1553 l 257
149 60 m 257
 149 0 l 257
 918 0 l 257
 918 60 l 257
 149 60 l 257
148 859 m 257
 148 798 l 257
 672 798 l 257
 672 859 l 257
 148 859 l 257
EndSplineSet
EndChar

StartChar: uni0404
Encoding: 1028 1028 53
GlifName: E_-cy
Width: 1024
VWidth: 0
Flags: W
LayerCount: 2
Fore
SplineSet
447 1550 m 257
 447 1490 l 257
 938 1490 l 257
 938 1550 l 257
 447 1550 l 257
87 836 m 257
 87 776 l 257
 872 776 l 257
 872 836 l 257
 87 836 l 257
419 69 m 257
 419 9 l 257
 933 9 l 257
 933 69 l 257
 419 69 l 257
447 1549 m 257
 40 814 l 257
 100 814 l 257
 507 1549 l 257
 447 1549 l 257
42 814 m 257
 419 8 l 257
 479 8 l 257
 102 814 l 257
 42 814 l 257
EndSplineSet
EndChar

StartChar: uni041B
Encoding: 1051 1051 63
GlifName: E_l-cy
Width: 1024
VWidth: 0
Flags: W
LayerCount: 2
Fore
SplineSet
952 1548 m 257
 952 14 l 257
 1012 14 l 257
 1012 1548 l 257
 952 1548 l 257
412 1548 m 257
 412 1488 l 257
 1000 1488 l 257
 1000 1548 l 257
 412 1548 l 257
411 1548 m 257
 229 0 l 257
 289 0 l 257
 471 1548 l 257
 411 1548 l 257
33 61 m 257
 33 1 l 257
 289 1 l 257
 289 61 l 257
 33 61 l 257
EndSplineSet
EndChar

StartChar: Eng
Encoding: 330 330 65
GlifName: E_ng
Width: 1024
VWidth: 0
GlyphClass: 2
Flags: W
AnchorPoint: "top" 528 1660 basechar 0
AnchorPoint: "base" 450 -482 basechar 0
LayerCount: 2
Fore
SplineSet
524 -348 m 257
 524 -408 l 257
 911 -408 l 257
 911 -348 l 257
 524 -348 l 257
186 1490 m 257
 186 0 l 257
 246 0 l 257
 246 1490 l 257
 186 1490 l 257
852 1501 m 257
 852 -408 l 257
 912 -408 l 257
 912 1501 l 257
 852 1501 l 257
112 1550 m 257
 112 1490 l 257
 911 1490 l 257
 911 1550 l 257
 112 1550 l 257
EndSplineSet
EndChar

StartChar: uni0190
Encoding: 400 400 67
GlifName: E_open
Width: 1024
VWidth: 0
GlyphClass: 2
Flags: W
AnchorPoint: "base" 504 -125 basechar 0
AnchorPoint: "top" 520 1641 basechar 0
LayerCount: 2
Fore
SplineSet
103 1542 m 257
 276 860 l 257
 336 859 l 257
 163 1541 l 257
 103 1542 l 257
146 1541 m 257
 146 1481 l 257
 900 1481 l 257
 900 1541 l 257
 146 1541 l 257
170 60 m 257
 170 0 l 257
 916 0 l 257
 916 60 l 257
 170 60 l 257
338 861 m 257
 338 801 l 257
 669 801 l 257
 669 861 l 257
 338 861 l 257
277 804 m 257
 96 2 l 257
 156 1 l 257
 337 803 l 257
 277 804 l 257
EndSplineSet
EndChar

StartChar: uni042D
Encoding: 1069 1069 71
GlifName: E_reversed-cy
Width: 1024
VWidth: 0
Flags: W
LayerCount: 2
Fore
SplineSet
531 1550 m 257
 40 1550 l 257
 40 1490 l 257
 531 1490 l 257
 531 1550 l 257
891 836 m 257
 106 836 l 257
 106 776 l 257
 891 776 l 257
 891 836 l 257
559 69 m 257
 45 69 l 257
 45 9 l 257
 559 9 l 257
 559 69 l 257
531 1549 m 257
 471 1549 l 257
 878 814 l 257
 938 814 l 257
 531 1549 l 257
936 814 m 257
 876 814 l 257
 499 8 l 257
 559 8 l 257
 936 814 l 257
EndSplineSet
EndChar

StartChar: uni01A9
Encoding: 425 425 72
GlifName: E_sh
Width: 1024
VWidth: 0
GlyphClass: 2
Flags: W
LayerCount: 2
Fore
SplineSet
704 928 m 257
 110 64 l 257
 110 -14 l 257
 704 844 l 257
 704 928 l 257
706 921 m 257
 128 1539 l 257
 129 1478 l 257
 706 841 l 257
 706 921 l 257
850 1477 m 257
 850 1537 l 257
 128 1537 l 257
 128 1477 l 257
 850 1477 l 257
788 0 m 257
 788 60 l 257
 125 60 l 257
 125 0 l 257
 788 0 l 257
EndSplineSet
EndChar

StartChar: Eth
Encoding: 208 208 76
GlifName: E_th
Width: 1024
VWidth: 0
GlyphClass: 2
Flags: W
AnchorPoint: "top" 268 1662 basechar 0
AnchorPoint: "base" 292 -132 basechar 0
LayerCount: 2
Fore
SplineSet
55 935 m 257
 55 873 l 257
 362 873 l 257
 362 935 l 257
 55 935 l 257
162 1553 m 257
 162 0 l 257
 223 0 l 257
 223 1553 l 257
 162 1553 l 257
488 1553 m 257
 488 1484 l 257
 969 964 l 257
 969 1023 l 257
 488 1553 l 257
496 60 m 257
 496 0 l 257
 969 964 l 257
 969 1023 l 257
 496 60 l 257
202 1553 m 257
 202 1484 l 257
 488 1484 l 257
 488 1553 l 257
 202 1553 l 257
210 60 m 257
 210 0 l 257
 496 0 l 257
 496 60 l 257
 210 60 l 257
EndSplineSet
EndChar

StartChar: Euro
Encoding: 8364 8364 78
GlifName: E_uro
Width: 1024
VWidth: 0
GlyphClass: 2
Flags: W
LayerCount: 2
Fore
SplineSet
176 520 m 257
 176 451 l 257
 813 451 l 257
 813 520 l 257
 176 520 l 257
188 856 m 257
 188 788 l 257
 797 788 l 257
 797 856 l 257
 188 856 l 257
444 1023 m 257
 444 179 l 257
 524 179 l 257
 524 1023 l 257
 444 1023 l 257
762 1633 m 257
 444 1023 l 257
 524 1023 l 257
 787 1607 l 257
 762 1633 l 257
444 179 m 257
 788 -406 l 257
 848 -406 l 257
 524 179 l 257
 444 179 l 257
EndSplineSet
EndChar

StartChar: uni01B7
Encoding: 439 439 79
GlifName: E_zh
Width: 1024
VWidth: 0
GlyphClass: 2
Flags: W
LayerCount: 2
Fore
SplineSet
860 0 m 257
 860 60 l 257
 164 60 l 257
 164 0 l 257
 860 0 l 257
858 39 m 257
 862 889 l 257
 801 889 l 257
 797 39 l 257
 858 39 l 257
813 829 m 257
 813 889 l 257
 174 889 l 257
 174 829 l 257
 813 829 l 257
121 1544 m 257
 121 1484 l 257
 949 1484 l 257
 949 1544 l 257
 121 1544 l 257
877 1484 m 257
 169 889 l 257
 277 889 l 257
 949 1484 l 257
 877 1484 l 257
EndSplineSet
EndChar

StartChar: uni01B8
Encoding: 440 440 81
GlifName: E_zhreversed
Width: 1024
VWidth: 0
GlyphClass: 2
Flags: W
LayerCount: 2
Fore
SplineSet
210 0 m 257
 906 0 l 257
 906 60 l 257
 210 60 l 257
 210 0 l 257
212 39 m 257
 273 39 l 257
 269 889 l 257
 208 889 l 257
 212 39 l 257
257 829 m 257
 896 829 l 257
 896 889 l 257
 257 889 l 257
 257 829 l 257
949 1544 m 257
 121 1544 l 257
 121 1484 l 257
 949 1484 l 257
 949 1544 l 257
193 1484 m 257
 121 1484 l 257
 793 889 l 257
 901 889 l 257
 193 1484 l 257
EndSplineSet
EndChar

StartChar: F
Encoding: 70 70 82
GlifName: F_
Width: 1024
VWidth: 0
GlyphClass: 2
Flags: W
AnchorPoint: "top" 518 1637 basechar 0
AnchorPoint: "base" 266 -71 basechar 0
LayerCount: 2
Fore
SplineSet
106 1553 m 257
 106 0 l 257
 164 0 l 257
 164 1553 l 257
 106 1553 l 257
164 1553 m 257
 164 1497 l 257
 918 1497 l 257
 918 1553 l 257
 164 1553 l 257
156 864 m 257
 156 806 l 257
 746 806 l 257
 746 864 l 257
 156 864 l 257
EndSplineSet
EndChar

StartChar: G
Encoding: 71 71 85
GlifName: G_
Width: 1024
VWidth: 0
GlyphClass: 2
Flags: W
AnchorPoint: "top" 502 1649 basechar 0
AnchorPoint: "base" 540 -42 basechar 0
LayerCount: 2
Fore
SplineSet
115 1529 m 257
 115 0 l 257
 174 0 l 257
 174 1529 l 257
 115 1529 l 257
168 1529 m 257
 168 1469 l 257
 873 1469 l 257
 873 1529 l 257
 168 1529 l 257
146 60 m 257
 146 0 l 257
 909 0 l 257
 909 60 l 257
 146 60 l 257
848 561 m 257
 848 18 l 257
 909 18 l 257
 909 561 l 257
 848 561 l 257
EndSplineSet
EndChar

StartChar: Gamma
Encoding: 915 915 86
GlifName: G_amma
Width: 1024
VWidth: 0
GlyphClass: 2
Flags: W
LayerCount: 2
Fore
SplineSet
125 1548 m 257
 125 1488 l 257
 899 1488 l 257
 899 1548 l 257
 125 1548 l 257
129 1519 m 257
 129 6 l 257
 189 6 l 257
 189 1519 l 257
 129 1519 l 257
EndSplineSet
EndChar

StartChar: uni0194
Encoding: 404 404 87
GlifName: G_amma_latin
Width: 1024
VWidth: 0
GlyphClass: 2
Flags: W
LayerCount: 2
Fore
SplineSet
221 1543 m 257
 696 -158 l 257
 756 -158 l 257
 281 1543 l 257
 221 1543 l 257
730 1543 m 257
 218 -158 l 257
 278 -158 l 257
 791 1543 l 257
 730 1543 l 257
219 -217 m 257
 757 -218 l 257
 757 -158 l 257
 219 -158 l 257
 219 -217 l 257
EndSplineSet
EndChar

StartChar: uni0490
Encoding: 1168 1168 92
GlifName: G_eupturn-cy
Width: 1024
VWidth: 0
Flags: W
LayerCount: 2
Fore
SplineSet
125 1548 m 257
 125 1488 l 257
 899 1488 l 257
 899 1548 l 257
 125 1548 l 257
129 1519 m 257
 129 6 l 257
 189 6 l 257
 189 1519 l 257
 129 1519 l 257
840 1719.47256399 m 257
 840 1491.68000156 l 257
 903 1491.68000156 l 257
 903 1719.47256399 l 257
 840 1719.47256399 l 257
EndSplineSet
EndChar

StartChar: H
Encoding: 72 72 96
GlifName: H_
Width: 1024
VWidth: 0
GlyphClass: 2
Flags: W
AnchorPoint: "top" 496 1638 basechar 0
AnchorPoint: "base" 496 -34 basechar 0
LayerCount: 2
Fore
SplineSet
114 1553 m 257
 114 0 l 257
 173 0 l 257
 173 1553 l 257
 114 1553 l 257
849 1553 m 257
 849 0 l 257
 910 0 l 257
 910 1553 l 257
 849 1553 l 257
156 923 m 257
 156 864 l 257
 873 864 l 257
 873 923 l 257
 156 923 l 257
EndSplineSet
EndChar

StartChar: uni042A
Encoding: 1066 1066 97
GlifName: H_ardsign-cy
Width: 1024
VWidth: 0
Flags: W
AnchorPoint: "base" 498 -36 basechar 0
AnchorPoint: "top" 220 1646 basechar 0
LayerCount: 2
Fore
SplineSet
346 1536 m 257
 346 0 l 257
 406 0 l 257
 406 1536 l 257
 346 1536 l 257
389 808 m 257
 389 747 l 257
 884 747 l 257
 884 808 l 257
 389 808 l 257
871 808 m 257
 871 0 l 257
 931 0 l 257
 931 808 l 257
 871 808 l 257
381 60 m 257
 381 0 l 257
 909 0 l 257
 909 60 l 257
 381 60 l 257
54 1543 m 257
 54 1482 l 257
 405 1482 l 257
 405 1543 l 257
 54 1543 l 257
EndSplineSet
EndChar

StartChar: Hbar
Encoding: 294 294 98
GlifName: H_bar
Width: 1024
VWidth: 0
GlyphClass: 2
Flags: W
LayerCount: 2
Fore
SplineSet
110 1540 m 257
 110 0 l 257
 170 0 l 257
 170 1540 l 257
 110 1540 l 257
846 1540 m 257
 846 0 l 257
 906 0 l 257
 906 1540 l 257
 846 1540 l 257
150 1023 m 257
 150 959 l 257
 862 959 l 257
 862 1023 l 257
 150 1023 l 257
50 1434 m 257
 50 1374 l 257
 974 1374 l 257
 974 1434 l 257
 50 1434 l 257
EndSplineSet
EndChar

StartChar: uniA78D
Encoding: 42893 42893 103
GlifName: H_turned
Width: 1024
VWidth: 0
GlyphClass: 2
Flags: W
AnchorPoint: "top" 248 1646 basechar 0
AnchorPoint: "base" 824 -54 basechar 0
LayerCount: 2
Fore
SplineSet
850 0 m 257
 850 1519 l 257
 791 1519 l 257
 791 0 l 257
 850 0 l 257
810 497 m 257
 810 557 l 257
 221 557 l 257
 221 497 l 257
 810 497 l 257
233 497 m 257
 233 1525 l 257
 174 1525 l 257
 174 497 l 257
 233 497 l 257
EndSplineSet
EndChar

StartChar: I
Encoding: 73 73 104
GlifName: I_
Width: 1024
VWidth: 0
GlyphClass: 2
Flags: W
AnchorPoint: "top" 470 1641 basechar 0
AnchorPoint: "base" 736 -26 basechar 0
LayerCount: 2
Fore
SplineSet
154 1550 m 257
 154 1489 l 257
 855 1489 l 257
 855 1550 l 257
 154 1550 l 257
478 1515 m 257
 478 34 l 257
 537 34 l 257
 537 1515 l 257
 478 1515 l 257
134 66 m 257
 134 6 l 257
 890 6 l 257
 890 66 l 257
 134 66 l 257
EndSplineSet
EndChar

StartChar: uniA7AE
Encoding: 42926 42926 108
GlifName: I_capitalsmall
Width: 1024
VWidth: 0
GlyphClass: 2
Flags: W
AnchorPoint: "top" 470 1641 basechar 0
AnchorPoint: "base" 504 -66 basechar 0
LayerCount: 2
Fore
SplineSet
77 1537 m 257
 77 1477 l 257
 940 1477 l 257
 940 1537 l 257
 77 1537 l 257
480 1506 m 257
 480 33 l 257
 540 33 l 257
 540 1506 l 257
 480 1506 l 257
77 60 m 257
 74 0 l 257
 933 0 l 257
 936 60 l 257
 77 60 l 257
109 0 m 257
 113 373 l 257
 52 373 l 257
 52 0 l 257
 109 0 l 257
960 0 m 257
 964 373 l 257
 903 373 l 257
 903 0 l 257
 960 0 l 257
114 1165 m 257
 118 1538 l 257
 55 1538 l 257
 55 1165 l 257
 114 1165 l 257
963 1164 m 257
 967 1537 l 257
 904 1537 l 257
 904 1164 l 257
 963 1164 l 257
EndSplineSet
EndChar

StartChar: uni0418
Encoding: 1048 1048 114
GlifName: I_i-cy
Width: 1024
VWidth: 0
Flags: W
LayerCount: 2
Fore
SplineSet
34 1552 m 257
 34 0 l 257
 94 0 l 257
 94 1552 l 257
 34 1552 l 257
929 1552 m 257
 929 0 l 257
 989 0 l 257
 989 1552 l 257
 929 1552 l 257
929 1552 m 257
 34 0 l 257
 94 0 l 257
 990 1552 l 257
 929 1552 l 257
EndSplineSet
EndChar

StartChar: uni0196
Encoding: 406 406 120
GlifName: I_ota_latin
Width: 1024
VWidth: 0
GlyphClass: 2
Flags: W
AnchorPoint: "top" 314 1647 basechar 0
AnchorPoint: "base" 736 -26 basechar 0
LayerCount: 2
Fore
SplineSet
296 1543 m 257
 296 107 l 257
 356 107 l 257
 356 1543 l 257
 296 1543 l 257
296 172 m 257
 296 106 l 257
 792 6 l 257
 792 72 l 257
 296 172 l 257
EndSplineSet
EndChar

StartChar: uni0474
Encoding: 1140 1140 126
GlifName: I_zhitsa-cy
Width: 1024
VWidth: 0
Flags: W
AnchorPoint: "top" 496 1642 basechar 0
AnchorPoint: "base" 564 -54 basechar 0
LayerCount: 2
Fore
SplineSet
106 1553 m 257
 514 0 l 257
 574 0 l 257
 170 1553 l 257
 106 1553 l 257
848 1553 m 257
 514 0 l 257
 574 0 l 257
 918 1553 l 257
 848 1553 l 257
878 1503 m 257
 984 1497 l 257
 1021 1547 l 257
 916 1553 l 257
 878 1503 l 257
EndSplineSet
EndChar

StartChar: J
Encoding: 74 74 127
GlifName: J_
Width: 1024
VWidth: 0
GlyphClass: 2
Flags: W
AnchorPoint: "base" 606 -73 basechar 0
AnchorPoint: "top" 870 1643 basechar 0
LayerCount: 2
Fore
SplineSet
840 1527 m 257
 840 0 l 257
 900 0 l 257
 900 1527 l 257
 840 1527 l 257
124 60 m 257
 124 0 l 257
 866 0 l 257
 866 60 l 257
 124 60 l 257
124 503 m 257
 124 27 l 257
 184 27 l 257
 184 503 l 257
 124 503 l 257
EndSplineSet
EndChar

StartChar: K
Encoding: 75 75 131
GlifName: K_
Width: 1024
VWidth: 0
GlyphClass: 2
Flags: W
AnchorPoint: "base" 494 -39 basechar 0
AnchorPoint: "top" 189 1633 basechar 0
LayerCount: 2
Fore
SplineSet
172 1553 m 257
 172 5 l 257
 232 5 l 257
 232 1553 l 257
 172 1553 l 257
230 1015 m 257
 230 944 l 257
 818 1550 l 257
 748 1550 l 257
 230 1015 l 257
230 934 m 257
 210 844 l 257
 802 0 l 257
 852 0 l 257
 230 934 l 257
EndSplineSet
EndChar

StartChar: uni03CF
Encoding: 975 975 132
GlifName: K_aiS_ymbol
Width: 1024
VWidth: 0
GlyphClass: 2
Flags: W
LayerCount: 2
Fore
SplineSet
463 -351 m 257
 521 -379 l 257
 856 0 l 257
 798 28 l 257
 463 -351 l 257
EndSplineSet
Refer: 131 75 N 1 0 0 1 0 0 2
EndChar

StartChar: uni0198
Encoding: 408 408 134
GlifName: K_hook
Width: 1024
VWidth: 0
GlyphClass: 2
Flags: W
LayerCount: 2
Fore
SplineSet
172 1553 m 257
 172 5 l 257
 232 5 l 257
 232 1553 l 257
 172 1553 l 257
230 1015 m 257
 230 944 l 257
 818 1550 l 257
 748 1550 l 257
 230 1015 l 257
230 934 m 257
 210 844 l 257
 802 0 l 257
 852 0 l 257
 230 934 l 257
1088 1694 m 257
 1020 1813 l 257
 821 1698 l 257
 890 1579 l 257
 1088 1694 l 257
950 1728 m 257
 821 1698 l 257
 748 1550 l 257
 818 1550 l 257
 950 1728 l 257
EndSplineSet
EndChar

StartChar: L
Encoding: 76 76 136
GlifName: L_
Width: 1024
VWidth: 0
GlyphClass: 2
Flags: W
AnchorPoint: "base" 498 -43 basechar 0
AnchorPoint: "top" 140 1650 basechar 0
LayerCount: 2
Fore
SplineSet
132 1553 m 257
 132 0 l 257
 192 0 l 257
 192 1553 l 257
 132 1553 l 257
147 61 m 257
 147 0 l 257
 892 0 l 257
 892 61 l 257
 147 61 l 257
EndSplineSet
EndChar

StartChar: Lambda
Encoding: 923 923 139
GlifName: L_ambda
Width: 1024
VWidth: 0
GlyphClass: 2
Flags: W
LayerCount: 2
Fore
SplineSet
793 0 m 257
 533 1548 l 257
 460 1548 l 257
 740 0 l 257
 793 0 l 257
307 0 m 257
 532 1548 l 257
 461 1548 l 257
 258 0 l 257
 307 0 l 257
EndSplineSet
EndChar

StartChar: Lcaron
Encoding: 317 317 140
GlifName: L_caron
Width: 1024
VWidth: 0
GlyphClass: 2
Flags: W
LayerCount: 2
Fore
SplineSet
94 1542 m 257
 94 0 l 257
 156 0 l 257
 156 1542 l 257
 94 1542 l 257
122 62 m 257
 122 0 l 257
 930 0 l 257
 930 62 l 257
 122 62 l 257
488 1496 m 257
 488 1264 l 257
 528 1264 l 257
 528 1496 l 257
 488 1496 l 257
EndSplineSet
EndChar

StartChar: uni0409
Encoding: 1033 1033 143
GlifName: L_je-cy
Width: 1024
VWidth: 0
Flags: W
LayerCount: 2
Fore
SplineSet
599 1548 m 257
 599 -1 l 257
 659 -1 l 257
 659 1548 l 257
 599 1548 l 257
297 1548 m 257
 297 1488 l 257
 647 1488 l 257
 647 1548 l 257
 297 1548 l 257
296 1548 m 257
 114 0 l 257
 174 0 l 257
 356 1548 l 257
 296 1548 l 257
33 61 m 257
 33 1 l 257
 174 1 l 257
 174 61 l 257
 33 61 l 257
650 57 m 257
 650 -3 l 257
 873 -3 l 257
 873 57 l 257
 650 57 l 257
658 783 m 257
 658 723 l 257
 874 723 l 257
 874 783 l 257
 658 783 l 257
814 9 m 257
 874 9 l 257
 874 784 l 257
 814 784 l 257
 814 9 l 257
EndSplineSet
EndChar

StartChar: Lslash
Encoding: 321 321 145
GlifName: L_slash
Width: 1024
VWidth: 0
GlyphClass: 2
Flags: W
LayerCount: 2
Fore
SplineSet
171 1542 m 257
 171 0 l 257
 231 0 l 257
 231 1542 l 257
 171 1542 l 257
195 64 m 257
 195 0 l 257
 1006 0 l 257
 1006 64 l 257
 195 64 l 257
16 902 m 257
 96 866 l 257
 530 1068 l 257
 450 1104 l 257
 16 902 l 257
EndSplineSet
EndChar

StartChar: M
Encoding: 77 77 146
GlifName: M_
Width: 1024
VWidth: 0
GlyphClass: 2
Flags: W
AnchorPoint: "base" 514 -39 basechar 0
AnchorPoint: "top" 532 1642 basechar 0
LayerCount: 2
Fore
SplineSet
100 1553 m 257
 100 0 l 257
 160 0 l 257
 160 1553 l 257
 100 1553 l 257
862 1564 m 257
 862 0 l 257
 924 0 l 257
 924 1564 l 257
 862 1564 l 257
100 1553 m 257
 476 1033 l 257
 544 1033 l 257
 160 1553 l 257
 100 1553 l 257
862 1564 m 257
 476 1033 l 257
 544 1033 l 257
 924 1564 l 257
 862 1564 l 257
EndSplineSet
EndChar

StartChar: uni019C
Encoding: 412 412 147
GlifName: M_turned
Width: 1024
VWidth: 0
GlyphClass: 2
Flags: W
AnchorPoint: "base" 540 -112 basechar 0
AnchorPoint: "top" 550 1110 basechar 0
LayerCount: 2
Fore
SplineSet
890 30 m 257
 890 1546 l 257
 830 1546 l 257
 830 30 l 257
 890 30 l 257
506 51 m 257
 506 1546 l 257
 446 1546 l 257
 446 51 l 257
 506 51 l 257
120 47 m 257
 120 1546 l 257
 60 1546 l 257
 60 47 l 257
 120 47 l 257
964 0 m 257
 964 57 l 257
 60 57 l 257
 60 0 l 257
 964 0 l 257
EndSplineSet
EndChar

StartChar: N
Encoding: 78 78 149
GlifName: N_
Width: 1024
VWidth: 0
GlyphClass: 2
Flags: W
AnchorPoint: "top" 488 1642 basechar 0
AnchorPoint: "base" 522 -36 basechar 0
LayerCount: 2
Fore
SplineSet
98 1553 m 257
 98 0 l 257
 158 0 l 257
 158 1553 l 257
 98 1553 l 257
866 1553 m 257
 866 0 l 257
 926 0 l 257
 926 1553 l 257
 866 1553 l 257
98 1553 m 257
 866 0 l 257
 926 0 l 257
 158 1553 l 257
 98 1553 l 257
EndSplineSet
EndChar

StartChar: uni040A
Encoding: 1034 1034 154
GlifName: N_je-cy
Width: 1024
VWidth: 0
Flags: W
LayerCount: 2
Fore
SplineSet
34 1545 m 257
 34 0 l 257
 94 0 l 257
 94 1545 l 257
 34 1545 l 257
481 1545 m 257
 481 0 l 257
 541 0 l 257
 541 1545 l 257
 481 1545 l 257
56 828 m 257
 55 768 l 257
 954 768 l 257
 955 828 l 257
 56 828 l 257
929 828 m 257
 929 1 l 257
 989 0 l 257
 989 827 l 257
 929 828 l 257
532 60 m 257
 532 0 l 257
 990 0 l 257
 990 60 l 257
 532 60 l 257
EndSplineSet
EndChar

StartChar: O
Encoding: 79 79 158
GlifName: O_
Width: 1024
VWidth: 0
GlyphClass: 2
Flags: W
AnchorPoint: "top" 456 1646 basechar 0
AnchorPoint: "base" 832 -94 basechar 0
LayerCount: 2
Fore
SplineSet
112 1553 m 257
 112 0 l 257
 171 0 l 257
 171 1553 l 257
 112 1553 l 257
853 1553 m 257
 853 0 l 257
 912 0 l 257
 912 1553 l 257
 853 1553 l 257
150 1553 m 257
 150 1493 l 257
 882 1493 l 257
 882 1553 l 257
 150 1553 l 257
152 61 m 257
 152 0 l 257
 890 0 l 257
 890 61 l 257
 152 61 l 257
EndSplineSet
EndChar

StartChar: OE
Encoding: 338 338 159
GlifName: O_E_
Width: 1024
VWidth: 0
GlyphClass: 2
Flags: W
AnchorPoint: "top" 606 1636 basechar 0
AnchorPoint: "base" 594 -92 basechar 0
LayerCount: 2
Fore
SplineSet
123 1553 m 257
 123 0 l 257
 182 0 l 257
 182 1553 l 257
 123 1553 l 257
587 1553 m 257
 587 0 l 257
 646 0 l 257
 646 1553 l 257
 587 1553 l 257
161 1553 m 257
 161 1493 l 257
 893 1493 l 257
 893 1553 l 257
 161 1553 l 257
163 61 m 257
 163 0 l 257
 901 0 l 257
 901 61 l 257
 163 61 l 257
619 859 m 257
 619 798 l 257
 842 798 l 257
 842 859 l 257
 619 859 l 257
EndSplineSet
EndChar

StartChar: uni019F
Encoding: 415 415 161
GlifName: O_barred
Width: 1024
VWidth: 0
GlyphClass: 2
Flags: W
AnchorPoint: "top" 539 1698 basechar 0
AnchorPoint: "base" 832 -94 basechar 0
LayerCount: 2
Fore
SplineSet
112 1553 m 257
 112 0 l 257
 171 0 l 257
 171 1553 l 257
 112 1553 l 257
853 1553 m 257
 853 0 l 257
 912 0 l 257
 912 1553 l 257
 853 1553 l 257
150 1553 m 257
 150 1493 l 257
 882 1493 l 257
 882 1553 l 257
 150 1553 l 257
152 61 m 257
 152 0 l 257
 890 0 l 257
 890 61 l 257
 152 61 l 257
128.926746 793 m 257
 128.926746 733 l 257
 904.25495 733 l 257
 904.25495 793 l 257
 128.926746 793 l 257
EndSplineSet
EndChar

StartChar: uniA7B6
Encoding: 42934 42934 171
GlifName: O_mega_latin
Width: 1024
VWidth: 0
GlyphClass: 2
Flags: W
AnchorPoint: "base" 526 -64 basechar 0
AnchorPoint: "top" 508 1646 basechar 0
LayerCount: 2
Fore
SplineSet
64 1548 m 257
 64 0 l 257
 124 0 l 257
 124 1548 l 257
 64 1548 l 257
899 1548 m 257
 899 0 l 257
 959 0 l 257
 961 1549 l 257
 899 1548 l 257
481 669 m 257
 481 146 l 257
 541 146 l 257
 541 669 l 257
 481 669 l 257
124 60 m 257
 124 0 l 257
 481 146 l 257
 481 206 l 257
 124 60 l 257
541 206 m 257
 541 146 l 257
 899 1 l 257
 899 61 l 257
 541 206 l 257
95 1548 m 257
 97 1488 l 257
 397 1488 l 257
 395 1548 l 257
 95 1548 l 257
619 1548 m 257
 617 1488 l 257
 959 1488 l 257
 961 1548 l 257
 619 1548 l 257
EndSplineSet
EndChar

StartChar: Oslash
Encoding: 216 216 177
GlifName: O_slash
Width: 1024
VWidth: 0
GlyphClass: 2
Flags: W
AnchorPoint: "top" 510 1666 basechar 0
AnchorPoint: "base" 498 -122 basechar 0
LayerCount: 2
Fore
SplineSet
899 1630 m 257
 69 -48 l 257
 109 -75 l 257
 955 1588 l 257
 899 1630 l 257
107 1540 m 257
 107 0 l 257
 167 0 l 257
 167 1540 l 257
 107 1540 l 257
848 1537 m 257
 848 0 l 257
 907 0 l 257
 907 1537 l 257
 848 1537 l 257
137 1538 m 257
 137 1478 l 257
 877 1478 l 257
 877 1538 l 257
 137 1538 l 257
147 75 m 257
 147 0 l 257
 848 0 l 257
 848 75 l 257
 147 75 l 257
EndSplineSet
EndChar

StartChar: P
Encoding: 80 80 180
GlifName: P_
Width: 1024
VWidth: 0
GlyphClass: 2
Flags: W
AnchorPoint: "base" 496 -29 basechar 0
AnchorPoint: "top" 473 1645 basechar 0
LayerCount: 2
Fore
SplineSet
132 1535 m 257
 132 0 l 257
 191 0 l 257
 191 1535 l 257
 132 1535 l 257
132 1550 m 257
 132 1472 l 257
 892 1472 l 257
 892 1550 l 257
 132 1550 l 257
831 1536 m 257
 831 872 l 257
 892 872 l 257
 892 1536 l 257
 831 1536 l 257
177 931 m 257
 177 871 l 257
 864 871 l 257
 864 931 l 257
 177 931 l 257
EndSplineSet
EndChar

StartChar: Phi
Encoding: 934 934 182
GlifName: P_hi
Width: 1024
VWidth: 0
GlyphClass: 2
Flags: W
LayerCount: 2
Fore
SplineSet
494 1541 m 257
 494 13 l 257
 554 13 l 257
 554 1541 l 257
 494 1541 l 257
110 1373 m 257
 110 163 l 257
 171 163 l 257
 171 1373 l 257
 110 1373 l 257
850 1373 m 257
 850 163 l 257
 910 163 l 257
 910 1373 l 257
 850 1373 l 257
146 1373 m 257
 146 1313 l 257
 882 1313 l 257
 882 1373 l 257
 146 1373 l 257
150 223 m 257
 150 163 l 257
 870 163 l 257
 870 223 l 257
 150 223 l 257
EndSplineSet
EndChar

StartChar: uni01A4
Encoding: 420 420 183
GlifName: P_hook
Width: 1024
VWidth: 0
GlyphClass: 2
Flags: W
AnchorPoint: "base" 637 -29 basechar 0
AnchorPoint: "top" 614 1645 basechar 0
LayerCount: 2
Fore
SplineSet
273 1535 m 257
 273 0 l 257
 332 0 l 257
 332 1535 l 257
 273 1535 l 257
273 1550 m 257
 273 1472 l 257
 1033 1472 l 257
 1033 1550 l 257
 273 1550 l 257
972 1536 m 257
 972 872 l 257
 1033 872 l 257
 1033 1536 l 257
 972 1536 l 257
318 931 m 257
 318 871 l 257
 1005 871 l 257
 1005 931 l 257
 318 931 l 257
45.8741 1380.2 m 257
 198.4 1417.41 l 257
 166.163 1549.54 l 257
 13.637 1512.32 l 257
 45.8741 1380.2 l 257
55.108 1468.91 m 257
 292.395 1483.58 l 257
 328.146 1543.77 l 257
 149.15 1543.33 l 257
 55.108 1468.91 l 257
EndSplineSet
EndChar

StartChar: Pi
Encoding: 928 928 184
GlifName: P_i
Width: 1024
VWidth: 0
GlyphClass: 2
Flags: W
LayerCount: 2
Fore
SplineSet
110 1537 m 257
 110 0 l 257
 170 0 l 257
 170 1537 l 257
 110 1537 l 257
849 1535 m 257
 849 -2 l 257
 910 0 l 257
 910 1537 l 257
 849 1535 l 257
110 1537 m 257
 110 1477 l 257
 909 1477 l 257
 909 1537 l 257
 110 1537 l 257
EndSplineSet
EndChar

StartChar: Psi
Encoding: 936 936 185
GlifName: P_si
Width: 1024
VWidth: 0
GlyphClass: 2
Flags: W
LayerCount: 2
Fore
SplineSet
483 1266 m 257
 483 0 l 257
 543 0 l 257
 543 1266 l 257
 483 1266 l 257
160 1548 m 257
 160 806 l 257
 220 806 l 257
 220 1548 l 257
 160 1548 l 257
804 1546 m 257
 804 804 l 257
 864 806 l 257
 864 1548 l 257
 804 1546 l 257
176 866 m 257
 176 806 l 257
 850 806 l 257
 850 866 l 257
 176 866 l 257
EndSplineSet
EndChar

StartChar: Q
Encoding: 81 81 187
GlifName: Q_
Width: 1024
VWidth: 0
GlyphClass: 2
Flags: W
AnchorPoint: "base" 514 -66 basechar 0
AnchorPoint: "top" 501 1636 basechar 0
LayerCount: 2
Fore
SplineSet
112 1553 m 257
 112 0 l 257
 170 0 l 257
 170 1553 l 257
 112 1553 l 257
854 1553 m 257
 854 0 l 257
 912 0 l 257
 912 1553 l 257
 854 1553 l 257
152 1553 m 257
 152 1496 l 257
 862 1496 l 257
 862 1553 l 257
 152 1553 l 257
152 62 m 257
 152 0 l 257
 864 0 l 257
 864 62 l 257
 152 62 l 257
616 13 m 257
 722 -204 l 257
 784 -165 l 257
 664 52 l 257
 616 13 l 257
EndSplineSet
EndChar

StartChar: R
Encoding: 82 82 188
GlifName: R_
Width: 1024
VWidth: 0
GlyphClass: 2
Flags: W
AnchorPoint: "base" 510 -28 basechar 0
AnchorPoint: "top" 480 1642 basechar 0
LayerCount: 2
Fore
SplineSet
122 1550 m 257
 122 0 l 257
 182 0 l 257
 182 1550 l 257
 122 1550 l 257
164 1550 m 257
 164 1491 l 257
 856 1491 l 257
 856 1550 l 257
 164 1550 l 257
822 1550 m 257
 822 872 l 257
 884 872 l 257
 884 1550 l 257
 822 1550 l 257
152 929 m 257
 152 868 l 257
 872 868 l 257
 872 929 l 257
 152 929 l 257
414 875 m 257
 846 0 l 257
 902 0 l 257
 472 875 l 257
 414 875 l 257
EndSplineSet
EndChar

StartChar: S
Encoding: 83 83 196
GlifName: S_
Width: 1024
VWidth: 0
GlyphClass: 2
Flags: W
AnchorPoint: "top" 508 1650 basechar 0
AnchorPoint: "base" 528 -58 basechar 0
LayerCount: 2
Fore
SplineSet
126 1553 m 257
 126 1494 l 257
 724 1494 l 257
 724 1553 l 257
 126 1553 l 257
126 1542 m 257
 126 1028 l 257
 185 1028 l 257
 185 1542 l 257
 126 1542 l 257
154 60 m 257
 154 0 l 257
 862 0 l 257
 862 60 l 257
 154 60 l 257
839 0 m 257
 898 0 l 257
 898 355 l 257
 839 355 l 257
 839 0 l 257
126 1028 m 257
 839 355 l 257
 898 355 l 257
 185 1028 l 257
 126 1028 l 257
EndSplineSet
EndChar

StartChar: uniA78B
Encoding: 42891 42891 198
GlifName: S_altillo
Width: 1024
VWidth: 0
GlyphClass: 2
Flags: W
LayerCount: 2
Fore
SplineSet
414 1458 m 257
 498 454 l 257
 553 449 l 257
 637 1458 l 257
 414 1458 l 257
EndSplineSet
EndChar

StartChar: uni0428
Encoding: 1064 1064 202
GlifName: S_ha-cy
Width: 1024
VWidth: 0
Flags: W
LayerCount: 2
Fore
SplineSet
134 1548 m 257
 134 3 l 257
 194 3 l 257
 194 1548 l 257
 134 1548 l 257
845 1548 m 257
 845 0 l 257
 905 0 l 257
 905 1548 l 257
 845 1548 l 257
143 60 m 257
 143 0 l 257
 905 0 l 257
 905 60 l 257
 143 60 l 257
490 1548 m 257
 490 5 l 257
 550 5 l 257
 550 1548 l 257
 490 1548 l 257
EndSplineSet
EndChar

StartChar: uni0429
Encoding: 1065 1065 203
GlifName: S_hcha-cy
Width: 1024
VWidth: 0
Flags: W
LayerCount: 2
Fore
SplineSet
37 1548 m 257
 37 3 l 257
 97 3 l 257
 97 1548 l 257
 37 1548 l 257
748 1548 m 257
 748 0 l 257
 808 0 l 257
 808 1548 l 257
 748 1548 l 257
46 60 m 257
 46 0 l 257
 808 0 l 257
 808 60 l 257
 46 60 l 257
804 67 m 257
 804 -401 l 257
 864 -401 l 257
 864 67 l 257
 804 67 l 257
393 1548 m 257
 393 5 l 257
 453 5 l 257
 453 1548 l 257
 393 1548 l 257
EndSplineSet
EndChar

StartChar: Sigma
Encoding: 931 931 204
GlifName: S_igma
Width: 1024
VWidth: 0
GlyphClass: 2
Flags: W
LayerCount: 2
Fore
SplineSet
704 928 m 257
 110 64 l 257
 110 -14 l 257
 704 844 l 257
 704 928 l 257
706 921 m 257
 128 1539 l 257
 129 1478 l 257
 706 841 l 257
 706 921 l 257
850 1477 m 257
 850 1537 l 257
 128 1537 l 257
 128 1477 l 257
 850 1477 l 257
788 0 m 257
 788 60 l 257
 125 60 l 257
 125 0 l 257
 788 0 l 257
EndSplineSet
EndChar

StartChar: uni042C
Encoding: 1068 1068 205
GlifName: S_oftsign-cy
Width: 1024
VWidth: 0
Flags: W
AnchorPoint: "base" 498 -36 basechar 0
AnchorPoint: "top" 220 1646 basechar 0
LayerCount: 2
Fore
SplineSet
47 1536 m 257
 47 0 l 257
 107 0 l 257
 107 1536 l 257
 47 1536 l 257
90 808 m 257
 90 747 l 257
 884 747 l 257
 884 808 l 257
 90 808 l 257
871 808 m 257
 871 0 l 257
 931 0 l 257
 931 808 l 257
 871 808 l 257
82 60 m 257
 82 0 l 257
 909 0 l 257
 909 60 l 257
 82 60 l 257
EndSplineSet
EndChar

StartChar: T
Encoding: 84 84 206
GlifName: T_
Width: 1024
VWidth: 0
GlyphClass: 2
Flags: W
AnchorPoint: "top" 516 1638 basechar 0
AnchorPoint: "base" 492 -54 basechar 0
LayerCount: 2
Fore
SplineSet
120 1553 m 257
 120 1494 l 257
 904 1494 l 257
 904 1553 l 257
 120 1553 l 257
484 1512 m 257
 484 12 l 257
 542 12 l 257
 542 1512 l 257
 484 1512 l 257
EndSplineSet
EndChar

StartChar: Theta
Encoding: 920 920 211
GlifName: T_heta
Width: 1024
VWidth: 0
GlyphClass: 2
Flags: W
LayerCount: 2
Fore
SplineSet
382 883 m 257
 382 823 l 257
 670 823 l 257
 670 883 l 257
 382 883 l 257
110 1537 m 257
 110 0 l 257
 170 0 l 257
 170 1537 l 257
 110 1537 l 257
850 1537 m 257
 850 0 l 257
 910 0 l 257
 910 1537 l 257
 850 1537 l 257
150 1537 m 257
 150 1477 l 257
 875 1477 l 257
 875 1537 l 257
 150 1537 l 257
150 60 m 257
 150 0 l 257
 889 0 l 257
 889 60 l 257
 150 60 l 257
EndSplineSet
EndChar

StartChar: uni01AC
Encoding: 428 428 212
GlifName: T_hook
Width: 1024
VWidth: 0
GlyphClass: 2
Flags: W
AnchorPoint: "top" 624 1638 basechar 0
AnchorPoint: "base" 600 -54 basechar 0
LayerCount: 2
Fore
SplineSet
228 1553 m 257
 228 1494 l 257
 1012 1494 l 257
 1012 1553 l 257
 228 1553 l 257
592 1512 m 257
 592 12 l 257
 650 12 l 257
 650 1512 l 257
 592 1512 l 257
555.777 1551.56 m 257
 136.787 1548.56 l 257
 137.216 1488.57 l 257
 554.205 1491.54 l 257
 555.777 1551.56 l 257
136.787 1548.56 m 257
 138.901 1252.57 l 257
 198.899 1253 l 257
 196.786 1548.99 l 257
 136.787 1548.56 l 257
EndSplineSet
EndChar

StartChar: Thorn
Encoding: 222 222 213
GlifName: T_horn
Width: 1024
VWidth: 0
GlyphClass: 2
Flags: W
AnchorPoint: "base" 221 -42 basechar 0
AnchorPoint: "top" 189 1684 basechar 0
LayerCount: 2
Fore
SplineSet
134 1542 m 257
 134 9 l 257
 194 9 l 257
 194 1542 l 257
 134 1542 l 257
182 1240 m 257
 182 1187 l 257
 870 1187 l 257
 870 1240 l 257
 182 1240 l 257
830 1242 m 257
 830 531 l 257
 890 531 l 257
 890 1242 l 257
 830 1242 l 257
202 544 m 257
 202 484 l 257
 888 484 l 257
 888 544 l 257
 202 544 l 257
EndSplineSet
EndChar

StartChar: uni01AE
Encoding: 430 430 215
GlifName: T_retroflexhook
Width: 1024
VWidth: 0
GlyphClass: 2
Flags: W
AnchorPoint: "top" 516 1638 basechar 0
AnchorPoint: "base" 492 -54 basechar 0
LayerCount: 2
Fore
SplineSet
120 1553 m 257
 120 1494 l 257
 904 1494 l 257
 904 1553 l 257
 120 1553 l 257
484 1512 m 257
 484 12 l 257
 542 12 l 257
 542 1512 l 257
 484 1512 l 257
485 219 m 257
 485 -200 l 257
 545 -200 l 257
 545 217 l 257
 485 219 l 257
485 -200 m 257
 781 -200 l 257
 781 -140 l 257
 485 -140 l 257
 485 -200 l 257
EndSplineSet
EndChar

StartChar: uni0426
Encoding: 1062 1062 216
GlifName: T_se-cy
Width: 1024
VWidth: 0
Flags: W
LayerCount: 2
Fore
SplineSet
37 1548 m 257
 37 3 l 257
 97 3 l 257
 97 1548 l 257
 37 1548 l 257
748 1553 m 257
 748 0 l 257
 808 0 l 257
 808 1553 l 257
 748 1553 l 257
46 60 m 257
 46 0 l 257
 808 0 l 257
 808 60 l 257
 46 60 l 257
804 67 m 257
 804 -401 l 257
 864 -401 l 257
 864 67 l 257
 804 67 l 257
EndSplineSet
EndChar

StartChar: uni040B
Encoding: 1035 1035 217
GlifName: T_she-cy
Width: 1024
VWidth: 0
Flags: W
LayerCount: 2
Fore
SplineSet
48 1548 m 257
 48 1488 l 257
 836 1488 l 257
 836 1548 l 257
 48 1548 l 257
303 1544 m 257
 303 -1 l 257
 363 -1 l 257
 363 1544 l 257
 303 1544 l 257
316 994 m 257
 316 934 l 257
 929 934 l 257
 929 994 l 257
 316 994 l 257
869 989 m 257
 869 0 l 257
 929 0 l 257
 929 989 l 257
 869 989 l 257
EndSplineSet
EndChar

StartChar: U
Encoding: 85 85 218
GlifName: U_
Width: 1024
VWidth: 0
GlyphClass: 2
Flags: W
AnchorPoint: "top" 508 1642 basechar 0
AnchorPoint: "base" 536 -94 basechar 0
LayerCount: 2
Fore
SplineSet
157 1553 m 257
 157 0 l 257
 219 0 l 257
 219 1553 l 257
 157 1553 l 257
807 1553 m 257
 807 0 l 257
 867 0 l 257
 867 1553 l 257
 807 1553 l 257
204 61 m 257
 204 0 l 257
 824 0 l 257
 824 61 l 257
 204 61 l 257
EndSplineSet
EndChar

StartChar: uni0423
Encoding: 1059 1059 219
GlifName: U_-cy
Width: 1024
VWidth: 0
Flags: W
AnchorPoint: "top" 528 1142 basechar 0
AnchorPoint: "base" 556 -464 basechar 0
LayerCount: 2
Fore
SplineSet
817 1427 m 257
 817 -2 l 257
 877 -2 l 257
 877 1427 l 257
 817 1427 l 257
147 53 m 257
 147 -2 l 257
 864 -2 l 257
 864 53 l 257
 147 53 l 257
147 1427 m 257
 147 668 l 257
 207 668 l 257
 207 1427 l 257
 147 1427 l 257
147 728 m 257
 147 668 l 257
 837 668 l 257
 837 728 l 257
 147 728 l 257
EndSplineSet
EndChar

StartChar: uni01B1
Encoding: 433 433 231
GlifName: U_psilon_latin
Width: 1024
VWidth: 0
GlyphClass: 2
Flags: W
AnchorPoint: "top" 508 1642 basechar 0
LayerCount: 2
Fore
SplineSet
300 1455 m 257
 139 0 l 257
 199 0 l 257
 360 1455 l 257
 300 1455 l 257
739 1455 m 257
 857 0 l 257
 917 0 l 257
 799 1455 l 257
 739 1455 l 257
186 56 m 257
 186 0 l 257
 867 0 l 257
 867 63 l 257
 186 56 l 257
775 1455 m 257
 779 1395 l 257
 1010 1395 l 257
 1006 1455 l 257
 775 1455 l 257
89 1455 m 257
 88 1395 l 257
 326 1395 l 257
 327 1455 l 257
 89 1455 l 257
EndSplineSet
EndChar

StartChar: V
Encoding: 86 86 238
GlifName: V_
Width: 1024
VWidth: 0
GlyphClass: 2
Flags: W
AnchorPoint: "top" 496 1642 basechar 0
AnchorPoint: "base" 564 -54 basechar 0
LayerCount: 2
Fore
SplineSet
106 1553 m 257
 514 0 l 257
 574 0 l 257
 170 1553 l 257
 106 1553 l 257
848 1553 m 257
 514 0 l 257
 574 0 l 257
 918 1553 l 257
 848 1553 l 257
EndSplineSet
EndChar

StartChar: uni01B2
Encoding: 434 434 239
GlifName: V_hook
Width: 1024
VWidth: 0
GlyphClass: 2
Flags: W
AnchorPoint: "top" 504 1158 basechar 0
AnchorPoint: "base" 536 -38 basechar 0
LayerCount: 2
Fore
SplineSet
103 1623 m 257
 103 0 l 257
 162 0 l 257
 162 1623 l 257
 103 1623 l 257
860 1623 m 257
 860 0 l 257
 921 0 l 257
 921 1623 l 257
 860 1623 l 257
523 1623 m 257
 523 1567 l 257
 865 1567 l 257
 865 1623 l 257
 523 1623 l 257
149 62 m 257
 149 0 l 257
 868 0 l 257
 868 62 l 257
 149 62 l 257
EndSplineSet
EndChar

StartChar: W
Encoding: 87 87 241
GlifName: W_
Width: 1024
VWidth: 0
GlyphClass: 2
Flags: W
AnchorPoint: "base" 526 -64 basechar 0
AnchorPoint: "top" 508 1646 basechar 0
LayerCount: 2
Fore
SplineSet
103 1550 m 257
 103 0 l 257
 163 0 l 257
 163 1550 l 257
 103 1550 l 257
861 1533 m 257
 861 12 l 257
 921 12 l 257
 921 1533 l 257
 861 1533 l 257
482 1028 m 257
 482 0 l 257
 542 0 l 257
 542 1028 l 257
 482 1028 l 257
111 60 m 257
 111 0 l 257
 921 0 l 257
 921 60 l 257
 111 60 l 257
EndSplineSet
EndChar

StartChar: X
Encoding: 88 88 247
GlifName: X_
Width: 1024
VWidth: 0
GlyphClass: 2
Flags: W
AnchorPoint: "top" 498 1636 basechar 0
AnchorPoint: "base" 486 -32 basechar 0
LayerCount: 2
Fore
SplineSet
54 1553 m 257
 896 0 l 257
 970 0 l 257
 126 1553 l 257
 54 1553 l 257
70 0 m 257
 128 0 l 257
 874 1553 l 257
 798 1553 l 257
 70 0 l 257
EndSplineSet
EndChar

StartChar: Xi
Encoding: 926 926 248
GlifName: X_i
Width: 1024
VWidth: 0
GlyphClass: 2
Flags: W
LayerCount: 2
Fore
SplineSet
151 948 m 257
 151 888 l 257
 871 888 l 257
 871 948 l 257
 151 948 l 257
97 1548 m 257
 97 1487 l 257
 931 1487 l 257
 931 1548 l 257
 97 1548 l 257
98 60 m 257
 98 0 l 257
 926 0 l 257
 926 60 l 257
 98 60 l 257
EndSplineSet
EndChar

StartChar: Y
Encoding: 89 89 249
GlifName: Y_
Width: 1024
VWidth: 0
GlyphClass: 2
Flags: W
AnchorPoint: "top" 524 1638 basechar 0
AnchorPoint: "base" 508 -70 basechar 0
LayerCount: 2
Fore
SplineSet
480 895 m 257
 480 0 l 257
 539 0 l 257
 539 895 l 257
 480 895 l 257
171 1550 m 257
 171 859 l 257
 232 859 l 257
 232 1550 l 257
 171 1550 l 257
793 1536 m 257
 793 859 l 257
 853 859 l 257
 853 1536 l 257
 793 1536 l 257
217 919 m 257
 217 859 l 257
 826 859 l 257
 826 919 l 257
 217 919 l 257
EndSplineSet
EndChar

StartChar: uni042F
Encoding: 1071 1071 250
GlifName: Y_a-cy
Width: 1024
VWidth: 0
Flags: W
AnchorPoint: "base" 510 -28 basechar 0
AnchorPoint: "top" 480 1642 basechar 0
LayerCount: 2
Fore
SplineSet
902 1550 m 257
 902 0 l 257
 842 0 l 257
 842 1550 l 257
 902 1550 l 257
860 1550 m 257
 860 1491 l 257
 168 1491 l 257
 168 1550 l 257
 860 1550 l 257
202 1550 m 257
 202 872 l 257
 140 872 l 257
 140 1550 l 257
 202 1550 l 257
872 929 m 257
 872 868 l 257
 152 868 l 257
 152 929 l 257
 872 929 l 257
610 875 m 257
 178 0 l 257
 122 0 l 257
 552 875 l 257
 610 875 l 257
EndSplineSet
EndChar

StartChar: uni0462
Encoding: 1122 1122 252
GlifName: Y_at-cy
Width: 1024
VWidth: 0
Flags: W
AnchorPoint: "base" 498 -36 basechar 0
AnchorPoint: "top" 220 1646 basechar 0
LayerCount: 2
Fore
SplineSet
346 1536 m 257
 346 0 l 257
 406 0 l 257
 406 1536 l 257
 346 1536 l 257
389 808 m 257
 389 747 l 257
 884 747 l 257
 884 808 l 257
 389 808 l 257
871 808 m 257
 871 0 l 257
 931 0 l 257
 931 808 l 257
 871 808 l 257
381 60 m 257
 381 0 l 257
 909 0 l 257
 909 60 l 257
 381 60 l 257
24 1279 m 257
 24 1218 l 257
 950 1218 l 257
 950 1279 l 257
 24 1279 l 257
EndSplineSet
EndChar

StartChar: uni042B
Encoding: 1067 1067 255
GlifName: Y_eru-cy
Width: 1024
VWidth: 0
Flags: W
AnchorPoint: "base" 498 -36 basechar 0
AnchorPoint: "top" 220 1646 basechar 0
LayerCount: 2
Fore
SplineSet
47 1536 m 257
 47 0 l 257
 107 0 l 257
 107 1536 l 257
 47 1536 l 257
90 808 m 257
 90 747 l 257
 655 747 l 257
 655 808 l 257
 90 808 l 257
642 808 m 257
 642 0 l 257
 702 0 l 257
 702 808 l 257
 642 808 l 257
82 60 m 257
 82 0 l 257
 680 0 l 257
 680 60 l 257
 82 60 l 257
849 1535 m 257
 849 -1 l 257
 909 -1 l 257
 909 1535 l 257
 849 1535 l 257
EndSplineSet
EndChar

StartChar: uni042E
Encoding: 1070 1070 258
GlifName: Y_u-cy
Width: 1024
VWidth: 0
Flags: W
AnchorPoint: "top" 456 1646 basechar 0
AnchorPoint: "base" 832 -94 basechar 0
LayerCount: 2
Fore
SplineSet
412 1553 m 257
 412 0 l 257
 471 0 l 257
 471 1553 l 257
 412 1553 l 257
853 1553 m 257
 853 0 l 257
 912 0 l 257
 912 1553 l 257
 853 1553 l 257
450 1553 m 257
 450 1493 l 257
 882 1493 l 257
 882 1553 l 257
 450 1553 l 257
452 61 m 257
 452 0 l 257
 890 0 l 257
 890 61 l 257
 452 61 l 257
77 1546 m 257
 77 -7 l 257
 136 -7 l 257
 136 1546 l 257
 77 1546 l 257
115 940 m 257
 115 880 l 257
 453 880 l 257
 453 940 l 257
 115 940 l 257
EndSplineSet
EndChar

StartChar: Z
Encoding: 90 90 259
GlifName: Z_
Width: 1024
VWidth: 0
GlyphClass: 2
Flags: W
AnchorPoint: "top" 496 1646 basechar 0
AnchorPoint: "base" 560 -46 basechar 0
LayerCount: 2
Fore
SplineSet
98 1550 m 257
 98 1491 l 257
 926 1491 l 257
 926 1550 l 257
 98 1550 l 257
99 60 m 257
 99 0 l 257
 926 0 l 257
 926 60 l 257
 99 60 l 257
866 1491 m 257
 99 60 l 257
 159 60 l 257
 926 1491 l 257
 866 1491 l 257
EndSplineSet
EndChar

StartChar: uni0417
Encoding: 1047 1047 263
GlifName: Z_e-cy
Width: 1024
VWidth: 0
Flags: W
LayerCount: 2
Fore
SplineSet
124 1547 m 257
 124 1487 l 257
 950 1487 l 257
 950 1547 l 257
 124 1547 l 257
124 1547 m 257
 124 1211 l 257
 184 1211 l 257
 184 1547 l 257
 124 1547 l 257
891 1535 m 257
 891 819 l 257
 951 819 l 257
 951 1535 l 257
 891 1535 l 257
891 763 m 257
 891 7 l 257
 951 7 l 257
 951 763 l 257
 891 763 l 257
128 60 m 257
 128 0 l 257
 947 0 l 257
 947 60 l 257
 128 60 l 257
124 395 m 257
 124 0 l 257
 184 0 l 257
 184 395 l 257
 124 395 l 257
269 822 m 257
 269 762 l 257
 899 762 l 257
 899 822 l 257
 269 822 l 257
EndSplineSet
EndChar

StartChar: uni0416
Encoding: 1046 1046 265
GlifName: Z_he-cy
Width: 1024
VWidth: 0
Flags: W
AnchorPoint: "base" 494 -39 basechar 0
AnchorPoint: "top" 189 1633 basechar 0
LayerCount: 2
Fore
SplineSet
513 1553 m 257
 513 5 l 257
 573 5 l 257
 573 1553 l 257
 513 1553 l 257
519 1015 m 257
 519 944 l 257
 1107 1550 l 257
 1037 1550 l 257
 519 1015 l 257
519 934 m 257
 499 844 l 257
 1091 0 l 257
 1141 0 l 257
 519 934 l 257
565 1015 m 257
 47 1550 l 257
 -23 1550 l 257
 565 944 l 257
 565 1015 l 257
565 934 m 257
 -57 0 l 257
 -7 0 l 257
 585 844 l 257
 565 934 l 257
EndSplineSet
EndChar

StartChar: a
Encoding: 97 97 266
GlifName: a
Width: 1024
VWidth: 0
GlyphClass: 2
Flags: W
AnchorPoint: "top" 500 1134 basechar 0
AnchorPoint: "base" 539 -80 basechar 0
LayerCount: 2
Fore
SplineSet
168 1024 m 257
 168 957 l 257
 817 957 l 257
 817 1023 l 257
 168 1024 l 257
779 1023 m 257
 779 0 l 257
 856 0 l 257
 856 1023 l 257
 779 1023 l 257
171 600 m 257
 171 538 l 257
 795 538 l 257
 795 600 l 257
 171 600 l 257
172 577 m 257
 172 0 l 257
 243 0 l 257
 243 577 l 257
 172 577 l 257
181 74 m 257
 181 0 l 257
 845 0 l 257
 845 74 l 257
 181 74 l 257
EndSplineSet
EndChar

StartChar: acute
Encoding: 180 180 271
GlifName: acute
Width: 1024
VWidth: 0
GlyphClass: 2
Flags: W
LayerCount: 2
Fore
SplineSet
525 1341 m 257
 446 1156 l 257
 499 1122 l 257
 578 1307 l 257
 525 1341 l 257
EndSplineSet
EndChar

StartChar: acutecomb
Encoding: 769 769 272
GlifName: acutecomb
Width: 0
VWidth: 0
GlyphClass: 4
Flags: W
AnchorPoint: "top" -1 785 mark 0
LayerCount: 2
Fore
SplineSet
58 1032 m 257
 -21 847 l 257
 32 813 l 257
 111 998 l 257
 58 1032 l 257
EndSplineSet
EndChar

StartChar: ae
Encoding: 230 230 276
GlifName: ae
Width: 1024
VWidth: 0
GlyphClass: 2
Flags: W
AnchorPoint: "base" 516 -103 basechar 0
AnchorPoint: "top" 534 1156 basechar 0
LayerCount: 2
Fore
SplineSet
42 1023 m 257
 42 961 l 257
 932 961 l 257
 932 1023 l 257
 42 1023 l 257
512 1023 m 257
 512 0 l 257
 572 0 l 257
 572 1023 l 257
 512 1023 l 257
66 599 m 257
 66 538 l 257
 906 538 l 257
 906 599 l 257
 66 599 l 257
66 575 m 257
 66 0 l 257
 126 0 l 257
 126 575 l 257
 66 575 l 257
64 61 m 257
 64 0 l 257
 984 0 l 257
 984 61 l 257
 64 61 l 257
900 1023 m 257
 900 538 l 257
 962 538 l 257
 962 1023 l 257
 900 1023 l 257
EndSplineSet
EndChar

StartChar: alpha
Encoding: 945 945 279
GlifName: alpha
Width: 1024
VWidth: 0
GlyphClass: 2
Flags: W
LayerCount: 2
Fore
SplineSet
164 1023 m 257
 164 963 l 257
 589 963 l 257
 589 1023 l 257
 164 1023 l 257
165 984 m 257
 165 0 l 257
 225 0 l 257
 225 984 l 257
 165 984 l 257
194 60 m 257
 194 0 l 257
 610 0 l 257
 610 60 l 257
 194 60 l 257
947 -1 m 257
 992 32 l 257
 590 1024 l 257
 539 990 l 257
 947 -1 l 257
609 3 m 257
 994 939 l 257
 942 975 l 257
 557 39 l 257
 609 3 l 257
EndSplineSet
EndChar

StartChar: uni0251
Encoding: 593 593 280
GlifName: alpha_latin
Width: 1024
VWidth: 0
GlyphClass: 2
Flags: W
AnchorPoint: "top" 504 1158 basechar 0
AnchorPoint: "base" 536 -38 basechar 0
LayerCount: 2
Fore
SplineSet
103 1023 m 257
 103 0 l 257
 162 0 l 257
 162 1023 l 257
 103 1023 l 257
860 1116 m 257
 860 -127 l 257
 921 -127 l 257
 921 1116 l 257
 860 1116 l 257
164 1023 m 257
 164 967 l 257
 865 967 l 257
 865 1023 l 257
 164 1023 l 257
149 62 m 257
 149 0 l 257
 868 0 l 257
 868 62 l 257
 149 62 l 257
EndSplineSet
EndChar

StartChar: ampersand
Encoding: 38 38 287
GlifName: ampersand
Width: 1024
VWidth: 0
GlyphClass: 2
Flags: W
LayerCount: 2
Fore
SplineSet
260 1534 m 257
 778 43 l 257
 854 56 l 257
 338 1534 l 257
 260 1534 l 257
804 1467 m 257
 804 1536 l 257
 338 1536 l 257
 338 1467 l 257
 804 1467 l 257
746 1485 m 257
 746 1006 l 257
 804 1006 l 257
 804 1485 l 257
 746 1485 l 257
108 1045 m 257
 108 985 l 257
 804 985 l 257
 804 1045 l 257
 108 1045 l 257
108 1045 m 257
 108 24 l 257
 198 24 l 257
 198 1045 l 257
 108 1045 l 257
108 71 m 257
 108 6 l 257
 916 6 l 257
 916 71 l 257
 108 71 l 257
EndSplineSet
EndChar

StartChar: approxequal
Encoding: 8776 8776 290
GlifName: approxequal
Width: 1024
VWidth: 0
GlyphClass: 2
Flags: W
LayerCount: 2
Fore
SplineSet
330 528 m 257
 330 437 l 257
 680 376 l 257
 680 467 l 257
 330 528 l 257
92 470 m 257
 107 380 l 257
 330 437 l 257
 330 528 l 257
 92 470 l 257
680 467 m 257
 680 376 l 257
 861 517 l 257
 837 605 l 257
 680 467 l 257
330 898 m 257
 330 794 l 257
 680 733 l 257
 680 837 l 257
 330 898 l 257
92 840 m 257
 107 737 l 257
 330 794 l 257
 330 898 l 257
 92 840 l 257
680 837 m 257
 680 733 l 257
 861 874 l 257
 837 975 l 257
 680 837 l 257
EndSplineSet
EndChar

StartChar: asciicircum
Encoding: 94 94 294
GlifName: asciicircum
Width: 1024
VWidth: 0
GlyphClass: 2
Flags: W
LayerCount: 2
Fore
SplineSet
510 1023 m 257
 438 1023 l 257
 174 407 l 257
 228 373 l 257
 510 1023 l 257
444 1030 m 257
 768 364 l 257
 850 400 l 257
 518 1030 l 257
 444 1030 l 257
EndSplineSet
EndChar

StartChar: asciitilde
Encoding: 126 126 295
GlifName: asciitilde
Width: 1024
VWidth: 0
GlyphClass: 2
Flags: W
LayerCount: 2
Fore
SplineSet
366 766 m 257
 366 716 l 257
 716 645 l 257
 716 695 l 257
 366 766 l 257
126 710 m 257
 140 652 l 257
 366 716 l 257
 366 766 l 257
 126 710 l 257
716 695 m 257
 716 645 l 257
 898 796 l 257
 884 843 l 257
 716 695 l 257
EndSplineSet
EndChar

StartChar: asterisk
Encoding: 42 42 296
GlifName: asterisk
Width: 1024
VWidth: 0
GlyphClass: 2
Flags: W
LayerCount: 2
Fore
SplineSet
486 1297 m 257
 486 289 l 257
 586 289 l 257
 586 1297 l 257
 486 1297 l 257
140 1153 m 257
 864 424 l 257
 932 496 l 257
 200 1222 l 257
 140 1153 l 257
840 1200 m 257
 92 449 l 257
 148 399 l 257
 892 1134 l 257
 840 1200 l 257
EndSplineSet
EndChar

StartChar: at
Encoding: 64 64 297
GlifName: at
Width: 1024
VWidth: 0
GlyphClass: 2
Flags: W
LayerCount: 2
Fore
SplineSet
82 1023 m 257
 82 956 l 257
 980 956 l 257
 980 1023 l 257
 82 1023 l 257
740 598 m 257
 740 0 l 257
 808 0 l 257
 808 598 l 257
 740 598 l 257
320 601 m 257
 320 551 l 257
 744 551 l 257
 744 601 l 257
 320 601 l 257
316 589 m 257
 316 12 l 257
 370 12 l 257
 370 589 l 257
 316 589 l 257
314 76 m 257
 314 0 l 257
 808 0 l 257
 808 76 l 257
 314 76 l 257
28 1023 m 257
 28 -223 l 257
 94 -223 l 257
 94 1023 l 257
 28 1023 l 257
26 -179 m 257
 26 -258 l 257
 974 -258 l 257
 974 -179 l 257
 26 -179 l 257
912 1033 m 257
 912 0 l 257
 998 0 l 257
 998 1033 l 257
 912 1033 l 257
754 76 m 257
 754 0 l 257
 944 0 l 257
 944 76 l 257
 754 76 l 257
EndSplineSet
EndChar

StartChar: uni0250
Encoding: 592 592 299
GlifName: aturned
Width: 1024
VWidth: 0
GlyphClass: 2
Flags: W
AnchorPoint: "top" 524 -111 basechar 0
AnchorPoint: "base" 485 1103 basechar 0
LayerCount: 2
Fore
SplineSet
856 -1 m 257
 856 66 l 257
 207 66 l 257
 207 0 l 257
 856 -1 l 257
245 0 m 257
 245 1096 l 257
 168 1096 l 257
 168 0 l 257
 245 0 l 257
853 423 m 257
 853 485 l 257
 229 485 l 257
 229 423 l 257
 853 423 l 257
852 446 m 257
 852 1023 l 257
 781 1023 l 257
 781 446 l 257
 852 446 l 257
843 949 m 257
 843 1023 l 257
 179 1023 l 257
 179 949 l 257
 843 949 l 257
EndSplineSet
EndChar

StartChar: b
Encoding: 98 98 300
GlifName: b
Width: 1024
VWidth: 0
GlyphClass: 2
Flags: W
AnchorPoint: "base" 498 -36 basechar 0
AnchorPoint: "top" 220 1646 basechar 0
LayerCount: 2
Fore
SplineSet
135 1536 m 257
 135 0 l 257
 195 0 l 257
 195 1536 l 257
 135 1536 l 257
178 1033 m 257
 178 972 l 257
 842 972 l 257
 842 1033 l 257
 178 1033 l 257
829 1033 m 257
 829 0 l 257
 889 0 l 257
 889 1033 l 257
 829 1033 l 257
170 60 m 257
 170 0 l 257
 867 0 l 257
 867 60 l 257
 170 60 l 257
EndSplineSet
EndChar

StartChar: backslash
Encoding: 92 92 301
GlifName: backslash
Width: 1024
VWidth: 0
GlyphClass: 2
Flags: W
LayerCount: 2
Fore
SplineSet
195 1550 m 257
 751 0 l 257
 829 0 l 257
 278 1550 l 257
 195 1550 l 257
EndSplineSet
EndChar

StartChar: bar
Encoding: 124 124 303
GlifName: bar
Width: 1024
VWidth: 0
GlyphClass: 2
Flags: W
LayerCount: 2
Fore
SplineSet
472 1435 m 257
 472 -90 l 257
 552 -90 l 257
 552 1435 l 257
 472 1435 l 257
EndSplineSet
EndChar

StartChar: uni0431
Encoding: 1073 1073 305
GlifName: be-cy
Width: 1024
VWidth: 0
Flags: W
AnchorPoint: "base" 498 -36 basechar 0
AnchorPoint: "top" 220 1646 basechar 0
LayerCount: 2
Fore
SplineSet
135 1260 m 257
 135 0 l 257
 195 0 l 257
 195 1260 l 257
 135 1260 l 257
178 1033 m 257
 178 972 l 257
 842 972 l 257
 842 1033 l 257
 178 1033 l 257
829 1033 m 257
 829 0 l 257
 889 0 l 257
 889 1033 l 257
 829 1033 l 257
170 60 m 257
 170 0 l 257
 867 0 l 257
 867 60 l 257
 170 60 l 257
135 1260 m 257
 135 1199 l 257
 965 1493 l 257
 965 1554 l 257
 135 1260 l 257
EndSplineSet
EndChar

StartChar: beta
Encoding: 946 946 306
GlifName: beta
Width: 1024
VWidth: 0
GlyphClass: 2
Flags: W
LayerCount: 2
Fore
SplineSet
107 1505 m 257
 107 -457 l 257
 167 -457 l 257
 167 1505 l 257
 107 1505 l 257
107 1547 m 257
 107 1487 l 257
 930 1392 l 257
 930 1452 l 257
 107 1547 l 257
870 1453 m 257
 870 2 l 257
 930 2 l 257
 930 1453 l 257
 870 1453 l 257
107 776 m 257
 107 716 l 257
 930 716 l 257
 930 776 l 257
 107 776 l 257
399 53 m 257
 399 2 l 257
 930 2 l 257
 930 53 l 257
 399 53 l 257
EndSplineSet
EndChar

StartChar: uniA7B5
Encoding: 42933 42933 307
GlifName: beta_latin
Width: 1024
VWidth: 0
GlyphClass: 2
Flags: W
LayerCount: 2
Fore
SplineSet
107 1505 m 257
 107 -457 l 257
 167 -457 l 257
 167 1505 l 257
 107 1505 l 257
107 1547 m 257
 107 1487 l 257
 930 1392 l 257
 930 1452 l 257
 107 1547 l 257
870 1453 m 257
 870 2 l 257
 930 2 l 257
 930 1453 l 257
 870 1453 l 257
107 776 m 257
 107 716 l 257
 930 716 l 257
 930 776 l 257
 107 776 l 257
399 53 m 257
 399 2 l 257
 930 2 l 257
 930 53 l 257
 399 53 l 257
EndSplineSet
EndChar

StartChar: H18533
Encoding: 9679 9679 310
GlifName: blackC_ircle
Width: 1024
VWidth: 0
GlyphClass: 2
Flags: W
LayerCount: 2
Fore
SplineSet
561 1191 m 257
 378 1179 l 257
 225 1094 l 257
 131 928 l 257
 145 735 l 257
 212 520 l 257
 436 426 l 257
 598 448 l 257
 777 498 l 257
 844 650 l 257
 876 785 l 257
 871 951 l 257
 781 1094 l 257
 561 1191 l 257
EndSplineSet
EndChar

StartChar: uni25C6
Encoding: 9670 9670 311
GlifName: blackD_iamond
Width: 1024
VWidth: 0
GlyphClass: 2
Flags: W
LayerCount: 2
Fore
SplineSet
82 829 m 257
 508 402 l 257
 935 829 l 257
 509 1255 l 257
 82 829 l 257
EndSplineSet
EndChar

StartChar: H18543
Encoding: 9642 9642 312
GlifName: blackS_mallS_quare
Width: 1024
VWidth: 0
GlyphClass: 2
Flags: W
LayerCount: 2
Fore
SplineSet
260 1077 m 257
 260 580 l 257
 757 580 l 257
 757 1077 l 257
 260 1077 l 257
EndSplineSet
EndChar

StartChar: filledbox
Encoding: 9632 9632 313
GlifName: blackS_quare
Width: 1024
VWidth: 0
GlyphClass: 2
Flags: W
LayerCount: 2
Fore
SplineSet
95 1242 m 257
 95 415 l 257
 922 415 l 257
 922 1242 l 257
 95 1242 l 257
EndSplineSet
EndChar

StartChar: braceleft
Encoding: 123 123 315
GlifName: braceleft
Width: 1024
VWidth: 0
GlyphClass: 2
Flags: W
LayerCount: 2
Fore
SplineSet
512 1544 m 257
 512 838 l 257
 596 838 l 257
 596 1544 l 257
 512 1544 l 257
524 424 m 257
 524 -286 l 257
 614 -286 l 257
 614 424 l 257
 524 424 l 257
223 690 m 257
 223 630 l 257
 596 838 l 257
 512 838 l 257
 223 690 l 257
223 690 m 257
 223 630 l 257
 522 425 l 257
 615 425 l 257
 223 690 l 257
513 1603 m 257
 513 1452 l 257
 781 1574 l 257
 785 1603 l 257
 513 1603 l 257
525 -140 m 257
 525 -287 l 257
 801 -287 l 257
 801 -274 l 257
 525 -140 l 257
EndSplineSet
EndChar

StartChar: braceright
Encoding: 125 125 316
GlifName: braceright
Width: 1024
VWidth: 0
GlyphClass: 2
Flags: W
LayerCount: 2
Fore
SplineSet
528 1544 m 257
 428 1544 l 257
 428 838 l 257
 528 838 l 257
 528 1544 l 257
514 424 m 257
 421 424 l 257
 421 -286 l 257
 514 -286 l 257
 514 424 l 257
801 690 m 257
 523 838 l 257
 424 838 l 257
 801 630 l 257
 801 690 l 257
801 690 m 257
 421 424 l 257
 514 424 l 257
 801 630 l 257
 801 690 l 257
529 1603 m 257
 254 1603 l 257
 258 1574 l 257
 529 1452 l 257
 529 1603 l 257
499 -140 m 257
 223 -274 l 257
 223 -284 l 257
 499 -284 l 257
 499 -140 l 257
EndSplineSet
EndChar

StartChar: bracketleft
Encoding: 91 91 317
GlifName: bracketleft
Width: 1024
VWidth: 0
GlyphClass: 2
Flags: W
LayerCount: 2
Fore
SplineSet
378 1542 m 257
 378 -242 l 257
 435 -242 l 257
 435 1542 l 257
 378 1542 l 257
432 1543 m 257
 432 1481 l 257
 641 1481 l 257
 641 1543 l 257
 432 1543 l 257
414 -168 m 257
 414 -242 l 257
 646 -242 l 257
 646 -168 l 257
 414 -168 l 257
EndSplineSet
EndChar

StartChar: bracketright
Encoding: 93 93 318
GlifName: bracketright
Width: 1024
VWidth: 0
GlyphClass: 2
Flags: W
LayerCount: 2
Fore
SplineSet
587 1542 m 257
 587 -242 l 257
 649 -242 l 257
 649 1542 l 257
 587 1542 l 257
375 1543 m 257
 375 1478 l 257
 603 1478 l 257
 603 1543 l 257
 375 1543 l 257
375 -165 m 257
 375 -242 l 257
 614 -242 l 257
 614 -165 l 257
 375 -165 l 257
EndSplineSet
EndChar

StartChar: breve
Encoding: 728 728 319
GlifName: breve
Width: 1024
VWidth: 0
GlyphClass: 2
Flags: W
LayerCount: 2
Fore
SplineSet
656 1550 m 257
 656 1480 l 257
 821 1550 l 257
 821 1645 l 257
 656 1550 l 257
332 1550 m 257
 332 1480 l 257
 656 1480 l 257
 656 1550 l 257
 332 1550 l 257
161 1630 m 257
 161 1550 l 257
 332 1480 l 257
 332 1550 l 257
 161 1630 l 257
EndSplineSet
EndChar

StartChar: brokenbar
Encoding: 166 166 325
GlifName: brokenbar
Width: 1024
VWidth: 0
GlyphClass: 2
Flags: W
LayerCount: 2
Fore
SplineSet
490 -332 m 257
 534 -332 l 257
 534 682 l 257
 490 682 l 257
 490 -332 l 257
497 790 m 257
 534 790 l 257
 534 1636 l 257
 497 1636 l 257
 497 790 l 257
EndSplineSet
EndChar

StartChar: bullet
Encoding: 8226 8226 328
GlifName: bullet
Width: 1024
VWidth: 0
GlyphClass: 2
Flags: W
LayerCount: 2
Fore
SplineSet
435 1009 m 257
 435 844 l 257
 589 844 l 257
 589 1009 l 257
 435 1009 l 257
EndSplineSet
EndChar

StartChar: uni2219
Encoding: 8729 8729 329
GlifName: bulletoperator
Width: 1024
VWidth: 0
GlyphClass: 2
Flags: W
LayerCount: 2
Fore
SplineSet
435 1009 m 257
 435 844 l 257
 589 844 l 257
 589 1009 l 257
 435 1009 l 257
EndSplineSet
EndChar

StartChar: c
Encoding: 99 99 330
GlifName: c
Width: 1024
VWidth: 0
GlyphClass: 2
Flags: W
AnchorPoint: "base" 498 -36 basechar 0
AnchorPoint: "top" 521 1116 basechar 0
LayerCount: 2
Fore
SplineSet
164 1023 m 257
 164 967 l 257
 860 967 l 257
 860 1023 l 257
 164 1023 l 257
166 984 m 257
 166 0 l 257
 226 0 l 257
 226 984 l 257
 166 984 l 257
214 60 m 257
 214 0 l 257
 854 0 l 257
 854 60 l 257
 214 60 l 257
EndSplineSet
EndChar

StartChar: caron
Encoding: 711 711 333
GlifName: caron
Width: 1024
VWidth: 0
GlyphClass: 2
Flags: W
LayerCount: 2
Fore
SplineSet
524 1068 m 257
 383 1395 l 257
 356 1378 l 257
 488 1068 l 257
 524 1068 l 257
491 1067 m 257
 528 1067 l 257
 694 1382 l 257
 653 1400 l 257
 491 1067 l 257
EndSplineSet
EndChar

StartChar: cedilla
Encoding: 184 184 338
GlifName: cedilla
Width: 1024
VWidth: 0
GlyphClass: 2
Flags: W
LayerCount: 2
Fore
SplineSet
286 20 m 257
 286 -220 l 257
 344 -220 l 257
 344 20 l 257
 286 20 l 257
292 -507 m 257
 292 -566 l 257
 738 -566 l 257
 738 -507 l 257
 292 -507 l 257
679 -160 m 257
 679 -532 l 257
 738 -532 l 257
 738 -160 l 257
 679 -160 l 257
292 -160 m 257
 292 -220 l 257
 738 -220 l 257
 738 -160 l 257
 292 -160 l 257
EndSplineSet
EndChar

StartChar: cent
Encoding: 162 162 339
GlifName: cent
Width: 1024
VWidth: 0
GlyphClass: 2
Flags: W
LayerCount: 2
Fore
SplineSet
604 1183 m 257
 544 1183 l 257
 544 -86 l 257
 604 -86 l 257
 604 1183 l 257
164 1023 m 257
 164 966 l 257
 860 966 l 257
 860 1023 l 257
 164 1023 l 257
166 984 m 257
 166 0 l 257
 231 0 l 257
 231 984 l 257
 166 984 l 257
215 61 m 257
 215 0 l 257
 854 0 l 257
 854 61 l 257
 215 61 l 257
EndSplineSet
EndChar

StartChar: uni0447
Encoding: 1095 1095 340
GlifName: che-cy
Width: 1024
VWidth: 0
Flags: W
LayerCount: 2
Fore
SplineSet
865 1024 m 257
 865 -1 l 257
 925 -1 l 257
 925 1024 l 257
 865 1024 l 257
129 1024 m 257
 129 286 l 257
 189 286 l 257
 189 1024 l 257
 129 1024 l 257
169 342 m 257
 189 285 l 257
 887 408 l 257
 867 465 l 257
 169 342 l 257
EndSplineSet
EndChar

StartChar: chi
Encoding: 967 967 341
GlifName: chi
Width: 1024
VWidth: 0
GlyphClass: 2
Flags: W
LayerCount: 2
Fore
SplineSet
184 -245 m 257
 244 -245 l 257
 891 1023 l 257
 834 1023 l 257
 184 -245 l 257
226 1023 m 257
 880 -247 l 257
 938 -245 l 257
 286 1023 l 257
 226 1023 l 257
101 1023 m 257
 101 963 l 257
 285 963 l 257
 285 1023 l 257
 101 1023 l 257
893 -185 m 257
 893 -245 l 257
 1015 -245 l 257
 1015 -185 l 257
 893 -185 l 257
EndSplineSet
EndChar

StartChar: circumflex
Encoding: 710 710 343
GlifName: circumflex
Width: 1024
VWidth: 0
GlyphClass: 2
Flags: W
LayerCount: 2
Fore
SplineSet
511 1308 m 257
 475 1308 l 257
 343 998 l 257
 370 981 l 257
 511 1308 l 257
478 1310 m 257
 640 976 l 257
 681 994 l 257
 515 1310 l 257
 478 1310 l 257
EndSplineSet
EndChar

StartChar: colon
Encoding: 58 58 353
GlifName: colon
Width: 1024
VWidth: 0
GlyphClass: 2
Flags: W
LayerCount: 2
Fore
SplineSet
444 164 m 257
 444 7 l 257
 580 7 l 257
 580 164 l 257
 444 164 l 257
462 1035 m 257
 462 878 l 257
 598 878 l 257
 598 1035 l 257
 462 1035 l 257
EndSplineSet
EndChar

StartChar: colonmonetary
Encoding: 8353 8353 355
GlifName: colonmonetary
Width: 1024
VWidth: 0
GlyphClass: 2
Flags: W
VStem: 124 5<1508 1508>
LayerCount: 2
Fore
SplineSet
871 1650 m 257
 256 42 l 257
 301 -31 l 257
 930 1636 l 257
 871 1650 l 257
561 1642 m 257
 -9 165 l 257
 47 140 l 257
 617 1617 l 257
 561 1642 l 257
71 1573 m 257
 71 36 l 257
 129 36 l 257
 129 1573 l 257
 71 1573 l 257
125 1573 m 257
 124 1508 l 257
 952 1508 l 257
 953 1573 l 257
 125 1573 l 257
112 92 m 257
 112 36 l 257
 951 36 l 257
 951 92 l 257
 112 92 l 257
EndSplineSet
PickledDataWithLists: "(dp0
Vcom.fontlab.hintData
p1
(dp2
Vvhints
p3
(lp4
(dp5
Vposition
p6
I124
sVwidth
p7
I5
sass."
EndChar

StartChar: comma
Encoding: 44 44 356
GlifName: comma
Width: 1024
VWidth: 0
GlyphClass: 2
Flags: W
LayerCount: 2
Fore
SplineSet
444 165 m 257
 444 8 l 257
 580 8 l 257
 580 165 l 257
 444 165 l 257
528 135 m 257
 486 -99 l 257
 536 -148 l 257
 578 26 l 257
 528 135 l 257
EndSplineSet
EndChar

StartChar: uni0315
Encoding: 789 789 358
GlifName: commaaboverightcomb
Width: 0
VWidth: 0
GlyphClass: 4
Flags: W
AnchorPoint: "top" -283 1018 mark 0
LayerCount: 2
Fore
SplineSet
-45 1196 m 257
 -45 1039 l 257
 91 1039 l 257
 91 1196 l 257
 -45 1196 l 257
39 1166 m 257
 -3 932 l 257
 47 883 l 257
 89 1057 l 257
 39 1166 l 257
EndSplineSet
EndChar

StartChar: uni0314
Encoding: 788 788 359
GlifName: commareversedabovecomb
Width: 0
VWidth: 0
GlyphClass: 4
Flags: W
AnchorPoint: "top" 85 949 mark 0
LayerCount: 2
Fore
SplineSet
120 1439 m 257
 -16 1439 l 257
 -16 1282 l 257
 120 1282 l 257
 120 1439 l 257
36 1409 m 257
 -14 1300 l 257
 28 1126 l 257
 78 1175 l 257
 36 1409 l 257
EndSplineSet
EndChar

StartChar: copyright
Encoding: 169 169 361
GlifName: copyright
Width: 1024
VWidth: 0
GlyphClass: 2
Flags: W
LayerCount: 2
Fore
SplineSet
12 1540 m 257
 12 0 l 257
 72 0 l 257
 72 1540 l 257
 12 1540 l 257
952 1537 m 257
 952 0 l 257
 1012 0 l 257
 1012 1537 l 257
 952 1537 l 257
64 1538 m 257
 64 1476 l 257
 1008 1476 l 257
 1008 1538 l 257
 64 1538 l 257
24 60 m 257
 24 0 l 257
 994 0 l 257
 994 60 l 257
 24 60 l 257
258 1197 m 257
 258 1135 l 257
 692 1135 l 257
 692 1197 l 257
 258 1197 l 257
258 1154 m 257
 258 340 l 257
 318 340 l 257
 318 1154 l 257
 258 1154 l 257
258 356 m 257
 258 294 l 257
 698 294 l 257
 698 356 l 257
 258 356 l 257
EndSplineSet
EndChar

StartChar: currency
Encoding: 164 164 362
GlifName: currency
Width: 1024
VWidth: 0
GlyphClass: 2
Flags: W
LayerCount: 2
Fore
SplineSet
98 1182 m 257
 98 160 l 257
 158 160 l 257
 158 1182 l 257
 98 1182 l 257
856 1184 m 257
 856 160 l 257
 916 160 l 257
 916 1184 l 257
 856 1184 l 257
160 1187 m 257
 160 1127 l 257
 860 1127 l 257
 860 1187 l 257
 160 1187 l 257
144 222 m 257
 144 160 l 257
 864 160 l 257
 864 222 l 257
 144 222 l 257
24 1251 m 257
 24 1137 l 257
 168 1137 l 257
 168 1251 l 257
 24 1251 l 257
860 1241 m 257
 860 1127 l 257
 1002 1127 l 257
 1002 1241 l 257
 860 1241 l 257
18 223 m 257
 18 109 l 257
 162 109 l 257
 162 223 l 257
 18 223 l 257
862 220 m 257
 862 106 l 257
 1006 106 l 257
 1006 220 l 257
 862 220 l 257
EndSplineSet
EndChar

StartChar: d
Encoding: 100 100 363
GlifName: d
Width: 1024
VWidth: 0
GlyphClass: 2
Flags: W
AnchorPoint: "base" 506 -56 basechar 0
AnchorPoint: "top" 824 1642 basechar 0
LayerCount: 2
Fore
SplineSet
832 1527 m 257
 832 0 l 257
 892 0 l 257
 892 1527 l 257
 832 1527 l 257
176 1023 m 257
 176 966 l 257
 866 966 l 257
 866 1023 l 257
 176 1023 l 257
132 1023 m 257
 132 0 l 257
 192 0 l 257
 192 1023 l 257
 132 1023 l 257
172 59 m 257
 172 0 l 257
 844 0 l 257
 844 59 l 257
 172 59 l 257
EndSplineSet
EndChar

StartChar: dagger
Encoding: 8224 8224 364
GlifName: dagger
Width: 1024
VWidth: 0
GlyphClass: 2
Flags: W
LayerCount: 2
Fore
SplineSet
209 1251 m 257
 209 1200 l 257
 815 1200 l 257
 815 1251 l 257
 209 1251 l 257
481 1550 m 257
 481 0 l 257
 547 0 l 257
 547 1550 l 257
 481 1550 l 257
EndSplineSet
EndChar

StartChar: daggerdbl
Encoding: 8225 8225 365
GlifName: daggerdbl
Width: 1024
VWidth: 0
GlyphClass: 2
Flags: W
LayerCount: 2
Fore
SplineSet
209 823 m 257
 209 772 l 257
 815 772 l 257
 815 823 l 257
 209 823 l 257
209 1251 m 257
 209 1200 l 257
 815 1200 l 257
 815 1251 l 257
 209 1251 l 257
490 1550 m 257
 490 0 l 257
 552 0 l 257
 552 1550 l 257
 490 1550 l 257
EndSplineSet
EndChar

StartChar: dcaron
Encoding: 271 271 368
GlifName: dcaron
Width: 1024
VWidth: 0
GlyphClass: 2
Flags: W
AnchorPoint: "base" 508 -97 basechar 0
LayerCount: 2
Fore
SplineSet
758 1527 m 257
 758 0 l 257
 818 0 l 257
 818 1527 l 257
 758 1527 l 257
102 1023 m 257
 102 962 l 257
 778 962 l 257
 778 1023 l 257
 102 1023 l 257
58 1023 m 257
 58 0 l 257
 116 0 l 257
 116 1023 l 257
 58 1023 l 257
74 60 m 257
 74 0 l 257
 770 0 l 257
 770 60 l 257
 74 60 l 257
916 1496 m 257
 916 1264 l 257
 966 1264 l 257
 966 1496 l 257
 916 1496 l 257
EndSplineSet
EndChar

StartChar: dcroat
Encoding: 273 273 370
GlifName: dcroat
Width: 1024
VWidth: 0
GlyphClass: 2
Flags: W
AnchorPoint: "top" 792 1648 basechar 0
AnchorPoint: "base" 522 -86 basechar 0
LayerCount: 2
Fore
SplineSet
780 1527 m 257
 780 0 l 257
 840 0 l 257
 840 1527 l 257
 780 1527 l 257
110 1023 m 257
 110 962 l 257
 802 962 l 257
 802 1023 l 257
 110 1023 l 257
78 1023 m 257
 78 0 l 257
 138 0 l 257
 138 1023 l 257
 78 1023 l 257
126 61 m 257
 126 0 l 257
 792 0 l 257
 792 61 l 257
 126 61 l 257
638 1260 m 257
 638 1202 l 257
 946 1202 l 257
 946 1260 l 257
 638 1260 l 257
EndSplineSet
EndChar

StartChar: uni0221
Encoding: 545 545 371
GlifName: dcurl
Width: 1024
VWidth: 0
GlyphClass: 2
Flags: W
AnchorPoint: "base" 506 -56 basechar 0
AnchorPoint: "top" 824 1642 basechar 0
LayerCount: 2
Fore
SplineSet
501 1545 m 257
 501 18 l 257
 561 18 l 257
 561 1545 l 257
 501 1545 l 257
50 1023 m 257
 50 966 l 257
 558 966 l 257
 558 1023 l 257
 50 1023 l 257
6 1023 m 257
 6 0 l 257
 66 0 l 257
 66 1023 l 257
 6 1023 l 257
46 59 m 257
 46 0 l 257
 934 0 l 257
 934 59 l 257
 46 59 l 257
561 -118 m 257
 609 -193 l 257
 872 386 l 257
 870 508 l 257
 561 -118 l 257
870 507 m 257
 870 6 l 257
 935 4 l 257
 935 505 l 257
 870 507 l 257
EndSplineSet
EndChar

StartChar: uni0434
Encoding: 1076 1076 372
GlifName: de-cy
Width: 1024
VWidth: 0
Flags: W
LayerCount: 2
Fore
SplineSet
18 203 m 257
 18 143 l 257
 992 143 l 257
 992 203 l 257
 18 203 l 257
18 159 m 257
 20 -405 l 257
 80 -405 l 257
 78 159 l 257
 18 159 l 257
932 159 m 257
 932 -412 l 257
 992 -412 l 257
 992 159 l 257
 932 159 l 257
844 996 m 257
 844 162 l 257
 904 162 l 257
 904 996 l 257
 844 996 l 257
428 1018 m 257
 428 958 l 257
 904 958 l 257
 904 1018 l 257
 428 1018 l 257
408 1019 m 257
 107 185 l 257
 167 185 l 257
 468 1019 l 257
 408 1019 l 257
EndSplineSet
EndChar

StartChar: degree
Encoding: 176 176 373
GlifName: degree
Width: 1024
VWidth: 0
GlyphClass: 2
Flags: W
LayerCount: 2
Fore
SplineSet
391 1439 m 257
 641 1439 l 257
 641 1231 l 257
 391 1231 l 257
 391 1439 l 257
332 1488 m 257
 332 1179 l 257
 692 1179 l 257
 692 1488 l 257
 332 1488 l 257
EndSplineSet
EndChar

StartChar: delta
Encoding: 948 948 374
GlifName: delta
Width: 1024
VWidth: 0
GlyphClass: 2
Flags: W
LayerCount: 2
Fore
SplineSet
240 1550 m 257
 844 0 l 257
 892 0 l 257
 296 1550 l 257
 240 1550 l 257
172 1023 m 257
 172 964 l 257
 496 964 l 257
 496 1023 l 257
 172 1023 l 257
132 1023 m 257
 132 0 l 257
 192 0 l 257
 192 1023 l 257
 132 1023 l 257
178 59 m 257
 178 0 l 257
 844 0 l 257
 844 59 l 257
 178 59 l 257
262 1548 m 257
 262 1483 l 257
 606 1483 l 257
 606 1548 l 257
 262 1548 l 257
EndSplineSet
EndChar

StartChar: divide
Encoding: 247 247 379
GlifName: divide
Width: 1024
VWidth: 0
GlyphClass: 2
Flags: W
LayerCount: 2
Fore
SplineSet
477 264 m 257
 477 201 l 257
 579 201 l 257
 579 264 l 257
 477 264 l 257
466 1111 m 257
 466 1047 l 257
 557 1047 l 257
 557 1111 l 257
 466 1111 l 257
99 662 m 257
 99 600 l 257
 925 600 l 257
 925 662 l 257
 99 662 l 257
EndSplineSet
EndChar

StartChar: uni2215
Encoding: 8725 8725 380
GlifName: divisionslash
Width: 1024
VWidth: 0
GlyphClass: 2
Flags: W
LayerCount: 2
Fore
SplineSet
754 1480 m 257
 167 10 l 257
 270 10 l 257
 857 1480 l 257
 754 1480 l 257
EndSplineSet
EndChar

StartChar: uni0452
Encoding: 1106 1106 381
GlifName: dje-cy
Width: 1024
VWidth: 0
Flags: W
LayerCount: 2
Fore
SplineSet
48 1369 m 257
 48 1309 l 257
 836 1309 l 257
 836 1369 l 257
 48 1369 l 257
303 1544 m 257
 303 -1 l 257
 363 -1 l 257
 363 1544 l 257
 303 1544 l 257
316 994 m 257
 316 934 l 257
 929 934 l 257
 929 994 l 257
 316 994 l 257
869 989 m 257
 869 -406 l 257
 929 -406 l 257
 929 989 l 257
 869 989 l 257
606 -383 m 257
 606 -443 l 257
 929 -443 l 257
 929 -383 l 257
 606 -383 l 257
EndSplineSet
EndChar

StartChar: dollar
Encoding: 36 36 383
GlifName: dollar
Width: 1024
VWidth: 0
GlyphClass: 2
Flags: W
LayerCount: 2
Fore
SplineSet
126 1539 m 257
 126 1457 l 257
 724 1457 l 257
 724 1539 l 257
 126 1539 l 257
126 1542 m 257
 126 1028 l 257
 210 1028 l 257
 210 1542 l 257
 126 1542 l 257
154 69 m 257
 154 0 l 257
 862 0 l 257
 862 69 l 257
 154 69 l 257
818 0 m 257
 898 0 l 257
 898 355 l 257
 818 355 l 257
 818 0 l 257
126 1028 m 257
 817 355 l 257
 898 355 l 257
 210 1028 l 257
 126 1028 l 257
421 1636 m 257
 421 -215 l 257
 491 -215 l 257
 491 1636 l 257
 421 1636 l 257
EndSplineSet
EndChar

StartChar: dong
Encoding: 8363 8363 384
GlifName: dong
Width: 1024
VWidth: 0
GlyphClass: 2
Flags: W
VStem: 198 7<98 174 98 1023 949 1023 949 949>
LayerCount: 2
Fore
SplineSet
228 18 m 257
 228 -56 l 257
 845 -56 l 257
 845 18 l 257
 228 18 l 257
819 1527 m 257
 819 98 l 257
 893 98 l 257
 893 1527 l 257
 819 1527 l 257
198 1023 m 257
 198 949 l 257
 882 949 l 257
 882 1023 l 257
 198 1023 l 257
132 1023 m 257
 132 98 l 257
 205 98 l 257
 205 1023 l 257
 132 1023 l 257
198 174 m 257
 198 98 l 257
 845 98 l 257
 845 174 l 257
 198 174 l 257
704 1403 m 257
 704 1324 l 257
 999 1324 l 257
 999 1403 l 257
 704 1403 l 257
EndSplineSet
PickledDataWithLists: "(dp0
Vcom.fontlab.hintData
p1
(dp2
Vvhints
p3
(lp4
(dp5
Vposition
p6
I198
sVwidth
p7
I7
sass."
EndChar

StartChar: dotaccent
Encoding: 729 729 385
GlifName: dotaccent
Width: 1024
VWidth: 0
GlyphClass: 2
Flags: W
LayerCount: 2
Fore
SplineSet
490 1078 m 257
 490 977 l 257
 602 977 l 257
 602 1078 l 257
 490 1078 l 257
EndSplineSet
EndChar

StartChar: dotbelowcomb
Encoding: 803 803 386
GlifName: dotbelowcomb
Width: 0
VWidth: 0
GlyphClass: 4
Flags: W
AnchorPoint: "base" 1 -276 mark 0
LayerCount: 2
Fore
SplineSet
-40 -290 m 257
 -40 -365 l 257
 40 -365 l 257
 40 -290 l 257
 -40 -290 l 257
EndSplineSet
EndChar

StartChar: dotlessi
Encoding: 305 305 387
GlifName: dotlessi
Width: 1024
VWidth: 0
GlyphClass: 2
Flags: W
AnchorPoint: "top" 492 1191 basechar 0
AnchorPoint: "base" 546 -101 basechar 0
LayerCount: 2
Fore
SplineSet
510 1023 m 257
 510 52 l 257
 570 52 l 257
 570 1023 l 257
 510 1023 l 257
141 60 m 257
 141 0 l 257
 883 0 l 257
 883 60 l 257
 141 60 l 257
191 1023 m 257
 191 962 l 257
 527 962 l 257
 527 1023 l 257
 191 1023 l 257
EndSplineSet
EndChar

StartChar: uni035F
Encoding: 863 863 389
GlifName: doublemacronbelowcomb
Width: 0
VWidth: 0
GlyphClass: 4
Flags: W
AnchorPoint: "base" 6 -108 mark 0
LayerCount: 2
Fore
SplineSet
-450 -204 m 257
 -450 -248 l 257
 442 -248 l 257
 442 -204 l 257
 -450 -204 l 257
EndSplineSet
EndChar

StartChar: arrowdown
Encoding: 8595 8595 390
GlifName: downA_rrow
Width: 1024
VWidth: 0
GlyphClass: 2
Flags: W
LayerCount: 2
Fore
SplineSet
474 411 m 257
 534 411 l 257
 534 1176 l 257
 474 1176 l 257
 474 411 l 257
173 568 m 257
 505 344 l 257
 505 419 l 257
 173 643 l 257
 173 568 l 257
505 344 m 257
 838 587 l 257
 838 662 l 257
 505 420 l 257
 505 344 l 257
EndSplineSet
EndChar

StartChar: uni25BE
Encoding: 9662 9662 391
GlifName: downB_lackS_mallT_riangle
Width: 1024
VWidth: 0
GlyphClass: 2
Flags: W
LayerCount: 2
Fore
SplineSet
509 470 m 257
 758 884 l 257
 264 886 l 257
 509 470 l 257
EndSplineSet
EndChar

StartChar: triagdn
Encoding: 9660 9660 392
GlifName: downB_lackT_riangle
Width: 1024
VWidth: 0
GlyphClass: 2
Flags: W
LayerCount: 2
Fore
SplineSet
507 332 m 257
 923 1021 l 257
 99 1024 l 257
 507 332 l 257
EndSplineSet
EndChar

StartChar: uni25BF
Encoding: 9663 9663 393
GlifName: downW_hiteS_mallT_riangle
Width: 1024
VWidth: 0
GlyphClass: 2
Flags: W
LayerCount: 2
Fore
SplineSet
509 470 m 257
 758 884 l 257
 264 886 l 257
 509 470 l 257
515 525 m 257
 318 857 l 257
 714 856 l 257
 515 525 l 257
EndSplineSet
EndChar

StartChar: uni25BD
Encoding: 9661 9661 394
GlifName: downW_hiteT_riangle
Width: 1024
VWidth: 0
GlyphClass: 2
Flags: W
LayerCount: 2
Fore
SplineSet
508 353 m 257
 895 1001 l 257
 124 1003 l 257
 508 353 l 257
508 419 m 257
 198 963 l 257
 814 964 l 257
 508 419 l 257
EndSplineSet
EndChar

StartChar: uni045F
Encoding: 1119 1119 397
GlifName: dzhe-cy
Width: 1024
VWidth: 0
Flags: W
LayerCount: 2
Fore
SplineSet
62 942 m 257
 62 18 l 257
 122 18 l 257
 122 942 l 257
 62 942 l 257
902 946 m 257
 902 3 l 257
 962 3 l 257
 962 946 l 257
 902 946 l 257
62 60 m 257
 62 0 l 257
 962 0 l 257
 962 60 l 257
 62 60 l 257
482 25 m 257
 482 -405 l 257
 542 -405 l 257
 542 25 l 257
 482 25 l 257
EndSplineSet
EndChar

StartChar: e
Encoding: 101 101 398
GlifName: e
Width: 1024
VWidth: 0
GlyphClass: 2
Flags: W
AnchorPoint: "top" 512 1166 basechar 0
AnchorPoint: "base" 492 -96 basechar 0
LayerCount: 2
Fore
SplineSet
218 1023 m 257
 204 972 l 257
 843 972 l 257
 857 1023 l 257
 218 1023 l 257
166 1023 m 257
 166 0 l 257
 224 0 l 257
 224 1023 l 257
 166 1023 l 257
208 61 m 257
 208 0 l 257
 853 0 l 257
 853 61 l 257
 208 61 l 257
187 506 m 257
 195 446 l 257
 824 446 l 257
 824 506 l 257
 187 506 l 257
799 1023 m 257
 799 445 l 257
 858 445 l 257
 858 1023 l 257
 799 1023 l 257
EndSplineSet
EndChar

StartChar: uni0454
Encoding: 1108 1108 399
GlifName: e-cy
Width: 1024
VWidth: 0
Flags: W
LayerCount: 2
Fore
SplineSet
447 1026 m 257
 447 966 l 257
 938 966 l 257
 938 1026 l 257
 447 1026 l 257
87 536 m 257
 87 476 l 257
 872 476 l 257
 872 536 l 257
 87 536 l 257
419 69 m 257
 419 9 l 257
 933 9 l 257
 933 69 l 257
 419 69 l 257
447 1025 m 257
 40 514 l 257
 100 514 l 257
 507 1025 l 257
 447 1025 l 257
42 514 m 257
 419 8 l 257
 479 8 l 257
 102 514 l 257
 42 514 l 257
EndSplineSet
EndChar

StartChar: uni0444
Encoding: 1092 1092 409
GlifName: ef-cy
Width: 1024
VWidth: 0
Flags: W
LayerCount: 2
Fore
SplineSet
494 1541 m 257
 494 -430 l 257
 554 -430 l 257
 554 1541 l 257
 494 1541 l 257
110 968 m 257
 110 45 l 257
 171 45 l 257
 171 968 l 257
 110 968 l 257
850 968 m 257
 850 45 l 257
 910 45 l 257
 910 968 l 257
 850 968 l 257
146 968 m 257
 146 908 l 257
 882 908 l 257
 882 968 l 257
 146 968 l 257
150 105 m 257
 150 45 l 257
 870 45 l 257
 870 105 l 257
 150 105 l 257
EndSplineSet
EndChar

StartChar: eight
Encoding: 56 56 411
GlifName: eight
Width: 1024
VWidth: 0
GlyphClass: 2
Flags: W
LayerCount: 2
Fore
SplineSet
56 1550 m 257
 56 0 l 257
 969 0 l 257
 969 1550 l 257
 56 1550 l 257
907 899 m 257
 907 57 l 257
 119 57 l 257
 119 899 l 257
 907 899 l 257
908 959 m 257
 118 959 l 257
 118 1489 l 257
 908 1489 l 257
 908 959 l 257
EndSplineSet
Substitution2: "supsSuperscriptinLatinlookup16 subtable" uni2078
EndChar

StartChar: uni043B
Encoding: 1083 1083 412
GlifName: el-cy
Width: 1024
VWidth: 0
Flags: W
LayerCount: 2
Fore
SplineSet
952 1021 m 257
 952 14 l 257
 1012 14 l 257
 1012 1021 l 257
 952 1021 l 257
412 1021 m 257
 412 961 l 257
 1000 961 l 257
 1000 1021 l 257
 412 1021 l 257
411 1021 m 257
 229 0 l 257
 289 0 l 257
 471 1021 l 257
 411 1021 l 257
33 61 m 257
 33 1 l 257
 289 1 l 257
 289 61 l 257
 33 61 l 257
EndSplineSet
EndChar

StartChar: ellipsis
Encoding: 8230 8230 413
GlifName: ellipsis
Width: 1024
VWidth: 0
GlyphClass: 2
Flags: W
LayerCount: 2
Fore
SplineSet
180 114 m 257
 180 0 l 257
 322 0 l 257
 322 114 l 257
 180 114 l 257
436 114 m 257
 436 0 l 257
 580 0 l 257
 580 114 l 257
 436 114 l 257
702 114 m 257
 702 0 l 257
 844 0 l 257
 844 114 l 257
 702 114 l 257
EndSplineSet
EndChar

StartChar: uni043C
Encoding: 1084 1084 414
GlifName: em-cy
Width: 1024
VWidth: 0
Flags: W
AnchorPoint: "base" 514 -39 basechar 0
AnchorPoint: "top" 532 1642 basechar 0
LayerCount: 2
Fore
SplineSet
100 1014 m 257
 100 0 l 257
 160 0 l 257
 160 1014 l 257
 100 1014 l 257
862 1025 m 257
 862 0 l 257
 924 0 l 257
 924 1025 l 257
 862 1025 l 257
100 1014 m 257
 476 298 l 257
 544 298 l 257
 160 1014 l 257
 100 1014 l 257
862 1025 m 257
 476 298 l 257
 544 298 l 257
 924 1014 l 257
 862 1025 l 257
EndSplineSet
EndChar

StartChar: emdash
Encoding: 8212 8212 416
GlifName: emdash
Width: 1024
VWidth: 0
GlyphClass: 2
Flags: W
LayerCount: 2
Fore
SplineSet
0 600 m 257
 1024 600 l 257
 1024 651 l 257
 0 651 l 257
 0 600 l 257
EndSplineSet
EndChar

StartChar: uni043D
Encoding: 1085 1085 419
GlifName: en-cy
Width: 1024
VWidth: 0
Flags: W
AnchorPoint: "top" 496 1638 basechar 0
AnchorPoint: "base" 496 -34 basechar 0
LayerCount: 2
Fore
SplineSet
114 1035 m 257
 114 0 l 257
 173 0 l 257
 173 1035 l 257
 114 1035 l 257
849 1035 m 257
 849 0 l 257
 910 0 l 257
 910 1035 l 257
 849 1035 l 257
156 546 m 257
 156 487 l 257
 873 487 l 257
 873 546 l 257
 156 546 l 257
EndSplineSet
EndChar

StartChar: endash
Encoding: 8211 8211 420
GlifName: endash
Width: 1024
VWidth: 0
GlyphClass: 2
Flags: W
LayerCount: 2
Fore
SplineSet
99 600 m 257
 925 600 l 257
 925 660 l 257
 99 660 l 257
 99 600 l 257
EndSplineSet
EndChar

StartChar: eng
Encoding: 331 331 421
GlifName: eng
Width: 1024
VWidth: 0
GlyphClass: 2
Flags: W
AnchorPoint: "top" 474 1150 basechar 0
AnchorPoint: "base" 516 -500 basechar 0
LayerCount: 2
Fore
SplineSet
456 -348 m 257
 456 -408 l 257
 843 -408 l 257
 843 -348 l 257
 456 -348 l 257
244 990 m 257
 244 0 l 257
 304 0 l 257
 304 990 l 257
 244 990 l 257
784 976 m 257
 784 -408 l 257
 844 -408 l 257
 844 976 l 257
 784 976 l 257
65 1023 m 257
 65 963 l 257
 843 963 l 257
 843 1023 l 257
 65 1023 l 257
EndSplineSet
EndChar

StartChar: uni025B
Encoding: 603 603 423
GlifName: eopen
Width: 1024
VWidth: 0
GlyphClass: 2
Flags: W
AnchorPoint: "top" 546 1210 basechar 0
AnchorPoint: "base" 492 -96 basechar 0
LayerCount: 2
Fore
SplineSet
103 1140 m 257
 172 599 l 257
 232 598 l 257
 163 1139 l 257
 103 1140 l 257
146 1139 m 257
 146 1079 l 257
 900 1079 l 257
 900 1139 l 257
 146 1139 l 257
170 60 m 257
 170 0 l 257
 916 0 l 257
 916 60 l 257
 170 60 l 257
234 600 m 257
 234 540 l 257
 669 540 l 257
 669 600 l 257
 234 600 l 257
173 543 m 257
 96 2 l 257
 156 1 l 257
 233 542 l 257
 173 543 l 257
EndSplineSet
EndChar

StartChar: epsilon
Encoding: 949 949 424
GlifName: epsilon
Width: 1024
VWidth: 0
GlyphClass: 2
Flags: W
LayerCount: 2
Fore
SplineSet
103 1140 m 257
 102 599 l 257
 162 598 l 257
 163 1139 l 257
 103 1140 l 257
146 1139 m 257
 146 1079 l 257
 900 1079 l 257
 900 1139 l 257
 146 1139 l 257
170 60 m 257
 170 0 l 257
 916 0 l 257
 916 60 l 257
 170 60 l 257
164 600 m 257
 164 540 l 257
 669 540 l 257
 669 600 l 257
 164 600 l 257
103 543 m 257
 96 2 l 257
 156 1 l 257
 163 542 l 257
 103 543 l 257
EndSplineSet
EndChar

StartChar: equal
Encoding: 61 61 426
GlifName: equal
Width: 1024
VWidth: 0
GlyphClass: 2
Flags: W
LayerCount: 2
Fore
SplineSet
104 824 m 257
 104 724 l 257
 920 724 l 257
 920 824 l 257
 104 824 l 257
104 540 m 257
 104 450 l 257
 920 450 l 257
 920 540 l 257
 104 540 l 257
EndSplineSet
EndChar

StartChar: uni044D
Encoding: 1101 1101 427
GlifName: ereversed-cy
Width: 1024
VWidth: 0
Flags: W
LayerCount: 2
Fore
SplineSet
531 1032 m 257
 40 1032 l 257
 40 972 l 257
 531 972 l 257
 531 1032 l 257
891 570 m 257
 106 570 l 257
 106 510 l 257
 891 510 l 257
 891 570 l 257
559 69 m 257
 45 69 l 257
 45 9 l 257
 559 9 l 257
 559 69 l 257
531 1031 m 257
 471 1031 l 257
 878 548 l 257
 938 548 l 257
 531 1031 l 257
936 548 m 257
 876 548 l 257
 499 8 l 257
 559 8 l 257
 936 548 l 257
EndSplineSet
EndChar

StartChar: uni0283
Encoding: 643 643 428
GlifName: esh
Width: 1024
VWidth: 0
GlyphClass: 2
Flags: W
LayerCount: 2
Fore
SplineSet
534 1641 m 257
 311 -399 l 257
 378 -399 l 257
 601 1641 l 257
 534 1641 l 257
131 -340 m 257
 131 -398 l 257
 377 -398 l 257
 377 -340 l 257
 131 -340 l 257
589 1641 m 257
 589 1575 l 257
 925 1575 l 257
 925 1641 l 257
 589 1641 l 257
EndSplineSet
EndChar

StartChar: uni0285
Encoding: 645 645 429
GlifName: eshsquatreversed
Width: 1024
VWidth: 0
GlyphClass: 2
Flags: W
LayerCount: 2
Fore
SplineSet
325 1001 m 257
 493 -408 l 257
 560 -408 l 257
 392 1001 l 257
 325 1001 l 257
542 -350 m 257
 542 -408 l 257
 970 -408 l 257
 970 -350 l 257
 542 -350 l 257
68 1001 m 257
 68 935 l 257
 387 935 l 257
 387 1001 l 257
 68 1001 l 257
EndSplineSet
EndChar

StartChar: estimated
Encoding: 8494 8494 430
GlifName: estimated
Width: 1024
VWidth: 0
GlyphClass: 2
Flags: W
LayerCount: 2
Fore
SplineSet
171 798 m 257
 171 718 l 257
 917 719 l 257
 917 799 l 257
 171 798 l 257
726 1098 m 257
 732 727 l 257
 916 727 l 257
 910 1098 l 257
 726 1098 l 257
167 1103 m 257
 168 731 l 257
 347 731 l 257
 346 1103 l 257
 167 1103 l 257
168 1175 m 257
 168 1081 l 257
 513 1125 l 257
 513 1219 l 257
 168 1175 l 257
513 1221 m 257
 512 1123 l 257
 910 1081 l 257
 911 1179 l 257
 513 1221 l 257
171 731 m 257
 171 287 l 257
 252 287 l 257
 252 731 l 257
 171 731 l 257
171 342 m 257
 171 248 l 257
 513 183 l 257
 513 277 l 257
 171 342 l 257
512 277 m 257
 512 183 l 257
 911 247 l 257
 911 341 l 257
 512 277 l 257
EndSplineSet
EndChar

StartChar: eta
Encoding: 951 951 431
GlifName: eta
Width: 1024
VWidth: 0
GlyphClass: 2
Flags: W
LayerCount: 2
Fore
SplineSet
244 990 m 257
 244 0 l 257
 304 0 l 257
 304 990 l 257
 244 990 l 257
784 976 m 257
 784 -409 l 257
 844 -409 l 257
 844 976 l 257
 784 976 l 257
65 1023 m 257
 65 963 l 257
 843 963 l 257
 843 1023 l 257
 65 1023 l 257
EndSplineSet
EndChar

StartChar: eth
Encoding: 240 240 433
GlifName: eth
Width: 1024
VWidth: 0
GlyphClass: 2
Flags: W
AnchorPoint: "top" 251 1604 basechar 0
AnchorPoint: "base" 507 -118 basechar 0
LayerCount: 2
Fore
SplineSet
240 1550 m 257
 844 0 l 257
 892 0 l 257
 296 1550 l 257
 240 1550 l 257
172 1023 m 257
 172 964 l 257
 496 964 l 257
 496 1023 l 257
 172 1023 l 257
132 1023 m 257
 132 0 l 257
 192 0 l 257
 192 1023 l 257
 132 1023 l 257
178 59 m 257
 178 0 l 257
 844 0 l 257
 844 59 l 257
 178 59 l 257
160 1416 m 257
 160 1351 l 257
 504 1351 l 257
 504 1416 l 257
 160 1416 l 257
EndSplineSet
EndChar

StartChar: exclam
Encoding: 33 33 436
GlifName: exclam
Width: 1024
VWidth: 0
GlyphClass: 2
Flags: W
LayerCount: 2
Fore
SplineSet
478 9 m 257
 545 9 l 257
 545 107 l 257
 478 107 l 257
 478 9 l 257
476 344 m 257
 548 344 l 257
 548 1362 l 257
 476 1362 l 257
 476 344 l 257
EndSplineSet
EndChar

StartChar: exclamdown
Encoding: 161 161 437
GlifName: exclamdown
Width: 1024
VWidth: 0
GlyphClass: 2
Flags: W
LayerCount: 2
Fore
SplineSet
542 1520 m 257
 482 1520 l 257
 482 1272 l 257
 542 1272 l 257
 542 1520 l 257
538 1035 m 257
 484 1035 l 257
 484 17 l 257
 542 17 l 257
 538 1035 l 257
EndSplineSet
EndChar

StartChar: uni0292
Encoding: 658 658 438
GlifName: ezh
Width: 1024
VWidth: 0
GlyphClass: 2
Flags: W
LayerCount: 2
Fore
SplineSet
860 0 m 257
 860 60 l 257
 164 60 l 257
 164 0 l 257
 860 0 l 257
858 39 m 257
 862 619 l 257
 801 619 l 257
 797 39 l 257
 858 39 l 257
813 559 m 257
 813 619 l 257
 174 619 l 257
 174 559 l 257
 813 559 l 257
121 1274 m 257
 121 1214 l 257
 949 1214 l 257
 949 1274 l 257
 121 1274 l 257
877 1214 m 257
 169 619 l 257
 277 619 l 257
 949 1214 l 257
 877 1214 l 257
EndSplineSet
EndChar

StartChar: uni01B9
Encoding: 441 441 440
GlifName: ezhreversed
Width: 1024
VWidth: 0
GlyphClass: 2
Flags: W
LayerCount: 2
Fore
SplineSet
210 0 m 257
 906 0 l 257
 906 60 l 257
 210 60 l 257
 210 0 l 257
212 39 m 257
 273 39 l 257
 269 619 l 257
 208 619 l 257
 212 39 l 257
257 559 m 257
 896 559 l 257
 896 619 l 257
 257 619 l 257
 257 559 l 257
949 1274 m 257
 121 1274 l 257
 121 1214 l 257
 949 1214 l 257
 949 1274 l 257
193 1214 m 257
 121 1214 l 257
 793 619 l 257
 901 619 l 257
 193 1214 l 257
EndSplineSet
EndChar

StartChar: f
Encoding: 102 102 441
GlifName: f
Width: 1024
VWidth: 0
GlyphClass: 2
Flags: W
AnchorPoint: "top" 610 1637 basechar 0
AnchorPoint: "base" 448 -116 basechar 0
LayerCount: 2
Fore
SplineSet
428 1558 m 257
 418 -6 l 257
 478 -6 l 257
 488 1558 l 257
 428 1558 l 257
428 1558 m 257
 428 1498 l 257
 826 1498 l 257
 826 1558 l 257
 428 1558 l 257
208 862 m 257
 208 802 l 257
 686 802 l 257
 686 862 l 257
 208 862 l 257
EndSplineSet
EndChar

StartChar: five
Encoding: 53 53 445
GlifName: five
Width: 1024
VWidth: 0
GlyphClass: 2
Flags: W
LayerCount: 2
Fore
SplineSet
917 899 m 257
 917 58 l 257
 59 58 l 257
 59 0 l 257
 977 0 l 257
 977 959 l 257
 120 959 l 257
 120 1492 l 257
 987 1492 l 257
 987 1550 l 257
 60 1550 l 257
 60 899 l 257
 917 899 l 257
EndSplineSet
Substitution2: "supsSuperscriptinLatinlookup16 subtable" uni2075
EndChar

StartChar: four
Encoding: 52 52 447
GlifName: four
Width: 1024
VWidth: 0
GlyphClass: 2
Flags: W
LayerCount: 2
Fore
SplineSet
91 761 m 257
 872 761 l 257
 872 7 l 257
 929 7 l 257
 929 1550 l 257
 869 1550 l 257
 869 821 l 257
 151 821 l 257
 151 1550 l 257
 91 1550 l 257
 91 761 l 257
EndSplineSet
Substitution2: "supsSuperscriptinLatinlookup16 subtable" uni2074
EndChar

StartChar: franc
Encoding: 8355 8355 448
GlifName: franc
Width: 1024
VWidth: 0
GlyphClass: 2
Flags: W
VStem: 175 4<1501 1548 1501 1501>
LayerCount: 2
Fore
SplineSet
0 565 m 257
 0 531 l 257
 334 531 l 257
 334 565 l 257
 0 565 l 257
141 1548 m 257
 141 0 l 257
 179 0 l 257
 179 1548 l 257
 141 1548 l 257
175 1548 m 257
 175 1501 l 257
 877 1501 l 257
 877 1548 l 257
 175 1548 l 257
156 828 m 257
 156 791 l 257
 780 791 l 257
 780 828 l 257
 156 828 l 257
EndSplineSet
PickledDataWithLists: "(dp0
Vcom.fontlab.hintData
p1
(dp2
Vvhints
p3
(lp4
(dp5
Vposition
p6
I175
sVwidth
p7
I4
sass."
EndChar

StartChar: g
Encoding: 103 103 449
GlifName: g
Width: 1024
VWidth: 0
GlyphClass: 2
Flags: W
AnchorPoint: "top" 578 1176 basechar 0
AnchorPoint: "base" 570 -460 basechar 0
LayerCount: 2
Fore
SplineSet
223 1023 m 257
 223 0 l 257
 283 0 l 257
 283 1023 l 257
 223 1023 l 257
263 1023 m 257
 263 962 l 257
 779 962 l 257
 779 1023 l 257
 263 1023 l 257
741 1023 m 257
 741 -411 l 257
 801 -411 l 257
 801 1023 l 257
 741 1023 l 257
286 58 m 257
 286 0 l 257
 743 0 l 257
 743 58 l 257
 286 58 l 257
263 -354 m 257
 263 -413 l 257
 752 -413 l 257
 752 -354 l 257
 263 -354 l 257
EndSplineSet
EndChar

StartChar: gamma
Encoding: 947 947 450
GlifName: gamma
Width: 1024
VWidth: 0
GlyphClass: 2
Flags: W
LayerCount: 2
Fore
SplineSet
481 235 m 257
 481 -398 l 257
 541 -398 l 257
 541 235 l 257
 481 235 l 257
230 1026 m 257
 481 197 l 257
 541 197 l 257
 293 1026 l 257
 230 1026 l 257
735 1026 m 257
 481 197 l 257
 541 197 l 257
 794 1026 l 257
 735 1026 l 257
EndSplineSet
EndChar

StartChar: uni0263
Encoding: 611 611 451
GlifName: gamma_latin
Width: 1024
VWidth: 0
GlyphClass: 2
Flags: W
LayerCount: 2
Fore
SplineSet
221 935 m 257
 696 -158 l 257
 756 -158 l 257
 281 935 l 257
 221 935 l 257
730 965 m 257
 218 -158 l 257
 278 -158 l 257
 791 965 l 257
 730 965 l 257
219 -217 m 257
 757 -218 l 257
 757 -158 l 257
 219 -158 l 257
 219 -217 l 257
EndSplineSet
EndChar

StartChar: uni0433
Encoding: 1075 1075 456
GlifName: ge-cy
Width: 1024
VWidth: 0
Flags: W
LayerCount: 2
Fore
SplineSet
125 1021 m 257
 125 961 l 257
 899 961 l 257
 899 1021 l 257
 125 1021 l 257
129 992 m 257
 129 6 l 257
 189 6 l 257
 189 992 l 257
 129 992 l 257
EndSplineSet
EndChar

StartChar: germandbls
Encoding: 223 223 457
GlifName: germandbls
Width: 1024
VWidth: 0
GlyphClass: 2
Flags: W
LayerCount: 2
Fore
SplineSet
76 1084 m 257
 76 1023 l 257
 327 1023 l 257
 327 1084 l 257
 76 1084 l 257
261 1550 m 257
 261 0 l 257
 325 0 l 257
 325 1550 l 257
 261 1550 l 257
313 1550 m 257
 313 1488 l 257
 920 1488 l 257
 920 1550 l 257
 313 1550 l 257
886 1550 m 257
 886 1023 l 257
 947 1023 l 257
 947 1550 l 257
 886 1550 l 257
888 848 m 257
 888 175 l 257
 946 175 l 257
 946 848 l 257
 888 848 l 257
605 187 m 257
 605 131 l 257
 948 131 l 257
 948 187 l 257
 605 187 l 257
610 1081 m 257
 610 1027 l 257
 888 1023 l 257
 889 1080 l 257
 610 1081 l 257
611 847 m 257
 612 787 l 257
 892 787 l 257
 894 847 l 257
 611 847 l 257
559 1086 m 257
 559 787 l 257
 610 788 l 257
 610 1087 l 257
 559 1086 l 257
EndSplineSet
EndChar

StartChar: uni0491
Encoding: 1169 1169 458
GlifName: geupturn-cy
Width: 1024
VWidth: 0
Flags: W
LayerCount: 2
Fore
SplineSet
125 1023 m 257
 125 963 l 257
 899 963 l 257
 899 1023 l 257
 125 1023 l 257
129 994 m 257
 129 6 l 257
 189 6 l 257
 189 994 l 257
 129 994 l 257
840 1194 m 257
 840 967 l 257
 903 967 l 257
 903 1194 l 257
 840 1194 l 257
EndSplineSet
EndChar

StartChar: uni0294
Encoding: 660 660 461
GlifName: glottalstop
Width: 1024
VWidth: 0
GlyphClass: 2
Flags: W
LayerCount: 2
Fore
SplineSet
292 1543 m 257
 292 1483 l 257
 820 1483 l 257
 820 1543 l 257
 292 1543 l 257
760 1543 m 257
 760 1028 l 257
 820 1028 l 257
 820 1543 l 257
 760 1543 l 257
360 1073 m 257
 360 1013 l 257
 820 1013 l 257
 820 1073 l 257
 360 1073 l 257
347 1073 m 257
 347 167 l 257
 407 167 l 257
 407 1073 l 257
 347 1073 l 257
EndSplineSet
EndChar

StartChar: uni02C0
Encoding: 704 704 462
GlifName: glottalstopmod
Width: 1024
VWidth: 0
GlyphClass: 2
Flags: W
LayerCount: 2
Fore
SplineSet
292 1543 m 257
 292 1483 l 257
 820 1483 l 257
 820 1543 l 257
 292 1543 l 257
760 1543 m 257
 760 1028 l 257
 820 1028 l 257
 820 1543 l 257
 760 1543 l 257
360 1073 m 257
 360 1013 l 257
 820 1013 l 257
 820 1073 l 257
 360 1073 l 257
347 1073 m 257
 347 572 l 257
 407 572 l 257
 407 1073 l 257
 347 1073 l 257
EndSplineSet
EndChar

StartChar: uni0295
Encoding: 661 661 463
GlifName: glottalstopreversed
Width: 1024
VWidth: 0
GlyphClass: 2
Flags: W
LayerCount: 2
Fore
SplineSet
820 1543 m 257
 292 1543 l 257
 292 1483 l 257
 820 1483 l 257
 820 1543 l 257
352 1543 m 257
 292 1543 l 257
 292 1028 l 257
 352 1028 l 257
 352 1543 l 257
752 1073 m 257
 292 1073 l 257
 292 1013 l 257
 752 1013 l 257
 752 1073 l 257
765 1073 m 257
 705 1073 l 257
 705 167 l 257
 765 167 l 257
 765 1073 l 257
EndSplineSet
EndChar

StartChar: grave
Encoding: 96 96 465
GlifName: grave
Width: 1024
VWidth: 0
GlyphClass: 2
Flags: W
LayerCount: 2
Fore
SplineSet
426 1286 m 257
 510 1057 l 257
 556 1081 l 257
 464 1309 l 257
 426 1286 l 257
EndSplineSet
EndChar

StartChar: gravecomb
Encoding: 768 768 466
GlifName: gravecomb
Width: 0
VWidth: 0
GlyphClass: 4
Flags: W
AnchorPoint: "top" 7 776 mark 0
LayerCount: 2
Fore
SplineSet
-171 1001 m 257
 -47 797 l 257
 13 851 l 257
 -111 1056 l 257
 -171 1001 l 257
EndSplineSet
EndChar

StartChar: greater
Encoding: 62 62 468
GlifName: greater
Width: 1024
VWidth: 0
GlyphClass: 2
Flags: W
LayerCount: 2
Fore
SplineSet
921 632 m 257
 105 1013 l 257
 105 952 l 257
 921 569 l 257
 921 632 l 257
921 632 m 257
 103 186 l 257
 103 122 l 257
 921 569 l 257
 921 632 l 257
EndSplineSet
EndChar

StartChar: greaterequal
Encoding: 8805 8805 469
GlifName: greaterequal
Width: 1024
VWidth: 0
GlyphClass: 2
Flags: W
LayerCount: 2
Fore
SplineSet
110 -5 m 257
 110 -41 l 257
 914 -41 l 257
 914 -5 l 257
 110 -5 l 257
922 712 m 257
 100 1012 l 257
 100 967 l 257
 924 664 l 257
 922 712 l 257
922 711 m 257
 102 253 l 257
 102 209 l 257
 924 655 l 257
 922 711 l 257
EndSplineSet
EndChar

StartChar: guillemotleft
Encoding: 171 171 472
GlifName: guillemotleft
Width: 1024
VWidth: 0
GlyphClass: 2
Flags: W
LayerCount: 2
Fore
SplineSet
98 509 m 257
 98 472 l 257
 535 757 l 257
 535 784 l 257
 98 509 l 257
98 509 m 257
 98 472 l 257
 466 122 l 257
 474 160 l 257
 98 509 l 257
516 527 m 257
 516 498 l 257
 926 783 l 257
 926 823 l 257
 516 527 l 257
515 527 m 257
 515 497 l 257
 881 122 l 257
 898 149 l 257
 515 527 l 257
EndSplineSet
EndChar

StartChar: guillemotright
Encoding: 187 187 473
GlifName: guillemotright
Width: 1024
VWidth: 0
GlyphClass: 2
Flags: W
LayerCount: 2
Fore
SplineSet
926 509 m 257
 489 784 l 257
 489 757 l 257
 925 472 l 257
 926 509 l 257
926 509 m 257
 550 160 l 257
 558 122 l 257
 925 472 l 257
 926 509 l 257
508 527 m 257
 98 823 l 257
 98 783 l 257
 509 498 l 257
 508 527 l 257
509 527 m 257
 126 149 l 257
 143 122 l 257
 509 497 l 257
 509 527 l 257
EndSplineSet
EndChar

StartChar: guilsinglleft
Encoding: 8249 8249 474
GlifName: guilsinglleft
Width: 1024
VWidth: 0
GlyphClass: 2
Flags: W
LayerCount: 2
Fore
SplineSet
103 652 m 257
 103 569 l 257
 921 946 l 257
 921 1013 l 257
 103 652 l 257
103 652 m 257
 103 569 l 257
 915 122 l 257
 915 199 l 257
 103 652 l 257
EndSplineSet
EndChar

StartChar: guilsinglright
Encoding: 8250 8250 475
GlifName: guilsinglright
Width: 1024
VWidth: 0
GlyphClass: 2
Flags: W
LayerCount: 2
Fore
SplineSet
921 632 m 257
 105 1013 l 257
 105 952 l 257
 921 569 l 257
 921 632 l 257
921 632 m 257
 103 186 l 257
 103 122 l 257
 921 569 l 257
 921 632 l 257
EndSplineSet
EndChar

StartChar: h
Encoding: 104 104 476
GlifName: h
Width: 1024
VWidth: 0
GlyphClass: 2
Flags: W
AnchorPoint: "top" 248 1646 basechar 0
AnchorPoint: "base" 512 -46 basechar 0
LayerCount: 2
Fore
SplineSet
174 1525 m 257
 174 6 l 257
 233 6 l 257
 233 1525 l 257
 174 1525 l 257
214 1028 m 257
 214 968 l 257
 803 968 l 257
 803 1028 l 257
 214 1028 l 257
791 1028 m 257
 791 0 l 257
 850 0 l 257
 850 1028 l 257
 791 1028 l 257
EndSplineSet
EndChar

StartChar: uni044A
Encoding: 1098 1098 477
GlifName: hardsign-cy
Width: 1024
VWidth: 0
Flags: W
AnchorPoint: "base" 498 -36 basechar 0
AnchorPoint: "top" 220 1646 basechar 0
LayerCount: 2
Fore
SplineSet
378 1012 m 257
 378 0 l 257
 438 0 l 257
 438 1012 l 257
 378 1012 l 257
430 584 m 257
 430 523 l 257
 916 523 l 257
 916 584 l 257
 430 584 l 257
903 584 m 257
 903 0 l 257
 963 0 l 257
 963 584 l 257
 903 584 l 257
413 60 m 257
 413 0 l 257
 941 0 l 257
 941 60 l 257
 413 60 l 257
86 1019 m 257
 86 958 l 257
 437 958 l 257
 437 1019 l 257
 86 1019 l 257
EndSplineSet
EndChar

StartChar: hbar
Encoding: 295 295 478
GlifName: hbar
Width: 1024
VWidth: 0
GlyphClass: 2
Flags: W
LayerCount: 2
Fore
SplineSet
242 1541 m 257
 242 6 l 257
 302 6 l 257
 302 1541 l 257
 242 1541 l 257
276 1023 m 257
 276 966 l 257
 910 966 l 257
 910 1023 l 257
 276 1023 l 257
859 1023 m 257
 859 0 l 257
 918 0 l 257
 918 1023 l 257
 859 1023 l 257
106 1429 m 257
 106 1369 l 257
 562 1369 l 257
 562 1429 l 257
 106 1429 l 257
EndSplineSet
EndChar

StartChar: hookabovecomb
Encoding: 777 777 483
GlifName: hookabovecomb
Width: 0
VWidth: 0
GlyphClass: 4
Flags: W
AnchorPoint: "top" -6 774 mark 0
LayerCount: 2
Fore
SplineSet
-111 1225 m 257
 -111 1177 l 257
 142 1177 l 257
 142 1225 l 257
 -111 1225 l 257
109 1225 m 257
 109 993 l 257
 145 993 l 257
 145 1225 l 257
 109 1225 l 257
-62 1007 m 257
 -62 962 l 257
 145 962 l 257
 145 1007 l 257
 -62 1007 l 257
-62 1007 m 257
 -62 829 l 257
 -27 829 l 257
 -27 1007 l 257
 -62 1007 l 257
EndSplineSet
EndChar

StartChar: uni20B4
Encoding: 8372 8372 485
GlifName: hryvnia
Width: 1024
VWidth: 0
GlyphClass: 2
Flags: W
LayerCount: 2
Fore
SplineSet
938 1553 m 257
 340 1553 l 257
 340 1494 l 257
 938 1494 l 257
 938 1553 l 257
938 1542 m 257
 879 1542 l 257
 879 1028 l 257
 938 1028 l 257
 938 1542 l 257
910 60 m 257
 202 60 l 257
 202 0 l 257
 910 0 l 257
 910 60 l 257
225 0 m 257
 225 355 l 257
 166 355 l 257
 166 0 l 257
 225 0 l 257
938 1028 m 257
 879 1028 l 257
 166 355 l 257
 225 355 l 257
 938 1028 l 257
99 906 m 257
 99 846 l 257
 925 846 l 257
 925 906 l 257
 99 906 l 257
99 635 m 257
 99 575 l 257
 925 575 l 257
 925 635 l 257
 99 635 l 257
EndSplineSet
EndChar

StartChar: hungarumlaut
Encoding: 733 733 489
GlifName: hungarumlaut
Width: 1024
VWidth: 0
GlyphClass: 2
Flags: W
LayerCount: 2
Fore
SplineSet
202 122 m 257
 267 122 l 257
 267 370 l 257
 202 370 l 257
 202 122 l 257
605 122 m 257
 665 122 l 257
 665 370 l 257
 605 370 l 257
 605 122 l 257
EndSplineSet
EndChar

StartChar: hyphen
Encoding: 45 45 490
GlifName: hyphen
Width: 1024
VWidth: 0
GlyphClass: 2
Flags: W
LayerCount: 2
Fore
SplineSet
99 793 m 257
 99 733 l 257
 925 733 l 257
 925 793 l 257
 99 793 l 257
EndSplineSet
EndChar

StartChar: i
Encoding: 105 105 492
GlifName: i
Width: 1024
VWidth: 0
GlyphClass: 2
Flags: W
AnchorPoint: "top" 438 1440 basechar 0
AnchorPoint: "base" 461 -78 basechar 0
LayerCount: 2
Fore
SplineSet
510 1023 m 257
 510 52 l 257
 570 52 l 257
 570 1023 l 257
 510 1023 l 257
141 60 m 257
 141 0 l 257
 883 0 l 257
 883 60 l 257
 141 60 l 257
324 1292 m 257
 324 1174 l 257
 437 1174 l 257
 437 1292 l 257
 324 1292 l 257
191 1023 m 257
 191 962 l 257
 527 962 l 257
 527 1023 l 257
 191 1023 l 257
EndSplineSet
Substitution2: "Single Substitution lookup 5 subtable" dotlessi
EndChar

StartChar: uni026A
Encoding: 618 618 495
GlifName: icapitalsmall
Width: 1024
VWidth: 0
GlyphClass: 2
Flags: W
AnchorPoint: "top" 470 1641 basechar 0
AnchorPoint: "base" 736 -26 basechar 0
LayerCount: 2
Fore
SplineSet
154 1032 m 257
 154 971 l 257
 855 971 l 257
 855 1032 l 257
 154 1032 l 257
478 997 m 257
 478 34 l 257
 537 34 l 257
 537 997 l 257
 478 997 l 257
134 66 m 257
 134 6 l 257
 890 6 l 257
 890 66 l 257
 134 66 l 257
EndSplineSet
EndChar

StartChar: uni0438
Encoding: 1080 1080 500
GlifName: ii-cy
Width: 1024
VWidth: 0
Flags: W
LayerCount: 2
Fore
SplineSet
34 1019 m 257
 34 0 l 257
 94 0 l 257
 94 1019 l 257
 34 1019 l 257
929 1019 m 257
 929 0 l 257
 989 0 l 257
 989 1019 l 257
 929 1019 l 257
929 1019 m 257
 34 0 l 257
 94 0 l 257
 990 1019 l 257
 929 1019 l 257
EndSplineSet
EndChar

StartChar: Delta
Encoding: 8710 8710 505
GlifName: increment
Width: 1024
VWidth: 0
GlyphClass: 2
Flags: W
LayerCount: 2
Fore
SplineSet
125 57 m 257
 125 0 l 257
 899 0 l 257
 899 57 l 257
 125 57 l 257
917 0 m 257
 578 1548 l 257
 506 1548 l 257
 865 0 l 257
 917 0 l 257
155 0 m 257
 511 1548 l 257
 440 1548 l 257
 106 0 l 257
 155 0 l 257
EndSplineSet
EndChar

StartChar: infinity
Encoding: 8734 8734 506
GlifName: infinity
Width: 1024
VWidth: 0
GlyphClass: 2
Flags: W
LayerCount: 2
Fore
SplineSet
107 1023 m 257
 107 963 l 257
 402 963 l 257
 402 1023 l 257
 107 1023 l 257
108 984 m 257
 108 0 l 257
 168 0 l 257
 168 984 l 257
 108 984 l 257
137 60 m 257
 137 0 l 257
 423 0 l 257
 423 60 l 257
 137 60 l 257
586 -1 m 257
 627 15 l 257
 400 1024 l 257
 349 990 l 257
 586 -1 l 257
423 -1 m 257
 708 987 l 257
 656 1023 l 257
 371 35 l 257
 423 -1 l 257
656 1024 m 257
 662 964 l 257
 927 968 l 257
 928 1035 l 257
 656 1024 l 257
872 1031 m 257
 879 0 l 257
 939 0 l 257
 933 1035 l 257
 872 1031 l 257
585 59 m 257
 585 -1 l 257
 885 0 l 257
 885 60 l 257
 585 59 l 257
EndSplineSet
EndChar

StartChar: integral
Encoding: 8747 8747 507
GlifName: integral
Width: 1024
VWidth: 0
GlyphClass: 2
Flags: W
LayerCount: 2
Fore
SplineSet
534 1641 m 257
 311 -399 l 257
 378 -399 l 257
 601 1641 l 257
 534 1641 l 257
131 -340 m 257
 131 -398 l 257
 377 -398 l 257
 377 -340 l 257
 131 -340 l 257
606 1641 m 257
 606 1575 l 257
 925 1575 l 257
 925 1641 l 257
 606 1641 l 257
EndSplineSet
EndChar

StartChar: iota
Encoding: 953 953 510
GlifName: iota
Width: 1024
VWidth: 0
GlyphClass: 2
Flags: W
LayerCount: 2
Fore
SplineSet
296 1018 m 257
 296 107 l 257
 356 107 l 257
 356 1018 l 257
 296 1018 l 257
296 172 m 257
 296 106 l 257
 792 6 l 257
 792 72 l 257
 296 172 l 257
EndSplineSet
EndChar

StartChar: uni0269
Encoding: 617 617 511
GlifName: iota_latin
Width: 1024
VWidth: 0
GlyphClass: 2
Flags: W
AnchorPoint: "top" 492 1191 basechar 0
LayerCount: 2
Fore
SplineSet
296 1018 m 257
 296 107 l 257
 356 107 l 257
 356 1018 l 257
 296 1018 l 257
296 172 m 257
 296 106 l 257
 792 6 l 257
 792 72 l 257
 296 172 l 257
EndSplineSet
EndChar

StartChar: uni0475
Encoding: 1141 1141 522
GlifName: izhitsa-cy
Width: 1024
VWidth: 0
Flags: W
AnchorPoint: "top" 496 1642 basechar 0
AnchorPoint: "base" 564 -54 basechar 0
LayerCount: 2
Fore
SplineSet
106 1029 m 257
 514 0 l 257
 574 0 l 257
 170 1029 l 257
 106 1029 l 257
848 1029 m 257
 514 0 l 257
 574 0 l 257
 918 1029 l 257
 848 1029 l 257
878 979 m 257
 984 973 l 257
 1021 1023 l 257
 916 1029 l 257
 878 979 l 257
EndSplineSet
EndChar

StartChar: j
Encoding: 106 106 523
GlifName: j
Width: 1024
VWidth: 0
GlyphClass: 2
Flags: W
AnchorPoint: "top" 800 1306 basechar 0
AnchorPoint: "base" 550 -476 basechar 0
LayerCount: 2
Fore
SplineSet
768 1023 m 257
 768 -411 l 257
 826 -411 l 257
 826 1023 l 257
 768 1023 l 257
198 -348 m 257
 198 -406 l 257
 788 -406 l 257
 788 -348 l 257
 198 -348 l 257
198 -6 m 257
 198 -378 l 257
 258 -378 l 257
 258 -6 l 257
 198 -6 l 257
766 1201 m 257
 766 1142 l 257
 826 1142 l 257
 826 1201 l 257
 766 1201 l 257
EndSplineSet
Substitution2: "Single Substitution lookup 5 subtable" uni0237
EndChar

StartChar: uni029D
Encoding: 669 669 526
GlifName: jcrossedtail
Width: 1024
VWidth: 0
GlyphClass: 2
Flags: W
AnchorPoint: "top" 800 1306 basechar 0
AnchorPoint: "base" 550 -476 basechar 0
LayerCount: 2
Fore
SplineSet
768 1023 m 257
 768 -411 l 257
 826 -411 l 257
 826 1023 l 257
 768 1023 l 257
198 -348 m 257
 198 -406 l 257
 788 -406 l 257
 788 -348 l 257
 198 -348 l 257
198 -6 m 257
 198 -378 l 257
 258 -378 l 257
 258 -6 l 257
 198 -6 l 257
766 1201 m 257
 766 1142 l 257
 826 1142 l 257
 826 1201 l 257
 766 1201 l 257
200 -33 m 257
 1026 -33 l 257
 1026 47 l 257
 200 47 l 257
 200 -33 l 257
EndSplineSet
EndChar

StartChar: k
Encoding: 107 107 530
GlifName: k
Width: 1024
VWidth: 0
GlyphClass: 2
Flags: W
AnchorPoint: "base" 457 -75 basechar 0
AnchorPoint: "top" 103 1641 basechar 0
LayerCount: 2
Fore
SplineSet
76 1535 m 257
 76 5 l 257
 136 5 l 257
 136 1535 l 257
 76 1535 l 257
125 421 m 257
 125 352 l 257
 782 1023 l 257
 722 1023 l 257
 125 421 l 257
372 612 m 257
 330 569 l 257
 887 0 l 257
 948 0 l 257
 372 612 l 257
EndSplineSet
EndChar

StartChar: uni03D7
Encoding: 983 983 531
GlifName: kaiS_ymbol
Width: 1024
VWidth: 0
GlyphClass: 2
Flags: W
LayerCount: 2
Fore
SplineSet
53 1017 m 257
 56 961 l 257
 415 851 l 257
 483 909 l 257
 53 1017 l 257
424 925 m 257
 128 39 l 257
 186 22 l 257
 482 908 l 257
 424 925 l 257
811 1033 m 257
 125 37 l 257
 195 18 l 257
 881 1014 l 257
 811 1033 l 257
811 1035 m 257
 515 39 l 257
 576 -5 l 257
 872 991 l 257
 811 1035 l 257
515 39 m 257
 577 -5 l 257
 853 -1 l 257
 906 39 l 257
 515 39 l 257
375 -294 m 257
 495 -314 l 257
 786 -238 l 257
 752 -215 l 257
 375 -294 l 257
906 39 m 257
 847 -1 l 257
 735 -249 l 257
 785 -239 l 257
 906 39 l 257
EndSplineSet
EndChar

StartChar: kgreenlandic
Encoding: 312 312 533
GlifName: kgreenlandic
Width: 1024
VWidth: 0
GlyphClass: 2
Flags: W
AnchorPoint: "base" 486 -119 basechar 0
AnchorPoint: "top" 140 1110 basechar 0
LayerCount: 2
Fore
SplineSet
76 1033 m 257
 76 5 l 257
 136 5 l 257
 136 1033 l 257
 76 1033 l 257
125 421 m 257
 125 352 l 257
 985 1023 l 257
 925 1023 l 257
 125 421 l 257
372 582 m 257
 330 539 l 257
 887 0 l 257
 948 0 l 257
 372 582 l 257
EndSplineSet
EndChar

StartChar: l
Encoding: 108 108 538
GlifName: l
Width: 1024
VWidth: 0
GlyphClass: 2
Flags: W
AnchorPoint: "base" 538 -68 basechar 0
AnchorPoint: "top" 520 1654 basechar 0
LayerCount: 2
Fore
SplineSet
195 72 m 257
 195 0 l 257
 829 0 l 257
 829 72 l 257
 195 72 l 257
482 1553 m 257
 482 57 l 257
 542 57 l 257
 542 1553 l 257
 482 1553 l 257
256 1553 m 257
 256 1494 l 257
 491 1494 l 257
 491 1553 l 257
 256 1553 l 257
EndSplineSet
EndChar

StartChar: lambda
Encoding: 955 955 541
GlifName: lambda
Width: 1024
VWidth: 0
GlyphClass: 2
Flags: W
LayerCount: 2
Fore
SplineSet
181 0 m 257
 251 0 l 257
 534 777 l 257
 468 777 l 257
 181 0 l 257
643 0 m 257
 702 0 l 257
 474 1047 l 257
 408 1047 l 257
 643 0 l 257
EndSplineSet
EndChar

StartChar: uni20BE
Encoding: 8382 8382 542
GlifName: lari
Width: 1024
VWidth: 0
GlyphClass: 2
Flags: W
LayerCount: 2
Fore
SplineSet
86 69 m 257
 86 9 l 257
 921 9 l 257
 921 69 l 257
 86 69 l 257
238 1040 m 257
 242 980 l 257
 870 980 l 257
 866 1040 l 257
 238 1040 l 257
374 1159 m 257
 374 711 l 257
 429 711 l 257
 429 1159 l 257
 374 1159 l 257
867 1040 m 257
 804 1016 l 257
 970 611 l 257
 1005 612 l 257
 867 1040 l 257
39 609 m 257
 94 592 l 257
 276 982 l 257
 239 1039 l 257
 39 609 l 257
215 65 m 257
 273 64 l 257
 94 592 l 257
 39 609 l 257
 215 65 l 257
609 1167 m 257
 609 719 l 257
 652 722 l 257
 652 1170 l 257
 609 1167 l 257
EndSplineSet
EndChar

StartChar: lcaron
Encoding: 318 318 543
GlifName: lcaron
Width: 1024
VWidth: 0
GlyphClass: 2
Flags: W
LayerCount: 2
Fore
SplineSet
196 62 m 257
 196 0 l 257
 830 0 l 257
 830 62 l 257
 196 62 l 257
492 1550 m 257
 492 46 l 257
 550 46 l 257
 550 1550 l 257
 492 1550 l 257
194 1550 m 257
 194 1489 l 257
 506 1489 l 257
 506 1550 l 257
 194 1550 l 257
630 1496 m 257
 630 1264 l 257
 682 1264 l 257
 682 1496 l 257
 630 1496 l 257
EndSplineSet
EndChar

StartChar: uni0234
Encoding: 564 564 545
GlifName: lcurl
Width: 1024
VWidth: 0
GlyphClass: 2
Flags: W
AnchorPoint: "base" 538 -68 basechar 0
AnchorPoint: "top" 520 1654 basechar 0
LayerCount: 2
Fore
SplineSet
539 129 m 257
 539 57 l 257
 842 340 l 257
 842 412 l 257
 539 129 l 257
482 1553 m 257
 482 57 l 257
 539 57 l 257
 539 1553 l 257
 482 1553 l 257
256 1553 m 257
 256 1494 l 257
 491 1494 l 257
 491 1553 l 257
 256 1553 l 257
177 362 m 257
 177 290 l 257
 846 352 l 257
 846 424 l 257
 177 362 l 257
EndSplineSet
EndChar

StartChar: arrowleft
Encoding: 8592 8592 547
GlifName: leftA_rrow
Width: 1024
VWidth: 0
GlyphClass: 2
Flags: W
LayerCount: 2
Fore
SplineSet
155 790 m 257
 155 730 l 257
 920 730 l 257
 920 790 l 257
 155 790 l 257
312 1091 m 257
 88 759 l 257
 163 759 l 257
 387 1091 l 257
 312 1091 l 257
88 759 m 257
 331 426 l 257
 406 426 l 257
 164 759 l 257
 88 759 l 257
EndSplineSet
EndChar

StartChar: uni25C2
Encoding: 9666 9666 548
GlifName: leftB_lackS_mallT_riangle
Width: 1024
VWidth: 0
GlyphClass: 2
Flags: W
LayerCount: 2
Fore
SplineSet
303 671 m 257
 716 431 l 257
 719 915 l 257
 303 671 l 257
EndSplineSet
EndChar

StartChar: uni25C0
Encoding: 9664 9664 549
GlifName: leftB_lackT_riangle
Width: 1024
VWidth: 0
GlyphClass: 2
Flags: W
LayerCount: 2
Fore
SplineSet
165 669 m 257
 853 269 l 257
 857 1077 l 257
 165 669 l 257
EndSplineSet
EndChar

StartChar: arrowboth
Encoding: 8596 8596 550
GlifName: leftR_ightA_rrow
Width: 1024
VWidth: 0
GlyphClass: 2
Flags: W
LayerCount: 2
Fore
SplineSet
158 845 m 257
 158 785 l 257
 886 785 l 257
 886 845 l 257
 158 845 l 257
281 1146 m 257
 105 814 l 257
 165 814 l 257
 340 1146 l 257
 281 1146 l 257
105 814 m 257
 296 481 l 257
 355 481 l 257
 165 814 l 257
 105 814 l 257
737 484 m 257
 913 816 l 257
 855 816 l 257
 679 484 l 257
 737 484 l 257
926 816 m 257
 735 1149 l 257
 677 1149 l 257
 867 816 l 257
 926 816 l 257
EndSplineSet
EndChar

StartChar: uni25C3
Encoding: 9667 9667 551
GlifName: leftW_hiteS_mallT_riangle
Width: 1024
VWidth: 0
GlyphClass: 2
Flags: W
LayerCount: 2
Fore
SplineSet
303 671 m 257
 716 431 l 257
 719 915 l 257
 303 671 l 257
361 671 m 257
 693 867 l 257
 692 479 l 257
 361 671 l 257
EndSplineSet
EndChar

StartChar: uni25C1
Encoding: 9665 9665 552
GlifName: leftW_hiteT_riangle
Width: 1024
VWidth: 0
GlyphClass: 2
Flags: W
LayerCount: 2
Fore
SplineSet
165 669 m 257
 853 269 l 257
 857 1077 l 257
 165 669 l 257
261 670 m 257
 815 996 l 257
 812 350 l 257
 261 670 l 257
EndSplineSet
EndChar

StartChar: less
Encoding: 60 60 553
GlifName: less
Width: 1024
VWidth: 0
GlyphClass: 2
Flags: W
LayerCount: 2
Fore
SplineSet
103 652 m 257
 103 569 l 257
 921 946 l 257
 921 1013 l 257
 103 652 l 257
103 652 m 257
 103 569 l 257
 915 122 l 257
 915 199 l 257
 103 652 l 257
EndSplineSet
EndChar

StartChar: lessequal
Encoding: 8804 8804 554
GlifName: lessequal
Width: 1024
VWidth: 0
GlyphClass: 2
Flags: W
LayerCount: 2
Fore
SplineSet
116 0 m 257
 115 -36 l 257
 889 -30 l 257
 890 0 l 257
 116 0 l 257
92 712 m 257
 90 664 l 257
 914 967 l 257
 914 1012 l 257
 92 712 l 257
92 711 m 257
 90 655 l 257
 912 209 l 257
 912 253 l 257
 92 711 l 257
EndSplineSet
EndChar

StartChar: lira
Encoding: 8356 8356 555
GlifName: lira
Width: 1024
VWidth: 0
GlyphClass: 2
Flags: W
LayerCount: 2
Fore
SplineSet
54 770 m 257
 54 688 l 257
 780 688 l 257
 780 770 l 257
 54 770 l 257
381 1543 m 257
 381 1481 l 257
 672 1481 l 257
 672 1543 l 257
 381 1543 l 257
54 1033 m 257
 54 959 l 257
 780 959 l 257
 780 1033 l 257
 54 1033 l 257
337 1542 m 257
 337 0 l 257
 399 0 l 257
 399 1542 l 257
 337 1542 l 257
162 82 m 257
 162 0 l 257
 888 0 l 257
 888 82 l 257
 162 82 l 257
EndSplineSet
EndChar

StartChar: uni2113
Encoding: 8467 8467 556
GlifName: literS_ign
Width: 1024
VWidth: 0
GlyphClass: 2
Flags: W
LayerCount: 2
Fore
SplineSet
415 151 m 257
 415 90 l 257
 829 9 l 257
 829 70 l 257
 415 151 l 257
412 1548 m 257
 412 86 l 257
 483 79 l 257
 483 1541 l 257
 412 1548 l 257
415 1546 m 257
 412 1479 l 257
 803 1477 l 257
 806 1544 l 257
 415 1546 l 257
806 1545 m 257
 418 123 l 257
 478 100 l 257
 867 1522 l 257
 806 1545 l 257
EndSplineSet
EndChar

StartChar: uni0459
Encoding: 1113 1113 557
GlifName: lje-cy
Width: 1024
VWidth: 0
Flags: W
LayerCount: 2
Fore
SplineSet
599 1024 m 257
 599 -1 l 257
 659 -1 l 257
 659 1024 l 257
 599 1024 l 257
297 1024 m 257
 297 964 l 257
 647 964 l 257
 647 1024 l 257
 297 1024 l 257
296 1024 m 257
 114 0 l 257
 174 0 l 257
 356 1024 l 257
 296 1024 l 257
33 61 m 257
 33 1 l 257
 174 1 l 257
 174 61 l 257
 33 61 l 257
650 57 m 257
 650 -3 l 257
 982 -3 l 257
 982 57 l 257
 650 57 l 257
658 639 m 257
 658 579 l 257
 983 579 l 257
 983 639 l 257
 658 639 l 257
923 9 m 257
 983 9 l 257
 983 640 l 257
 923 640 l 257
 923 9 l 257
EndSplineSet
EndChar

StartChar: logicalnot
Encoding: 172 172 559
GlifName: logicalnot
Width: 1024
VWidth: 0
GlyphClass: 2
Flags: W
LayerCount: 2
Fore
SplineSet
729 935 m 257
 729 640 l 257
 782 640 l 257
 782 935 l 257
 729 935 l 257
242 935 m 257
 242 875 l 257
 776 875 l 257
 776 935 l 257
 242 935 l 257
EndSplineSet
EndChar

StartChar: longs
Encoding: 383 383 560
GlifName: longs
Width: 1024
VWidth: 0
GlyphClass: 2
Flags: W
LayerCount: 2
Fore
SplineSet
76 1084 m 257
 76 1023 l 257
 327 1023 l 257
 327 1084 l 257
 76 1084 l 257
261 1550 m 257
 261 0 l 257
 325 0 l 257
 325 1550 l 257
 261 1550 l 257
313 1550 m 257
 313 1488 l 257
 920 1488 l 257
 920 1550 l 257
 313 1550 l 257
EndSplineSet
EndChar

StartChar: lozenge
Encoding: 9674 9674 562
GlifName: lozenge
Width: 1024
VWidth: 0
GlyphClass: 2
Flags: W
LayerCount: 2
Fore
SplineSet
320 829 m 257
 508 402 l 257
 715 820 l 257
 509 1255 l 257
 320 829 l 257
EndSplineSet
EndChar

StartChar: lslash
Encoding: 322 322 563
GlifName: lslash
Width: 1024
VWidth: 0
GlyphClass: 2
Flags: W
LayerCount: 2
Fore
SplineSet
195 60 m 257
 195 0 l 257
 829 0 l 257
 829 60 l 257
 195 60 l 257
552 1553 m 257
 552 22 l 257
 612 22 l 257
 612 1553 l 257
 552 1553 l 257
256 1553 m 257
 256 1493 l 257
 578 1493 l 257
 578 1553 l 257
 256 1553 l 257
815 1039 m 257
 236 702 l 257
 338 702 l 257
 917 1039 l 257
 815 1039 l 257
EndSplineSet
EndChar

StartChar: m
Encoding: 109 109 564
GlifName: m
Width: 1024
VWidth: 0
GlyphClass: 2
Flags: W
AnchorPoint: "base" 540 -112 basechar 0
AnchorPoint: "top" 550 1110 basechar 0
LayerCount: 2
Fore
SplineSet
134 993 m 257
 134 0 l 257
 194 0 l 257
 194 993 l 257
 134 993 l 257
518 972 m 257
 518 0 l 257
 578 0 l 257
 578 972 l 257
 518 972 l 257
904 976 m 257
 904 0 l 257
 964 0 l 257
 964 976 l 257
 904 976 l 257
60 1023 m 257
 60 966 l 257
 964 966 l 257
 964 1023 l 257
 60 1023 l 257
EndSplineSet
EndChar

StartChar: macron
Encoding: 175 175 565
GlifName: macron
Width: 1024
VWidth: 0
GlyphClass: 2
Flags: W
LayerCount: 2
Fore
SplineSet
263 1036 m 257
 263 989 l 257
 719 989 l 257
 719 1036 l 257
 263 1036 l 257
EndSplineSet
EndChar

StartChar: mu
Encoding: 181 181 573
GlifName: mu
Width: 1024
VWidth: 0
GlyphClass: 2
Flags: W
LayerCount: 2
Fore
SplineSet
774 935 m 257
 774 0 l 257
 834 0 l 257
 834 935 l 257
 774 935 l 257
236 60 m 257
 236 0 l 257
 804 0 l 257
 804 60 l 257
 236 60 l 257
190 935 m 257
 190 -430 l 257
 252 -430 l 257
 252 935 l 257
 190 935 l 257
EndSplineSet
EndChar

StartChar: multiply
Encoding: 215 215 574
GlifName: multiply
Width: 1024
VWidth: 0
GlyphClass: 2
Flags: W
LayerCount: 2
Fore
SplineSet
96 295 m 257
 192 295 l 257
 920 1323 l 257
 838 1323 l 257
 96 295 l 257
94 1322 m 257
 842 288 l 257
 930 288 l 257
 178 1322 l 257
 94 1322 l 257
EndSplineSet
EndChar

StartChar: n
Encoding: 110 110 575
GlifName: n
Width: 1024
VWidth: 0
GlyphClass: 2
Flags: W
AnchorPoint: "base" 530 -64 basechar 0
AnchorPoint: "top" 492 1158 basechar 0
LayerCount: 2
Fore
SplineSet
302 990 m 257
 302 0 l 257
 363 0 l 257
 363 990 l 257
 302 990 l 257
842 976 m 257
 842 0 l 257
 902 0 l 257
 902 976 l 257
 842 976 l 257
122 1023 m 257
 122 967 l 257
 900 967 l 257
 900 1023 l 257
 122 1023 l 257
EndSplineSet
EndChar

StartChar: uni0235
Encoding: 565 565 580
GlifName: ncurl
Width: 1024
VWidth: 0
GlyphClass: 2
Flags: W
AnchorPoint: "base" 530 -64 basechar 0
AnchorPoint: "top" 492 1158 basechar 0
LayerCount: 2
Fore
SplineSet
178 990 m 257
 178 0 l 257
 239 0 l 257
 239 990 l 257
 178 990 l 257
718 976 m 257
 718 0 l 257
 778 0 l 257
 778 976 l 257
 718 976 l 257
-2 1023 m 257
 -2 967 l 257
 776 967 l 257
 776 1023 l 257
 -2 1023 l 257
511 51 m 257
 511 -5 l 257
 947 295 l 257
 947 351 l 257
 511 51 l 257
765 54 m 257
 765 -2 l 257
 954 -2 l 257
 954 54 l 257
 765 54 l 257
947 351 m 257
 947 -2 l 257
 1006 0 l 257
 1006 353 l 257
 947 351 l 257
EndSplineSet
EndChar

StartChar: nine
Encoding: 57 57 582
GlifName: nine
Width: 1024
VWidth: 0
GlyphClass: 2
Flags: W
LayerCount: 2
Fore
SplineSet
921 759 m 257
 921 59 l 257
 79 59 l 257
 79 0 l 257
 977 0 l 257
 977 1553 l 257
 57 1553 l 257
 57 1541 l 257
 57 759 l 257
 921 759 l 257
918 818 m 257
 117 818 l 257
 117 1495 l 257
 918 1495 l 257
 918 818 l 257
EndSplineSet
Substitution2: "supsSuperscriptinLatinlookup16 subtable" uni2079
EndChar

StartChar: uni045A
Encoding: 1114 1114 583
GlifName: nje-cy
Width: 1024
VWidth: 0
Flags: W
LayerCount: 2
Fore
SplineSet
34 1021 m 257
 34 0 l 257
 94 0 l 257
 94 1021 l 257
 34 1021 l 257
481 1021 m 257
 481 0 l 257
 541 0 l 257
 541 1021 l 257
 481 1021 l 257
56 566 m 257
 55 506 l 257
 954 506 l 257
 955 566 l 257
 56 566 l 257
929 566 m 257
 929 1 l 257
 989 0 l 257
 989 565 l 257
 929 566 l 257
532 60 m 257
 532 0 l 257
 990 0 l 257
 990 60 l 257
 532 60 l 257
EndSplineSet
EndChar

StartChar: uni2197
Encoding: 8599 8599 586
GlifName: northE_astA_rrow
Width: 1024
VWidth: 0
GlyphClass: 2
Flags: W
LayerCount: 2
Fore
SplineSet
775 985 m 257
 732 1027 l 257
 191 486 l 257
 234 444 l 257
 775 985 l 257
876 661 m 257
 800 1054 l 257
 747 1001 l 257
 823 608 l 257
 876 661 l 257
800 1054 m 257
 393 1117 l 257
 340 1064 l 257
 746 1000 l 257
 800 1054 l 257
EndSplineSet
EndChar

StartChar: uni2196
Encoding: 8598 8598 587
GlifName: northW_estA_rrow
Width: 1024
VWidth: 0
GlyphClass: 2
Flags: W
LayerCount: 2
Fore
SplineSet
281 1029 m 257
 239 987 l 257
 780 446 l 257
 822 488 l 257
 281 1029 l 257
605 1131 m 257
 212 1055 l 257
 265 1001 l 257
 658 1078 l 257
 605 1131 l 257
212 1055 m 257
 148 647 l 257
 201 594 l 257
 265 1001 l 257
 212 1055 l 257
EndSplineSet
EndChar

StartChar: notequal
Encoding: 8800 8800 588
GlifName: notequal
Width: 1024
VWidth: 0
GlyphClass: 2
Flags: W
LayerCount: 2
Fore
SplineSet
755 1101 m 257
 185 182 l 257
 200 109 l 257
 770 1028 l 257
 755 1101 l 257
104 837 m 257
 104 775 l 257
 920 775 l 257
 920 837 l 257
 104 837 l 257
104 500 m 257
 104 432 l 257
 920 432 l 257
 920 500 l 257
 104 500 l 257
EndSplineSet
EndChar

StartChar: numbersign
Encoding: 35 35 591
GlifName: numbersign
Width: 1024
VWidth: 0
GlyphClass: 2
Flags: W
LayerCount: 2
Fore
SplineSet
229 1184 m 257
 229 99 l 257
 288 99 l 257
 288 1184 l 257
 229 1184 l 257
724 1192 m 257
 724 95 l 257
 795 95 l 257
 795 1192 l 257
 724 1192 l 257
105 995 m 257
 105 937 l 257
 906 937 l 257
 906 995 l 257
 105 995 l 257
109 493 m 257
 109 417 l 257
 919 417 l 257
 919 493 l 257
 109 493 l 257
EndSplineSet
EndChar

StartChar: o
Encoding: 111 111 593
GlifName: o
Width: 1024
VWidth: 0
GlyphClass: 2
Flags: W
AnchorPoint: "top" 450 1110 basechar 0
AnchorPoint: "base" 482 -86 basechar 0
LayerCount: 2
Fore
SplineSet
103 1023 m 257
 103 0 l 257
 162 0 l 257
 162 1023 l 257
 103 1023 l 257
860 1023 m 257
 860 0 l 257
 921 0 l 257
 921 1023 l 257
 860 1023 l 257
164 1023 m 257
 164 967 l 257
 865 967 l 257
 865 1023 l 257
 164 1023 l 257
149 62 m 257
 149 0 l 257
 868 0 l 257
 868 62 l 257
 149 62 l 257
EndSplineSet
EndChar

StartChar: uni0275
Encoding: 629 629 596
GlifName: obarred
Width: 1024
VWidth: 0
GlyphClass: 2
Flags: W
AnchorPoint: "top" 546 1158 basechar 0
AnchorPoint: "base" 536 -38 basechar 0
LayerCount: 2
Fore
SplineSet
103 1023 m 257
 103 0 l 257
 162 0 l 257
 162 1023 l 257
 103 1023 l 257
860 1023 m 257
 860 0 l 257
 921 0 l 257
 921 1023 l 257
 860 1023 l 257
164 1023 m 257
 164 967 l 257
 865 967 l 257
 865 1023 l 257
 164 1023 l 257
149 62 m 257
 149 0 l 257
 868 0 l 257
 868 62 l 257
 149 62 l 257
145.752 616 m 257
 145.752 556 l 257
 874.63 556 l 257
 874.63 616 l 257
 145.752 616 l 257
EndSplineSet
EndChar

StartChar: uni04E9
Encoding: 1257 1257 597
GlifName: obarred-cy
Width: 1024
VWidth: 0
Flags: W
AnchorPoint: "top" 546 1158 basechar 0
AnchorPoint: "base" 536 -38 basechar 0
LayerCount: 2
Fore
SplineSet
103 1023 m 257
 103 0 l 257
 162 0 l 257
 162 1023 l 257
 103 1023 l 257
860 1023 m 257
 860 0 l 257
 921 0 l 257
 921 1023 l 257
 860 1023 l 257
164 1023 m 257
 164 967 l 257
 865 967 l 257
 865 1023 l 257
 164 1023 l 257
149 62 m 257
 149 0 l 257
 868 0 l 257
 868 62 l 257
 149 62 l 257
145.752 616 m 257
 145.752 556 l 257
 874.63 556 l 257
 874.63 616 l 257
 145.752 616 l 257
EndSplineSet
EndChar

StartChar: oe
Encoding: 339 339 601
GlifName: oe
Width: 1024
VWidth: 0
GlyphClass: 2
Flags: W
AnchorPoint: "top" 534 1132 basechar 0
AnchorPoint: "base" 558 -80 basechar 0
LayerCount: 2
Fore
SplineSet
587 506 m 257
 587 446 l 257
 887 446 l 257
 887 506 l 257
 587 506 l 257
862 1023 m 257
 862 445 l 257
 921 445 l 257
 921 1023 l 257
 862 1023 l 257
93 1023 m 257
 93 0 l 257
 152 0 l 257
 152 1023 l 257
 93 1023 l 257
548 1023 m 257
 548 0 l 257
 609 0 l 257
 609 1023 l 257
 548 1023 l 257
148 1023 m 257
 148 964 l 257
 922 964 l 257
 922 1023 l 257
 148 1023 l 257
139 62 m 257
 139 0 l 257
 931 0 l 257
 931 62 l 257
 139 62 l 257
EndSplineSet
EndChar

StartChar: ogonek
Encoding: 731 731 602
GlifName: ogonek
Width: 1024
VWidth: 0
GlyphClass: 2
Flags: W
LayerCount: 2
Fore
SplineSet
227 -300 m 257
 227 -360 l 257
 768 -360 l 257
 768 -300 l 257
 227 -300 l 257
227 51 m 257
 227 -360 l 257
 287 -360 l 257
 287 51 l 257
 227 51 l 257
227 51 m 257
 227 -8 l 257
 769 -8 l 257
 769 51 l 257
 227 51 l 257
EndSplineSet
EndChar

StartChar: omega
Encoding: 969 969 607
GlifName: omega
Width: 1024
VWidth: 0
GlyphClass: 2
Flags: W
LayerCount: 2
Fore
SplineSet
150 1023 m 257
 106 47 l 257
 166 47 l 257
 210 1023 l 257
 150 1023 l 257
801 1024 m 257
 861 56 l 257
 921 56 l 257
 861 1024 l 257
 801 1024 l 257
481 611 m 257
 481 136 l 257
 541 136 l 257
 541 611 l 257
 481 611 l 257
107 65 m 257
 102 2 l 257
 484 137 l 257
 484 200 l 257
 107 65 l 257
539 211 m 257
 539 137 l 257
 921 2 l 257
 921 76 l 257
 539 211 l 257
EndSplineSet
EndChar

StartChar: uniA7B7
Encoding: 42935 42935 608
GlifName: omega_latin
Width: 1024
VWidth: 0
GlyphClass: 2
Flags: W
AnchorPoint: "base" 534 -100 basechar 0
AnchorPoint: "top" 514 1072 basechar 0
LayerCount: 2
Fore
SplineSet
64 1025 m 257
 64 0 l 257
 124 0 l 257
 124 1025 l 257
 64 1025 l 257
899 1025 m 257
 899 0 l 257
 959 0 l 257
 961 1026 l 257
 899 1025 l 257
481 669 m 257
 481 146 l 257
 541 146 l 257
 541 669 l 257
 481 669 l 257
124 60 m 257
 124 0 l 257
 481 146 l 257
 481 206 l 257
 124 60 l 257
541 206 m 257
 541 146 l 257
 899 1 l 257
 899 61 l 257
 541 206 l 257
95 1025 m 257
 97 965 l 257
 397 965 l 257
 395 1025 l 257
 95 1025 l 257
619 1025 m 257
 617 965 l 257
 959 965 l 257
 961 1025 l 257
 619 1025 l 257
EndSplineSet
EndChar

StartChar: one
Encoding: 49 49 613
GlifName: one
Width: 1024
VWidth: 0
GlyphClass: 2
Flags: W
LayerCount: 2
Fore
SplineSet
551 0 m 257
 611 0 l 257
 611 1550 l 257
 551 1550 l 257
 551 0 l 257
551 1550 m 257
 432 1426 l 257
 483 1398 l 257
 611 1550 l 257
 551 1550 l 257
EndSplineSet
Substitution2: "supsSuperscriptinLatinlookup16 subtable" uni00B9
EndChar

StartChar: onequarter
Encoding: 188 188 616
GlifName: onequarter
Width: 1024
VWidth: 0
GlyphClass: 2
Flags: W
LayerCount: 2
Fore
SplineSet
79 10 m 257
 182 10 l 257
 79 10 l 257
873 7 m 257
 932 7 l 257
 873 7 l 257
EndSplineSet
Refer: 752 185 N 1 0 0 1 -284 357 2
Refer: 701 47 N 1 0 0 1 -124 -63 2
Refer: 1749 8324 N 1 0 0 1 253 18 2
EndChar

StartChar: uni0254
Encoding: 596 596 618
GlifName: oopen
Width: 1024
VWidth: 0
GlyphClass: 2
Flags: W
AnchorPoint: "base" 498 -36 basechar 0
AnchorPoint: "top" 521 1116 basechar 0
LayerCount: 2
Fore
SplineSet
860 0 m 257
 860 56 l 257
 164 56 l 257
 164 0 l 257
 860 0 l 257
858 39 m 257
 858 1023 l 257
 798 1023 l 257
 798 39 l 257
 858 39 l 257
810 963 m 257
 810 1023 l 257
 170 1023 l 257
 170 963 l 257
 810 963 l 257
EndSplineSet
EndChar

StartChar: ordfeminine
Encoding: 170 170 619
GlifName: ordfeminine
Width: 1024
VWidth: 0
GlyphClass: 2
Flags: W
LayerCount: 2
Fore
SplineSet
181 1319 m 257
 181 1252 l 257
 830 1252 l 257
 830 1319 l 257
 181 1319 l 257
792 1320 m 257
 792 296 l 257
 869 296 l 257
 869 1320 l 257
 792 1320 l 257
184 895 m 257
 184 833 l 257
 808 833 l 257
 808 895 l 257
 184 895 l 257
185 872 m 257
 185 294 l 257
 256 294 l 257
 256 872 l 257
 185 872 l 257
194 369 m 257
 194 294 l 257
 858 294 l 257
 858 369 l 257
 194 369 l 257
78 67 m 257
 78 0 l 257
 946 0 l 257
 946 67 l 257
 78 67 l 257
EndSplineSet
EndChar

StartChar: ordmasculine
Encoding: 186 186 620
GlifName: ordmasculine
Width: 1024
VWidth: 0
GlyphClass: 2
Flags: W
LayerCount: 2
Fore
SplineSet
108 1423 m 257
 108 400 l 257
 167 400 l 257
 167 1423 l 257
 108 1423 l 257
865 1423 m 257
 865 400 l 257
 926 400 l 257
 926 1423 l 257
 865 1423 l 257
169 1423 m 257
 169 1367 l 257
 870 1367 l 257
 870 1423 l 257
 169 1423 l 257
154 462 m 257
 154 400 l 257
 873 400 l 257
 873 462 l 257
 154 462 l 257
94 330 m 257
 94 264 l 257
 921 264 l 257
 921 330 l 257
 94 330 l 257
EndSplineSet
EndChar

StartChar: oslash
Encoding: 248 248 621
GlifName: oslash
Width: 1024
VWidth: 0
GlyphClass: 2
Flags: W
AnchorPoint: "top" 450 1110 basechar 0
AnchorPoint: "base" 482 -86 basechar 0
LayerCount: 2
Fore
SplineSet
916 1125 m 257
 66 -36 l 257
 106 -70 l 257
 958 1073 l 257
 916 1125 l 257
100 1023 m 257
 100 0 l 257
 160 0 l 257
 160 1023 l 257
 100 1023 l 257
856 1023 m 257
 856 0 l 257
 916 0 l 257
 916 1023 l 257
 856 1023 l 257
142 1023 m 257
 142 963 l 257
 888 963 l 257
 888 1023 l 257
 142 1023 l 257
144 63 m 257
 144 0 l 257
 892 0 l 257
 892 63 l 257
 144 63 l 257
EndSplineSet
EndChar

StartChar: p
Encoding: 112 112 625
GlifName: p
Width: 1024
VWidth: 0
GlyphClass: 2
Flags: W
AnchorPoint: "base" 218 -475 basechar 0
AnchorPoint: "top" 216 1315 basechar 0
LayerCount: 2
Fore
SplineSet
191 1181 m 257
 191 -406 l 257
 251 -406 l 257
 251 1181 l 257
 191 1181 l 257
235 1023 m 257
 235 964 l 257
 821 964 l 257
 821 1023 l 257
 235 1023 l 257
237 61 m 257
 237 0 l 257
 833 0 l 257
 833 61 l 257
 237 61 l 257
773 1023 m 257
 773 0 l 257
 831 0 l 257
 831 1023 l 257
 773 1023 l 257
EndSplineSet
EndChar

StartChar: paragraph
Encoding: 182 182 626
GlifName: paragraph
Width: 1024
VWidth: 0
GlyphClass: 2
Flags: W
LayerCount: 2
Fore
SplineSet
90 1044 m 257
 90 985 l 257
 654 985 l 257
 654 1044 l 257
 90 1044 l 257
90 1550 m 257
 90 1000 l 257
 152 1000 l 257
 152 1550 l 257
 90 1550 l 257
90 1550 m 257
 90 1493 l 257
 910 1493 l 257
 910 1550 l 257
 90 1550 l 257
640 1550 m 257
 640 0 l 257
 704 0 l 257
 704 1550 l 257
 640 1550 l 257
872 1550 m 257
 872 0 l 257
 934 0 l 257
 934 1550 l 257
 872 1550 l 257
EndSplineSet
EndChar

StartChar: parenleft
Encoding: 40 40 627
GlifName: parenleft
Width: 1024
VWidth: 0
GlyphClass: 2
Flags: W
LayerCount: 2
Fore
SplineSet
316 1023 m 257
 316 179 l 257
 444 179 l 257
 444 1023 l 257
 316 1023 l 257
680 1636 m 257
 316 1023 l 257
 444 1023 l 257
 708 1633 l 257
 680 1636 l 257
316 179 m 257
 654 -309 l 257
 682 -309 l 257
 444 179 l 257
 316 179 l 257
EndSplineSet
EndChar

StartChar: parenright
Encoding: 41 41 628
GlifName: parenright
Width: 1024
VWidth: 0
GlyphClass: 2
Flags: W
LayerCount: 2
Fore
SplineSet
550 1023 m 257
 550 179 l 257
 678 179 l 257
 678 1023 l 257
 550 1023 l 257
346 1635 m 257
 550 1023 l 257
 678 1023 l 257
 384 1635 l 257
 346 1635 l 257
550 179 m 257
 346 -309 l 257
 374 -309 l 257
 678 179 l 257
 550 179 l 257
EndSplineSet
EndChar

StartChar: partialdiff
Encoding: 8706 8706 629
GlifName: partialdiff
Width: 1024
VWidth: 0
GlyphClass: 2
Flags: W
LayerCount: 2
Fore
SplineSet
240 1550 m 257
 844 0 l 257
 892 0 l 257
 296 1550 l 257
 240 1550 l 257
172 1023 m 257
 172 964 l 257
 496 964 l 257
 496 1023 l 257
 172 1023 l 257
132 1023 m 257
 132 0 l 257
 192 0 l 257
 192 1023 l 257
 132 1023 l 257
178 59 m 257
 178 0 l 257
 844 0 l 257
 844 59 l 257
 178 59 l 257
16 1539 m 257
 16 1474 l 257
 301 1484 l 257
 301 1549 l 257
 16 1539 l 257
EndSplineSet
EndChar

StartChar: percent
Encoding: 37 37 631
GlifName: percent
Width: 1024
VWidth: 0
GlyphClass: 2
Flags: W
LayerCount: 2
Fore
SplineSet
122 444 m 257
 151 417 l 257
 898 775 l 257
 879 801 l 257
 122 444 l 257
228 1148 m 257
 228 803 l 257
 259 803 l 257
 259 1148 l 257
 228 1148 l 257
228 1152 m 257
 228 1126 l 257
 575 1126 l 257
 575 1152 l 257
 228 1152 l 257
228 826 m 257
 228 789 l 257
 572 789 l 257
 572 826 l 257
 228 826 l 257
539 1152 m 257
 539 791 l 257
 575 791 l 257
 575 1152 l 257
 539 1152 l 257
555 436 m 257
 555 94 l 257
 598 94 l 257
 598 436 l 257
 555 436 l 257
555 440 m 257
 555 397 l 257
 902 397 l 257
 902 440 l 257
 555 440 l 257
555 109 m 257
 555 77 l 257
 899 77 l 257
 899 109 l 257
 555 109 l 257
868 440 m 257
 868 79 l 257
 902 79 l 257
 902 440 l 257
 868 440 l 257
EndSplineSet
EndChar

StartChar: period
Encoding: 46 46 632
GlifName: period
Width: 1024
VWidth: 0
GlyphClass: 2
Flags: W
LayerCount: 2
Fore
SplineSet
440 113 m 257
 440 0 l 257
 584 0 l 257
 584 113 l 257
 440 113 l 257
EndSplineSet
EndChar

StartChar: periodcentered
Encoding: 183 183 633
GlifName: periodcentered
Width: 1024
VWidth: 0
GlyphClass: 2
Flags: W
LayerCount: 2
Fore
SplineSet
464 1056 m 257
 464 955 l 257
 560 955 l 257
 560 1056 l 257
 464 1056 l 257
EndSplineSet
EndChar

StartChar: perthousand
Encoding: 8240 8240 635
GlifName: perthousand
Width: 1024
VWidth: 0
GlyphClass: 2
Flags: W
LayerCount: 2
Fore
SplineSet
662 436 m 257
 662 110 l 257
 706 110 l 257
 706 436 l 257
 662 436 l 257
662 440 m 257
 662 386 l 257
 1008 386 l 257
 1008 440 l 257
 662 440 l 257
662 125 m 257
 662 77 l 257
 1006 77 l 257
 1006 125 l 257
 662 125 l 257
960 440 m 257
 960 79 l 257
 1008 79 l 257
 1008 440 l 257
 960 440 l 257
16 522 m 257
 58 463 l 257
 882 802 l 257
 838 860 l 257
 16 522 l 257
156 1148 m 257
 156 822 l 257
 200 822 l 257
 200 1148 l 257
 156 1148 l 257
156 1152 m 257
 156 1092 l 257
 502 1092 l 257
 502 1152 l 257
 156 1152 l 257
156 837 m 257
 156 789 l 257
 500 789 l 257
 500 837 l 257
 156 837 l 257
456 1152 m 257
 456 791 l 257
 502 791 l 257
 502 1152 l 257
 456 1152 l 257
260 436 m 257
 260 110 l 257
 306 110 l 257
 306 436 l 257
 260 436 l 257
260 440 m 257
 260 386 l 257
 608 386 l 257
 608 440 l 257
 260 440 l 257
260 125 m 257
 260 77 l 257
 604 77 l 257
 604 125 l 257
 260 125 l 257
560 440 m 257
 560 79 l 257
 608 79 l 257
 608 440 l 257
 560 440 l 257
EndSplineSet
EndChar

StartChar: peseta
Encoding: 8359 8359 636
GlifName: peseta
Width: 1024
VWidth: 0
GlyphClass: 2
Flags: W
LayerCount: 2
Fore
SplineSet
220 1550 m 257
 220 0 l 257
 271 0 l 257
 271 1550 l 257
 220 1550 l 257
250 1550 m 257
 250 1494 l 257
 492 1494 l 257
 492 1550 l 257
 250 1550 l 257
445 1550 m 257
 445 881 l 257
 499 881 l 257
 499 1550 l 257
 445 1550 l 257
244 934 m 257
 244 868 l 257
 498 868 l 257
 498 934 l 257
 244 934 l 257
596 1547 m 257
 596 0 l 257
 643 0 l 257
 643 1547 l 257
 596 1547 l 257
599 68 m 257
 599 0 l 257
 728 0 l 257
 728 68 l 257
 599 68 l 257
518 977 m 257
 518 915 l 257
 740 915 l 257
 740 977 l 257
 518 977 l 257
778 609 m 257
 778 563 l 257
 933 563 l 257
 933 609 l 257
 778 609 l 257
778 609 m 257
 778 438 l 257
 829 438 l 257
 829 609 l 257
 778 609 l 257
779 61 m 257
 779 0 l 257
 932 0 l 257
 932 61 l 257
 779 61 l 257
881 173 m 257
 881 5 l 257
 932 5 l 257
 932 173 l 257
 881 173 l 257
779 438 m 257
 881 173 l 257
 932 173 l 257
 829 438 l 257
 779 438 l 257
EndSplineSet
EndChar

StartChar: phi
Encoding: 966 966 637
GlifName: phi
Width: 1024
VWidth: 0
GlyphClass: 2
Flags: W
LayerCount: 2
Fore
SplineSet
104 1023 m 257
 104 0 l 257
 164 0 l 257
 164 1023 l 257
 104 1023 l 257
861 1023 m 257
 861 0 l 257
 921 0 l 257
 921 1023 l 257
 861 1023 l 257
115 1023 m 257
 115 963 l 257
 910 963 l 257
 910 1023 l 257
 115 1023 l 257
119 60 m 257
 119 0 l 257
 900 0 l 257
 900 60 l 257
 119 60 l 257
483 1202 m 257
 483 -413 l 257
 543 -413 l 257
 543 1202 l 257
 483 1202 l 257
EndSplineSet
EndChar

StartChar: phi1
Encoding: 981 981 638
GlifName: phiS_ymbol
Width: 1024
VWidth: 0
GlyphClass: 2
Flags: W
LayerCount: 2
Fore
SplineSet
71 1110 m 257
 71 25 l 257
 131 25 l 257
 131 1110 l 257
 71 1110 l 257
71 62 m 257
 71 1 l 257
 957 1 l 257
 957 62 l 257
 71 62 l 257
915 1098 m 257
 915 0 l 257
 975 0 l 257
 975 1098 l 257
 915 1098 l 257
468 1098 m 257
 473 1038 l 257
 975 1038 l 257
 975 1098 l 257
 468 1098 l 257
451 1098 m 257
 451 -503 l 257
 512 -503 l 257
 512 1098 l 257
 451 1098 l 257
EndSplineSet
EndChar

StartChar: pi
Encoding: 960 960 640
GlifName: pi
Width: 1024
VWidth: 0
GlyphClass: 2
Flags: W
LayerCount: 2
Fore
SplineSet
200 990 m 257
 188 0 l 257
 248 0 l 257
 260 990 l 257
 200 990 l 257
740 976 m 257
 728 0 l 257
 788 0 l 257
 800 976 l 257
 740 976 l 257
80 1023 m 257
 77 963 l 257
 939 963 l 257
 942 1023 l 257
 80 1023 l 257
EndSplineSet
EndChar

StartChar: plus
Encoding: 43 43 641
GlifName: plus
Width: 1024
VWidth: 0
GlyphClass: 2
Flags: W
LayerCount: 2
Fore
SplineSet
434 1221 m 257
 434 165 l 257
 544 165 l 257
 544 1221 l 257
 434 1221 l 257
61 796 m 257
 61 693 l 257
 963 693 l 257
 963 796 l 257
 61 796 l 257
EndSplineSet
EndChar

StartChar: plusminus
Encoding: 177 177 642
GlifName: plusminus
Width: 1024
VWidth: 0
GlyphClass: 2
Flags: W
LayerCount: 2
Fore
SplineSet
99 110 m 257
 99 48 l 257
 925 48 l 257
 925 110 l 257
 99 110 l 257
466 1221 m 257
 466 228 l 257
 527 228 l 257
 527 1221 l 257
 466 1221 l 257
61 744 m 257
 61 686 l 257
 963 686 l 257
 963 744 l 257
 61 744 l 257
EndSplineSet
EndChar

StartChar: product
Encoding: 8719 8719 644
GlifName: product
Width: 1024
VWidth: 0
GlyphClass: 2
Flags: W
LayerCount: 2
Fore
SplineSet
110 1537 m 257
 110 0 l 257
 170 0 l 257
 170 1537 l 257
 110 1537 l 257
849 1535 m 257
 849 -2 l 257
 910 0 l 257
 910 1537 l 257
 849 1535 l 257
33 1537 m 257
 33 1477 l 257
 1003 1477 l 257
 1003 1537 l 257
 33 1537 l 257
EndSplineSet
EndChar

StartChar: psi
Encoding: 968 968 645
GlifName: psi
Width: 1024
VWidth: 0
GlyphClass: 2
Flags: W
LayerCount: 2
Fore
SplineSet
497 1015 m 257
 481 -129 l 257
 541 -129 l 257
 557 1015 l 257
 497 1015 l 257
179 1020 m 257
 170 278 l 257
 230 278 l 257
 239 1020 l 257
 179 1020 l 257
823 1020 m 257
 814 278 l 257
 874 278 l 257
 883 1020 l 257
 823 1020 l 257
223 338 m 257
 221 278 l 257
 824 278 l 257
 826 338 l 257
 223 338 l 257
EndSplineSet
EndChar

StartChar: q
Encoding: 113 113 649
GlifName: q
Width: 1024
VWidth: 0
GlyphClass: 2
Flags: W
AnchorPoint: "top" 738 1300 basechar 0
AnchorPoint: "base" 758 -496 basechar 0
LayerCount: 2
Fore
SplineSet
750 1188 m 257
 750 -406 l 257
 810 -406 l 257
 810 1188 l 257
 750 1188 l 257
146 1023 m 257
 146 961 l 257
 794 961 l 257
 794 1023 l 257
 146 1023 l 257
152 57 m 257
 152 0 l 257
 768 0 l 257
 768 57 l 257
 152 57 l 257
138 1023 m 257
 138 0 l 257
 196 0 l 257
 196 1023 l 257
 138 1023 l 257
754 -344 m 257
 754 -406 l 257
 886 -406 l 257
 886 -344 l 257
 754 -344 l 257
EndSplineSet
EndChar

StartChar: question
Encoding: 63 63 650
GlifName: question
Width: 1024
VWidth: 0
GlyphClass: 2
Flags: W
LayerCount: 2
Fore
SplineSet
368 134 m 257
 368 0 l 257
 480 0 l 257
 480 134 l 257
 368 134 l 257
192 1519 m 257
 192 1426 l 257
 828 1426 l 257
 828 1519 l 257
 192 1519 l 257
746 1514 m 257
 746 966 l 257
 832 966 l 257
 832 1514 l 257
 746 1514 l 257
368 1015 m 257
 368 948 l 257
 832 948 l 257
 832 1015 l 257
 368 1015 l 257
368 1011 m 257
 368 392 l 257
 464 392 l 257
 464 1011 l 257
 368 1011 l 257
EndSplineSet
EndChar

StartChar: questiondown
Encoding: 191 191 651
GlifName: questiondown
Width: 1024
VWidth: 0
GlyphClass: 2
Flags: W
LayerCount: 2
Fore
SplineSet
656 1273 m 257
 656 1519 l 257
 598 1519 l 257
 598 1272 l 257
 656 1273 l 257
832 0 m 257
 832 61 l 257
 196 61 l 257
 196 0 l 257
 832 0 l 257
252 5 m 257
 252 553 l 257
 192 553 l 257
 192 5 l 257
 252 5 l 257
656 504 m 257
 656 566 l 257
 192 566 l 257
 192 504 l 257
 656 504 l 257
656 508 m 257
 656 1127 l 257
 598 1127 l 257
 598 508 l 257
 656 508 l 257
EndSplineSet
EndChar

StartChar: quotedbl
Encoding: 34 34 653
GlifName: quotedbl
Width: 1024
VWidth: 0
GlyphClass: 2
Flags: W
LayerCount: 2
Fore
SplineSet
280 1326 m 257
 346 1326 l 257
 346 1574 l 257
 280 1574 l 257
 280 1326 l 257
684 1326 m 257
 744 1326 l 257
 744 1574 l 257
 684 1574 l 257
 684 1326 l 257
EndSplineSet
EndChar

StartChar: quotedblbase
Encoding: 8222 8222 654
GlifName: quotedblbase
Width: 1024
VWidth: 0
GlyphClass: 2
Flags: W
LayerCount: 2
Fore
SplineSet
453 126 m 257
 453 8 l 257
 562 8 l 257
 562 126 l 257
 453 126 l 257
453 8 m 257
 383 -118 l 257
 437 -129 l 257
 562 8 l 257
 453 8 l 257
678 126 m 257
 678 8 l 257
 787 8 l 257
 787 126 l 257
 678 126 l 257
678 8 m 257
 608 -118 l 257
 662 -129 l 257
 787 8 l 257
 678 8 l 257
EndSplineSet
EndChar

StartChar: quotedblleft
Encoding: 8220 8220 655
GlifName: quotedblleft
Width: 1024
VWidth: 0
GlyphClass: 2
Flags: W
LayerCount: 2
Fore
SplineSet
485 1415 m 257
 485 1529 l 257
 361 1529 l 257
 361 1415 l 257
 485 1415 l 257
436 1466 m 257
 495 1606 l 257
 423 1636 l 257
 362 1531 l 257
 436 1466 l 257
653 1415 m 257
 653 1529 l 257
 529 1529 l 257
 529 1415 l 257
 653 1415 l 257
604 1466 m 257
 663 1606 l 257
 591 1636 l 257
 530 1531 l 257
 604 1466 l 257
EndSplineSet
EndChar

StartChar: quotedblright
Encoding: 8221 8221 656
GlifName: quotedblright
Width: 1024
VWidth: 0
GlyphClass: 2
Flags: W
LayerCount: 2
Fore
SplineSet
534 1634 m 257
 534 1520 l 257
 658 1520 l 257
 658 1634 l 257
 534 1634 l 257
584 1583 m 257
 525 1443 l 257
 596 1413 l 257
 657 1518 l 257
 584 1583 l 257
375 1634 m 257
 375 1520 l 257
 499 1520 l 257
 499 1634 l 257
 375 1634 l 257
425 1583 m 257
 366 1443 l 257
 437 1413 l 257
 498 1518 l 257
 425 1583 l 257
EndSplineSet
EndChar

StartChar: quoteleft
Encoding: 8216 8216 657
GlifName: quoteleft
Width: 1024
VWidth: 0
GlyphClass: 2
Flags: W
LayerCount: 2
Fore
SplineSet
519 1068 m 257
 519 1233 l 257
 387 1233 l 257
 387 1072 l 257
 519 1068 l 257
484 1221 m 257
 550 1430 l 257
 480 1440 l 257
 394 1209 l 257
 484 1221 l 257
EndSplineSet
EndChar

StartChar: quoteright
Encoding: 8217 8217 658
GlifName: quoteright
Width: 1024
VWidth: 0
GlyphClass: 2
Flags: W
LayerCount: 2
Fore
SplineSet
530 1635 m 257
 530 1523 l 257
 646 1523 l 257
 646 1635 l 257
 530 1635 l 257
589 1607 m 257
 544 1394 l 257
 598 1349 l 257
 646 1523 l 257
 589 1607 l 257
EndSplineSet
EndChar

StartChar: quotesinglbase
Encoding: 8218 8218 659
GlifName: quotesinglbase
Width: 1024
VWidth: 0
GlyphClass: 2
Flags: W
LayerCount: 2
Fore
SplineSet
537 126 m 257
 537 8 l 257
 646 8 l 257
 646 126 l 257
 537 126 l 257
537 8 m 257
 467 -118 l 257
 521 -129 l 257
 646 8 l 257
 537 8 l 257
EndSplineSet
EndChar

StartChar: quotesingle
Encoding: 39 39 660
GlifName: quotesingle
Width: 1024
VWidth: 0
GlyphClass: 2
Flags: W
LayerCount: 2
Fore
SplineSet
480 1496 m 257
 480 1317 l 257
 544 1317 l 257
 544 1496 l 257
 480 1496 l 257
EndSplineSet
EndChar

StartChar: r
Encoding: 114 114 661
GlifName: r
Width: 1024
VWidth: 0
GlyphClass: 2
Flags: W
AnchorPoint: "top" 587 1112 basechar 0
AnchorPoint: "base" 400 -70 basechar 0
LayerCount: 2
Fore
SplineSet
146 1023 m 257
 146 961 l 257
 878 961 l 257
 878 1023 l 257
 146 1023 l 257
360 989 m 257
 360 0 l 257
 420 0 l 257
 420 989 l 257
 360 989 l 257
818 976 m 257
 818 650 l 257
 878 650 l 257
 878 976 l 257
 818 976 l 257
EndSplineSet
EndChar

StartChar: radical
Encoding: 8730 8730 663
GlifName: radical
Width: 1024
VWidth: 0
GlyphClass: 2
Flags: W
LayerCount: 2
Fore
SplineSet
818 1390 m 257
 622 117 l 257
 688 117 l 257
 884 1390 l 257
 818 1390 l 257
184 620 m 257
 110 396 l 257
 164 391 l 257
 256 611 l 257
 184 620 l 257
185 620 m 257
 622 117 l 257
 688 117 l 257
 256 611 l 257
 185 620 l 257
EndSplineSet
EndChar

StartChar: uni0264
Encoding: 612 612 664
GlifName: ramshorn
Width: 1024
VWidth: 0
GlyphClass: 2
Flags: W
AnchorPoint: "top" 498 1120 basechar 0
LayerCount: 2
Fore
SplineSet
221 935 m 257
 696 202 l 257
 756 202 l 257
 281 935 l 257
 221 935 l 257
730 965 m 257
 218 202 l 257
 278 202 l 257
 791 965 l 257
 730 965 l 257
219 143 m 257
 757 142 l 257
 757 202 l 257
 219 202 l 257
 219 143 l 257
EndSplineSet
EndChar

StartChar: registered
Encoding: 174 174 666
GlifName: registered
Width: 1024
VWidth: 0
GlyphClass: 2
Flags: W
LayerCount: 2
Fore
SplineSet
397 1032 m 257
 397 501 l 257
 434 501 l 257
 434 1032 l 257
 397 1032 l 257
422 1032 m 257
 422 994 l 257
 651 994 l 257
 651 1032 l 257
 422 1032 l 257
622 1032 m 257
 622 802 l 257
 660 802 l 257
 660 1032 l 257
 622 1032 l 257
418 848 m 257
 418 801 l 257
 656 801 l 257
 656 848 l 257
 418 848 l 257
465 809 m 257
 664 500 l 257
 707 500 l 257
 500 809 l 257
 465 809 l 257
41 1540 m 257
 41 0 l 257
 103 0 l 257
 103 1540 l 257
 41 1540 l 257
921 1537 m 257
 921 0 l 257
 983 0 l 257
 983 1537 l 257
 921 1537 l 257
80 1538 m 257
 80 1478 l 257
 952 1478 l 257
 952 1538 l 257
 80 1538 l 257
76 61 m 257
 76 0 l 257
 968 0 l 257
 968 61 l 257
 76 61 l 257
EndSplineSet
EndChar

StartChar: uni027F
Encoding: 639 639 667
GlifName: rfishhookreversed
Width: 1024
VWidth: 0
GlyphClass: 2
Flags: W
AnchorPoint: "top" 587 1112 basechar 0
AnchorPoint: "base" 400 -70 basechar 0
LayerCount: 2
Fore
SplineSet
146 1023 m 257
 146 961 l 257
 736 961 l 257
 736 1023 l 257
 146 1023 l 257
676 989 m 257
 676 -492 l 257
 736 -492 l 257
 736 989 l 257
 676 989 l 257
EndSplineSet
EndChar

StartChar: rho
Encoding: 961 961 668
GlifName: rho
Width: 1024
VWidth: 0
GlyphClass: 2
Flags: W
LayerCount: 2
Fore
SplineSet
173 1203 m 257
 173 -406 l 257
 233 -406 l 257
 233 1203 l 257
 173 1203 l 257
225 1203 m 257
 225 1139 l 257
 810 959 l 257
 810 1023 l 257
 225 1203 l 257
215 62 m 257
 215 0 l 257
 811 147 l 257
 811 209 l 257
 215 62 l 257
751 1022 m 257
 751 157 l 257
 811 157 l 257
 811 1022 l 257
 751 1022 l 257
EndSplineSet
EndChar

StartChar: arrowright
Encoding: 8594 8594 669
GlifName: rightA_rrow
Width: 1024
VWidth: 0
GlyphClass: 2
Flags: W
LayerCount: 2
Fore
SplineSet
853 727 m 257
 853 787 l 257
 88 787 l 257
 88 727 l 257
 853 727 l 257
696 426 m 257
 920 758 l 257
 845 758 l 257
 621 426 l 257
 696 426 l 257
920 758 m 257
 677 1091 l 257
 602 1091 l 257
 844 758 l 257
 920 758 l 257
EndSplineSet
EndChar

StartChar: uni25B8
Encoding: 9656 9656 670
GlifName: rightB_lackS_mallT_riangle
Width: 1024
VWidth: 0
GlyphClass: 2
Flags: W
LayerCount: 2
Fore
SplineSet
719 675 m 257
 306 915 l 257
 303 431 l 257
 719 675 l 257
EndSplineSet
EndChar

StartChar: uni25B6
Encoding: 9654 9654 671
GlifName: rightB_lackT_riangle
Width: 1024
VWidth: 0
GlyphClass: 2
Flags: W
LayerCount: 2
Fore
SplineSet
857 677 m 257
 169 1077 l 257
 165 269 l 257
 857 677 l 257
EndSplineSet
EndChar

StartChar: uni25B9
Encoding: 9657 9657 672
GlifName: rightW_hiteS_mallT_riangle
Width: 1024
VWidth: 0
GlyphClass: 2
Flags: W
LayerCount: 2
Fore
SplineSet
719 675 m 257
 306 915 l 257
 303 431 l 257
 719 675 l 257
661 675 m 257
 329 479 l 257
 330 867 l 257
 661 675 l 257
EndSplineSet
EndChar

StartChar: uni25B7
Encoding: 9655 9655 673
GlifName: rightW_hiteT_riangle
Width: 1024
VWidth: 0
GlyphClass: 2
Flags: W
LayerCount: 2
Fore
SplineSet
857 677 m 257
 169 1077 l 257
 165 269 l 257
 857 677 l 257
761 676 m 257
 207 350 l 257
 210 996 l 257
 761 676 l 257
EndSplineSet
EndChar

StartChar: ring
Encoding: 730 730 674
GlifName: ring
Width: 1024
VWidth: 0
GlyphClass: 2
Flags: W
LayerCount: 2
Fore
SplineSet
418 1302 m 257
 708 1302 l 257
 708 1049 l 257
 418 1049 l 257
 418 1302 l 257
384 1331 m 257
 384 1023 l 257
 744 1023 l 257
 744 1331 l 257
 384 1331 l 257
EndSplineSet
EndChar

StartChar: uni0325
Encoding: 805 805 675
GlifName: ringbelowcomb
Width: 0
VWidth: 0
GlyphClass: 4
Flags: W
AnchorPoint: "base" 1 -28 mark 0
LayerCount: 2
Fore
SplineSet
-69 -158 m 257
 221 -158 l 257
 221 -411 l 257
 -69 -411 l 257
 -69 -158 l 257
-103 -129 m 257
 -103 -438 l 257
 257 -438 l 257
 257 -129 l 257
 -103 -129 l 257
EndSplineSet
EndChar

StartChar: s
Encoding: 115 115 682
GlifName: s
Width: 1024
VWidth: 0
GlyphClass: 2
Flags: W
AnchorPoint: "top" 472 1134 basechar 0
AnchorPoint: "base" 512 -66 basechar 0
LayerCount: 2
Fore
SplineSet
208 1023 m 257
 208 964 l 257
 816 964 l 257
 816 1023 l 257
 208 1023 l 257
208 1023 m 257
 208 736 l 257
 268 736 l 257
 268 1023 l 257
 208 1023 l 257
208 59 m 257
 208 0 l 257
 814 0 l 257
 814 59 l 257
 208 59 l 257
752 299 m 257
 752 12 l 257
 814 12 l 257
 814 299 l 257
 752 299 l 257
208 736 m 257
 752 299 l 257
 814 299 l 257
 268 736 l 257
 208 736 l 257
EndSplineSet
EndChar

StartChar: uniA78C
Encoding: 42892 42892 684
GlifName: saltillo
Width: 1024
VWidth: 0
GlyphClass: 2
Flags: W
LayerCount: 2
Fore
SplineSet
414 1458 m 257
 498 813 l 257
 553 808 l 257
 637 1458 l 257
 414 1458 l 257
EndSplineSet
EndChar

StartChar: section
Encoding: 167 167 689
GlifName: section
Width: 1024
VWidth: 0
GlyphClass: 2
Flags: W
LayerCount: 2
Fore
SplineSet
126 1237 m 257
 126 1178 l 257
 724 1178 l 257
 724 1237 l 257
 126 1237 l 257
126 1237 m 257
 126 605 l 257
 189 605 l 257
 189 1237 l 257
 126 1237 l 257
163 -200 m 257
 163 -260 l 257
 871 -260 l 257
 871 -200 l 257
 163 -200 l 257
838 -259 m 257
 898 -259 l 257
 898 95 l 257
 838 95 l 257
 838 -259 l 257
126 606 m 257
 837 88 l 257
 898 88 l 257
 184 606 l 257
 126 606 l 257
126 1626 m 257
 126 1566 l 257
 724 1566 l 257
 724 1626 l 257
 126 1626 l 257
126 1629 m 257
 126 1237 l 257
 189 1237 l 257
 189 1629 l 257
 126 1629 l 257
154 88 m 257
 154 39 l 257
 862 39 l 257
 862 88 l 257
 154 88 l 257
837 88 m 257
 898 88 l 257
 898 442 l 257
 837 442 l 257
 837 88 l 257
126 1237 m 257
 838 442 l 257
 898 442 l 257
 189 1237 l 257
 126 1237 l 257
EndSplineSet
EndChar

StartChar: semicolon
Encoding: 59 59 690
GlifName: semicolon
Width: 1024
VWidth: 0
GlyphClass: 2
Flags: W
LayerCount: 2
Fore
SplineSet
444 164 m 257
 444 7 l 257
 580 7 l 257
 580 164 l 257
 444 164 l 257
528 135 m 257
 486 -99 l 257
 536 -148 l 257
 578 26 l 257
 528 135 l 257
450 775 m 257
 450 618 l 257
 586 618 l 257
 586 775 l 257
 450 775 l 257
EndSplineSet
EndChar

StartChar: seven
Encoding: 55 55 692
GlifName: seven
Width: 1024
VWidth: 0
GlyphClass: 2
Flags: W
LayerCount: 2
Fore
SplineSet
54 1495 m 257
 905 1495 l 257
 905 0 l 257
 967 0 l 257
 967 1553 l 257
 54 1553 l 257
 54 1495 l 257
EndSplineSet
Substitution2: "supsSuperscriptinLatinlookup16 subtable" uni2077
EndChar

StartChar: uni0448
Encoding: 1096 1096 694
GlifName: sha-cy
Width: 1024
VWidth: 0
Flags: W
LayerCount: 2
Fore
SplineSet
134 1024 m 257
 134 3 l 257
 194 3 l 257
 194 1024 l 257
 134 1024 l 257
845 1024 m 257
 845 0 l 257
 905 0 l 257
 905 1024 l 257
 845 1024 l 257
143 60 m 257
 143 0 l 257
 905 0 l 257
 905 60 l 257
 143 60 l 257
490 1024 m 257
 490 5 l 257
 550 5 l 257
 550 1024 l 257
 490 1024 l 257
EndSplineSet
EndChar

StartChar: uni0449
Encoding: 1097 1097 695
GlifName: shcha-cy
Width: 1024
VWidth: 0
Flags: W
LayerCount: 2
Fore
SplineSet
37 1024 m 257
 37 3 l 257
 97 3 l 257
 97 1024 l 257
 37 1024 l 257
748 1024 m 257
 748 0 l 257
 808 0 l 257
 808 1024 l 257
 748 1024 l 257
46 60 m 257
 46 0 l 257
 808 0 l 257
 808 60 l 257
 46 60 l 257
804 67 m 257
 804 -401 l 257
 864 -401 l 257
 864 67 l 257
 804 67 l 257
393 1024 m 257
 393 5 l 257
 453 5 l 257
 453 1024 l 257
 393 1024 l 257
EndSplineSet
EndChar

StartChar: uni20AA
Encoding: 8362 8362 696
GlifName: sheqel
Width: 1024
VWidth: 0
GlyphClass: 2
Flags: W
LayerCount: 2
Fore
SplineSet
117 1534 m 257
 117 4 l 257
 185 4 l 257
 185 1534 l 257
 117 1534 l 257
117 1538 m 257
 117 1468 l 257
 588 1468 l 257
 588 1538 l 257
 117 1538 l 257
560 1538 m 257
 677 1278 l 257
 768 1277 l 257
 656 1538 l 257
 560 1538 l 257
678 1278 m 257
 682 673 l 257
 768 673 l 257
 768 1277 l 257
 678 1278 l 257
968 8 m 257
 968 1538 l 257
 889 1538 l 257
 889 8 l 257
 968 8 l 257
968 4 m 257
 968 66 l 257
 497 66 l 257
 497 4 l 257
 968 4 l 257
520 4 m 257
 403 264 l 257
 317 265 l 257
 429 4 l 257
 520 4 l 257
403 264 m 257
 399 869 l 257
 317 869 l 257
 317 265 l 257
 403 264 l 257
EndSplineSet
EndChar

StartChar: sigma
Encoding: 963 963 698
GlifName: sigma
Width: 1024
VWidth: 0
GlyphClass: 2
Flags: W
LayerCount: 2
Fore
SplineSet
51 1023 m 257
 38 0 l 257
 98 0 l 257
 111 1023 l 257
 51 1023 l 257
750 1023 m 257
 737 0 l 257
 797 0 l 257
 810 1023 l 257
 750 1023 l 257
66 1023 m 257
 63 963 l 257
 979 963 l 257
 982 1023 l 257
 66 1023 l 257
59 60 m 257
 57 0 l 257
 772 0 l 257
 774 60 l 257
 59 60 l 257
EndSplineSet
EndChar

StartChar: sigma1
Encoding: 962 962 699
GlifName: sigmafinal
Width: 1024
VWidth: 0
GlyphClass: 2
Flags: W
LayerCount: 2
Fore
SplineSet
164 1023 m 257
 164 963 l 257
 860 963 l 257
 860 1023 l 257
 164 1023 l 257
166 984 m 257
 166 51 l 257
 226 53 l 257
 226 986 l 257
 166 984 l 257
203 113 m 257
 203 53 l 257
 857 51 l 257
 857 111 l 257
 203 113 l 257
463 -264 m 257
 463 -324 l 257
 857 -324 l 257
 857 -264 l 257
 463 -264 l 257
797 100 m 257
 797 -284 l 257
 857 -284 l 257
 857 100 l 257
 797 100 l 257
EndSplineSet
EndChar

StartChar: six
Encoding: 54 54 700
GlifName: six
Width: 1024
VWidth: 0
GlyphClass: 2
Flags: W
LayerCount: 2
Fore
SplineSet
41 1550 m 257
 41 201 l 257
 41 0 l 257
 980 0 l 257
 980 819 l 257
 103 819 l 257
 103 1488 l 257
 985 1488 l 257
 985 1550 l 257
 41 1550 l 257
918 759 m 257
 918 63 l 257
 109 63 l 257
 109 759 l 257
 918 759 l 257
EndSplineSet
Substitution2: "supsSuperscriptinLatinlookup16 subtable" uni2076
EndChar

StartChar: slash
Encoding: 47 47 701
GlifName: slash
Width: 1024
VWidth: 0
GlyphClass: 2
Flags: W
LayerCount: 2
Fore
SplineSet
754 1480 m 257
 167 10 l 257
 270 10 l 257
 857 1480 l 257
 754 1480 l 257
EndSplineSet
EndChar

StartChar: uni044C
Encoding: 1100 1100 703
GlifName: softsign-cy
Width: 1024
VWidth: 0
Flags: W
AnchorPoint: "base" 498 -36 basechar 0
AnchorPoint: "top" 220 1646 basechar 0
LayerCount: 2
Fore
SplineSet
47 1016 m 257
 47 0 l 257
 107 0 l 257
 107 1016 l 257
 47 1016 l 257
90 641 m 257
 90 580 l 257
 884 580 l 257
 884 641 l 257
 90 641 l 257
871 641 m 257
 871 0 l 257
 931 0 l 257
 931 641 l 257
 871 641 l 257
82 60 m 257
 82 0 l 257
 909 0 l 257
 909 60 l 257
 82 60 l 257
EndSplineSet
EndChar

StartChar: uni2198
Encoding: 8600 8600 704
GlifName: southE_astA_rrow
Width: 1024
VWidth: 0
GlyphClass: 2
Flags: W
LayerCount: 2
Fore
SplineSet
730 491 m 257
 772 533 l 257
 231 1074 l 257
 189 1032 l 257
 730 491 l 257
406 389 m 257
 799 465 l 257
 746 519 l 257
 353 442 l 257
 406 389 l 257
799 465 m 257
 863 873 l 257
 810 926 l 257
 746 519 l 257
 799 465 l 257
EndSplineSet
EndChar

StartChar: uni2199
Encoding: 8601 8601 705
GlifName: southW_estA_rrow
Width: 1024
VWidth: 0
GlyphClass: 2
Flags: W
LayerCount: 2
Fore
SplineSet
236 535 m 257
 279 493 l 257
 820 1034 l 257
 777 1076 l 257
 236 535 l 257
135 859 m 257
 211 466 l 257
 264 519 l 257
 188 912 l 257
 135 859 l 257
211 466 m 257
 618 403 l 257
 671 456 l 257
 265 520 l 257
 211 466 l 257
EndSplineSet
EndChar

StartChar: sterling
Encoding: 163 163 707
GlifName: sterling
Width: 1024
VWidth: 0
GlyphClass: 2
Flags: W
LayerCount: 2
Fore
SplineSet
435 1543 m 257
 435 1482 l 257
 624 1482 l 257
 624 1543 l 257
 435 1543 l 257
97 770 m 257
 97 705 l 257
 823 705 l 257
 823 770 l 257
 97 770 l 257
411 1542 m 257
 411 0 l 257
 487 0 l 257
 487 1542 l 257
 411 1542 l 257
201 72 m 257
 201 0 l 257
 927 0 l 257
 927 72 l 257
 201 72 l 257
EndSplineSet
EndChar

StartChar: summation
Encoding: 8721 8721 708
GlifName: summation
Width: 1024
VWidth: 0
GlyphClass: 2
Flags: W
LayerCount: 2
Fore
SplineSet
704 830 m 257
 110 -34 l 257
 110 -112 l 257
 704 746 l 257
 704 830 l 257
706 823 m 257
 128 1539 l 257
 129 1478 l 257
 706 743 l 257
 706 823 l 257
850 1477 m 257
 850 1537 l 257
 128 1537 l 257
 128 1477 l 257
 850 1477 l 257
788 -98 m 257
 788 -38 l 257
 125 -38 l 257
 125 -98 l 257
 788 -98 l 257
EndSplineSet
EndChar

StartChar: t
Encoding: 116 116 709
GlifName: t
Width: 1024
VWidth: 0
GlyphClass: 2
Flags: W
AnchorPoint: "top" 500 1642 basechar 0
AnchorPoint: "base" 500 -82 basechar 0
LayerCount: 2
Fore
SplineSet
464 1529 m 257
 464 0 l 257
 524 0 l 257
 524 1529 l 257
 464 1529 l 257
476 60 m 257
 476 0 l 257
 868 0 l 257
 868 60 l 257
 476 60 l 257
156 1023 m 257
 156 965 l 257
 830 965 l 257
 830 1023 l 257
 156 1023 l 257
EndSplineSet
EndChar

StartChar: tcaron
Encoding: 357 357 712
GlifName: tcaron
Width: 1024
VWidth: 0
GlyphClass: 2
Flags: W
AnchorPoint: "base" 512 -78 basechar 0
LayerCount: 2
Fore
SplineSet
464 1529 m 257
 464 0 l 257
 524 0 l 257
 524 1529 l 257
 464 1529 l 257
476 60 m 257
 476 0 l 257
 868 0 l 257
 868 60 l 257
 476 60 l 257
156 1023 m 257
 156 965 l 257
 830 965 l 257
 830 1023 l 257
 156 1023 l 257
654 1496 m 257
 654 1317 l 257
 716 1317 l 257
 716 1496 l 257
 654 1496 l 257
EndSplineSet
EndChar

StartChar: uni0236
Encoding: 566 566 714
GlifName: tcurl
Width: 1024
VWidth: 0
GlyphClass: 2
Flags: W
AnchorPoint: "top" 500 1642 basechar 0
AnchorPoint: "base" 500 -82 basechar 0
LayerCount: 2
Fore
SplineSet
464 1529 m 257
 464 0 l 257
 524 0 l 257
 524 1529 l 257
 464 1529 l 257
476 60 m 257
 476 0 l 257
 868 0 l 257
 868 60 l 257
 476 60 l 257
156 1023 m 257
 156 965 l 257
 830 965 l 257
 830 1023 l 257
 156 1023 l 257
231 62 m 257
 231 4 l 257
 869 242 l 257
 869 300 l 257
 231 62 l 257
809 7 m 257
 869 7 l 257
 869 242 l 257
 809 242 l 257
 809 7 l 257
EndSplineSet
EndChar

StartChar: uni0442
Encoding: 1090 1090 715
GlifName: te-cy
Width: 1024
VWidth: 0
Flags: W
AnchorPoint: "top" 516 1638 basechar 0
AnchorPoint: "base" 492 -54 basechar 0
LayerCount: 2
Fore
SplineSet
120 1026 m 257
 120 967 l 257
 904 967 l 257
 904 1026 l 257
 120 1026 l 257
484 985 m 257
 484 12 l 257
 542 12 l 257
 542 985 l 257
 484 985 l 257
EndSplineSet
EndChar

StartChar: theta
Encoding: 952 952 717
GlifName: theta
Width: 1024
VWidth: 0
GlyphClass: 2
Flags: W
LayerCount: 2
Fore
SplineSet
143 838 m 257
 143 778 l 257
 889 771 l 257
 889 831 l 257
 143 838 l 257
153 1397 m 257
 492 1480 l 257
 870 1403 l 257
 870 194 l 257
 486 101 l 257
 153 194 l 257
 153 1397 l 257
93 1425 m 257
 93 163 l 257
 502 7 l 257
 930 163 l 257
 930 1431 l 257
 473 1559 l 257
 93 1425 l 257
EndSplineSet
EndChar

StartChar: uni01AD
Encoding: 429 429 718
GlifName: thook
Width: 1024
VWidth: 0
GlyphClass: 2
Flags: W
AnchorPoint: "top" 500 1642 basechar 0
AnchorPoint: "base" 500 -82 basechar 0
LayerCount: 2
Fore
SplineSet
464 1529 m 257
 464 0 l 257
 524 0 l 257
 524 1529 l 257
 464 1529 l 257
476 60 m 257
 476 0 l 257
 868 0 l 257
 868 60 l 257
 476 60 l 257
156 1023 m 257
 156 965 l 257
 830 965 l 257
 830 1023 l 257
 156 1023 l 257
882.603 1534.42 m 257
 463.634 1529.24 l 257
 464.375 1469.25 l 257
 881.343 1474.4 l 257
 882.603 1534.42 l 257
463.634 1529.24 m 257
 467.288 1233.27 l 257
 527.283 1234.01 l 257
 523.63 1529.99 l 257
 463.634 1529.24 l 257
EndSplineSet
EndChar

StartChar: thorn
Encoding: 254 254 719
GlifName: thorn
Width: 1024
VWidth: 0
GlyphClass: 2
Flags: W
AnchorPoint: "base" 265 -491 basechar 0
LayerCount: 2
Fore
SplineSet
142 1630 m 257
 142 -406 l 257
 200 -406 l 257
 200 1630 l 257
 142 1630 l 257
194 1012 m 257
 194 950 l 257
 882 950 l 257
 882 1012 l 257
 194 1012 l 257
180 63 m 257
 180 3 l 257
 882 3 l 257
 882 63 l 257
 180 63 l 257
822 991 m 257
 822 28 l 257
 882 28 l 257
 882 991 l 257
 822 991 l 257
EndSplineSet
EndChar

StartChar: three
Encoding: 51 51 720
GlifName: three
Width: 1024
VWidth: 0
GlyphClass: 2
Flags: W
LayerCount: 2
Fore
SplineSet
101 736 m 257
 903 736 l 257
 903 52 l 257
 59 52 l 257
 68 -8 l 257
 963 -8 l 257
 963 1550 l 257
 89 1550 l 257
 89 1493 l 257
 901 1493 l 257
 901 796 l 257
 101 796 l 257
 101 736 l 257
EndSplineSet
Substitution2: "supsSuperscriptinLatinlookup16 subtable" uni00B3
EndChar

StartChar: tilde
Encoding: 732 732 723
GlifName: tilde
Width: 1024
VWidth: 0
GlyphClass: 2
Flags: W
LayerCount: 2
Fore
SplineSet
418 279 m 257
 418 229 l 257
 768 158 l 257
 768 208 l 257
 418 279 l 257
178 223 m 257
 192 165 l 257
 418 229 l 257
 418 279 l 257
 178 223 l 257
768 208 m 257
 768 158 l 257
 950 309 l 257
 936 356 l 257
 768 208 l 257
EndSplineSet
EndChar

StartChar: tildecomb
Encoding: 771 771 725
GlifName: tildecomb
Width: 0
VWidth: 0
GlyphClass: 4
Flags: W
HStem: 1539 50
AnchorPoint: "top" -6 778 mark 0
LayerCount: 2
Fore
SplineSet
-168 903 m 257
 -168 853 l 257
 182 782 l 257
 182 832 l 257
 -168 903 l 257
-408 847 m 257
 -394 789 l 257
 -168 853 l 257
 -168 903 l 257
 -408 847 l 257
182 832 m 257
 182 782 l 257
 364 933 l 257
 350 980 l 257
 182 832 l 257
EndSplineSet
PickledDataWithLists: "(dp0
Vcom.fontlab.hintData
p1
(dp2
Vhhints
p3
(lp4
(dp5
Vposition
p6
I1539
sVwidth
p7
I50
sass."
EndChar

StartChar: tonos
Encoding: 900 900 727
GlifName: tonos
Width: 1024
VWidth: 0
GlyphClass: 2
Flags: W
AnchorPoint: "top" -1 785 mark 0
LayerCount: 2
Fore
SplineSet
507 1080 m 257
 377 826 l 257
 414 795 l 257
 545 1050 l 257
 507 1080 l 257
EndSplineSet
EndChar

StartChar: uni0288
Encoding: 648 648 729
GlifName: tretroflexhook
Width: 1024
VWidth: 0
GlyphClass: 2
Flags: W
AnchorPoint: "top" 500 1642 basechar 0
AnchorPoint: "base" 521 -487 basechar 0
LayerCount: 2
Fore
SplineSet
464 1529 m 257
 464 -423 l 257
 524 -423 l 257
 524 1529 l 257
 464 1529 l 257
476 -363 m 257
 476 -423 l 257
 868 -423 l 257
 868 -363 l 257
 476 -363 l 257
156 1023 m 257
 156 965 l 257
 830 965 l 257
 830 1023 l 257
 156 1023 l 257
EndSplineSet
EndChar

StartChar: uni0446
Encoding: 1094 1094 730
GlifName: tse-cy
Width: 1024
VWidth: 0
Flags: W
LayerCount: 2
Fore
SplineSet
37 1024 m 257
 37 3 l 257
 97 3 l 257
 97 1024 l 257
 37 1024 l 257
748 1029 m 257
 748 0 l 257
 808 0 l 257
 808 1029 l 257
 748 1029 l 257
46 60 m 257
 46 0 l 257
 808 0 l 257
 808 60 l 257
 46 60 l 257
804 67 m 257
 804 -401 l 257
 864 -401 l 257
 864 67 l 257
 804 67 l 257
EndSplineSet
EndChar

StartChar: uni045B
Encoding: 1115 1115 731
GlifName: tshe-cy
Width: 1024
VWidth: 0
Flags: W
LayerCount: 2
Fore
SplineSet
48 1365 m 257
 48 1305 l 257
 836 1305 l 257
 836 1365 l 257
 48 1365 l 257
303 1544 m 257
 303 -1 l 257
 363 -1 l 257
 363 1544 l 257
 303 1544 l 257
316 994 m 257
 316 934 l 257
 929 934 l 257
 929 994 l 257
 316 994 l 257
869 989 m 257
 869 0 l 257
 929 0 l 257
 929 989 l 257
 869 989 l 257
EndSplineSet
EndChar

StartChar: two
Encoding: 50 50 733
GlifName: two
Width: 1024
VWidth: 0
GlyphClass: 2
Flags: W
LayerCount: 2
Fore
SplineSet
109 1484 m 257
 843 1484 l 257
 843 908 l 257
 116 908 l 257
 116 0 l 257
 889 0 l 257
 889 59 l 257
 176 59 l 257
 176 849 l 257
 903 849 l 257
 903 1544 l 257
 109 1544 l 257
 109 1484 l 257
EndSplineSet
Substitution2: "supsSuperscriptinLatinlookup16 subtable" uni00B2
EndChar

StartChar: u
Encoding: 117 117 735
GlifName: u
Width: 1024
VWidth: 0
GlyphClass: 2
Flags: W
AnchorPoint: "top" 440 1146 basechar 0
AnchorPoint: "base" 724 -50 basechar 0
LayerCount: 2
Fore
SplineSet
138 1034 m 257
 138 0 l 257
 198 0 l 257
 198 1034 l 257
 138 1034 l 257
712 1033 m 257
 712 0 l 257
 770 0 l 257
 770 1033 l 257
 712 1033 l 257
184 61 m 257
 184 0 l 257
 886 0 l 257
 886 61 l 257
 184 61 l 257
EndSplineSet
EndChar

StartChar: underscore
Encoding: 95 95 747
GlifName: underscore
Width: 1024
VWidth: 0
GlyphClass: 2
Flags: W
LayerCount: 2
Fore
SplineSet
0 0 m 257
 0 -40 l 257
 1024 -40 l 257
 1024 0 l 257
 0 0 l 257
EndSplineSet
EndChar

StartChar: uni018F
Encoding: 399 399 765
GlifName: uni018F_
Width: 1024
VWidth: 0
GlyphClass: 2
Flags: W
AnchorPoint: "top" 568 1630 basechar 0
AnchorPoint: "base" 690 -117 basechar 0
LayerCount: 2
Fore
SplineSet
804 0 m 257
 804 60 l 257
 265 60 l 257
 265 0 l 257
 804 0 l 257
838 0 m 257
 838 1543 l 257
 778 1543 l 257
 778 0 l 257
 838 0 l 257
785 1483 m 257
 785 1543 l 257
 170 1543 l 257
 170 1483 l 257
 785 1483 l 257
784 808 m 257
 784 868 l 257
 130 868 l 257
 130 808 l 257
 784 808 l 257
328 30 m 257
 168 869 l 257
 107 869 l 257
 267 30 l 257
 328 30 l 257
EndSplineSet
EndChar

StartChar: florin
Encoding: 402 402 766
GlifName: uni0192
Width: 1024
VWidth: 0
GlyphClass: 2
Flags: W
LayerCount: 2
Fore
SplineSet
485 1023 m 257
 485 -406 l 257
 546 -406 l 257
 546 1023 l 257
 485 1023 l 257
512 1023 m 257
 512 966 l 257
 957 966 l 257
 957 1023 l 257
 512 1023 l 257
229 559 m 257
 229 500 l 257
 860 500 l 257
 860 559 l 257
 229 559 l 257
167 -345 m 257
 167 -406 l 257
 539 -406 l 257
 539 -345 l 257
 167 -345 l 257
EndSplineSet
EndChar

StartChar: uni0237
Encoding: 567 567 847
GlifName: uni0237
Width: 1024
VWidth: 0
GlyphClass: 2
Flags: W
AnchorPoint: "top" 720 1182 basechar 0
LayerCount: 2
Fore
SplineSet
768 1023 m 257
 768 -411 l 257
 826 -411 l 257
 826 1023 l 257
 768 1023 l 257
198 -348 m 257
 198 -406 l 257
 788 -406 l 257
 788 -348 l 257
 198 -348 l 257
198 -6 m 257
 198 -378 l 257
 258 -378 l 257
 258 -6 l 257
 198 -6 l 257
EndSplineSet
EndChar

StartChar: uni0259
Encoding: 601 601 848
GlifName: uni0259
Width: 1024
VWidth: 0
GlyphClass: 2
Flags: W
AnchorPoint: "top" 500 1134 basechar 0
AnchorPoint: "base" 539 -80 basechar 0
LayerCount: 2
Fore
SplineSet
804 0 m 257
 804 64 l 257
 240 131 l 257
 240 67 l 257
 804 0 l 257
813 0 m 257
 813 1023 l 257
 753 1023 l 257
 753 0 l 257
 813 0 l 257
752 963 m 257
 752 1023 l 257
 170 1023 l 257
 170 963 l 257
 752 963 l 257
784 517 m 257
 784 577 l 257
 194 577 l 257
 194 517 l 257
 784 517 l 257
303 97 m 257
 232 578 l 257
 171 578 l 257
 242 97 l 257
 303 97 l 257
EndSplineSet
EndChar

StartChar: uni02C9
Encoding: 713 713 852
GlifName: uni02C_9
Width: 1024
VWidth: 0
GlyphClass: 2
Flags: W
LayerCount: 2
Fore
SplineSet
232 1630 m 257
 232 1550 l 257
 792 1550 l 257
 792 1630 l 257
 232 1630 l 257
EndSplineSet
EndChar

StartChar: uni02CA
Encoding: 714 714 853
GlifName: uni02C_A_
Width: 1024
VWidth: 0
GlyphClass: 2
Flags: W
LayerCount: 2
Fore
SplineSet
525 949 m 257
 446 764 l 257
 499 730 l 257
 578 915 l 257
 525 949 l 257
EndSplineSet
EndChar

StartChar: uni02CB
Encoding: 715 715 854
GlifName: uni02C_B_
Width: 1024
VWidth: 0
GlyphClass: 2
Flags: W
LayerCount: 2
Fore
SplineSet
420 877 m 257
 544 673 l 257
 604 727 l 257
 480 932 l 257
 420 877 l 257
EndSplineSet
EndChar

StartChar: uni0302
Encoding: 770 770 855
GlifName: uni0302
Width: 0
VWidth: 0
GlyphClass: 4
Flags: W
AnchorPoint: "top" 6 778 mark 0
LayerCount: 2
Fore
SplineSet
7 1105 m 257
 -29 1105 l 257
 -161 795 l 257
 -134 778 l 257
 7 1105 l 257
-26 1107 m 257
 136 773 l 257
 177 791 l 257
 11 1107 l 257
 -26 1107 l 257
EndSplineSet
EndChar

StartChar: uni0304
Encoding: 772 772 856
GlifName: uni0304
Width: 0
VWidth: 0
GlyphClass: 4
Flags: W
AnchorPoint: "top" -1 773 mark 0
LayerCount: 2
Fore
SplineSet
-317 860 m 257
 -317 808 l 257
 243 808 l 257
 243 860 l 257
 -317 860 l 257
EndSplineSet
EndChar

StartChar: uni0305
Encoding: 773 773 857
GlifName: uni0305
Width: 0
VWidth: 0
GlyphClass: 4
Flags: W
AnchorPoint: "top" 18 1480 mark 0
LayerCount: 2
Fore
SplineSet
-377 1602 m 257
 -377 1542 l 257
 377 1542 l 257
 377 1602 l 257
 -377 1602 l 257
EndSplineSet
EndChar

StartChar: uni0306
Encoding: 774 774 858
GlifName: uni0306
Width: 0
VWidth: 0
GlyphClass: 4
Flags: W
AnchorPoint: "top" 0 766 mark 0
LayerCount: 2
Fore
SplineSet
137 858 m 257
 137 788 l 257
 302 858 l 257
 302 953 l 257
 137 858 l 257
-187 858 m 257
 -187 788 l 257
 137 788 l 257
 137 858 l 257
 -187 858 l 257
-358 938 m 257
 -358 858 l 257
 -187 788 l 257
 -187 858 l 257
 -358 938 l 257
EndSplineSet
EndChar

StartChar: uni0307
Encoding: 775 775 859
GlifName: uni0307
Width: 0
VWidth: 0
GlyphClass: 4
Flags: W
AnchorPoint: "top" 2 772 mark 0
LayerCount: 2
Fore
SplineSet
-28 907 m 257
 -28 826 l 257
 62 826 l 257
 62 907 l 257
 -28 907 l 257
EndSplineSet
EndChar

StartChar: uni0308
Encoding: 776 776 860
GlifName: uni0308
Width: 0
VWidth: 0
GlyphClass: 4
Flags: W
AnchorPoint: "top" 4 1592 mark 0
LayerCount: 2
Fore
SplineSet
-185 1718 m 257
 -185 1657 l 257
 -118 1657 l 257
 -118 1718 l 257
 -185 1718 l 257
112 1718 m 257
 112 1657 l 257
 179 1657 l 257
 179 1718 l 257
 112 1718 l 257
EndSplineSet
EndChar

StartChar: uni030A
Encoding: 778 778 861
GlifName: uni030A_
Width: 0
VWidth: 0
GlyphClass: 4
Flags: W
AnchorPoint: "top" -4 777 mark 0
LayerCount: 2
Fore
SplineSet
-146 1091 m 257
 144 1091 l 257
 144 838 l 257
 -146 838 l 257
 -146 1091 l 257
-180 1120 m 257
 -180 811 l 257
 180 811 l 257
 180 1120 l 257
 -180 1120 l 257
EndSplineSet
EndChar

StartChar: uni030B
Encoding: 779 779 862
GlifName: uni030B_
Width: 0
VWidth: 0
GlyphClass: 4
Flags: W
AnchorPoint: "top" 0 744 mark 0
LayerCount: 2
Fore
SplineSet
-257 777 m 257
 -191 777 l 257
 -191 1025 l 257
 -257 1025 l 257
 -257 777 l 257
147 777 m 257
 207 777 l 257
 207 1025 l 257
 147 1025 l 257
 147 777 l 257
EndSplineSet
EndChar

StartChar: uni030C
Encoding: 780 780 863
GlifName: uni030C_
Width: 0
VWidth: 0
GlyphClass: 4
Flags: W
AnchorPoint: "top" 1 760 mark 0
LayerCount: 2
Fore
SplineSet
24 803 m 257
 -117 1130 l 257
 -144 1113 l 257
 -12 803 l 257
 24 803 l 257
-9 802 m 257
 28 802 l 257
 194 1117 l 257
 153 1135 l 257
 -9 802 l 257
EndSplineSet
EndChar

StartChar: uni030F
Encoding: 783 783 864
GlifName: uni030F_
Width: 0
VWidth: 0
GlyphClass: 4
Flags: W
AnchorPoint: "top" -5 773 mark 0
LayerCount: 2
Fore
SplineSet
-3 1000 m 257
 117 764 l 257
 144 810 l 257
 25 1047 l 257
 -3 1000 l 257
-221 1000 m 257
 -101 764 l 257
 -71 803 l 257
 -190 1040 l 257
 -221 1000 l 257
EndSplineSet
EndChar

StartChar: uni0311
Encoding: 785 785 866
GlifName: uni0311
Width: 0
VWidth: 0
GlyphClass: 4
Flags: W
AnchorPoint: "top" 2 780 mark 0
LayerCount: 2
Fore
SplineSet
-156 821 m 257
 -156 889 l 257
 -321 821 l 257
 -321 724 l 257
 -156 821 l 257
168 821 m 257
 168 889 l 257
 -156 889 l 257
 -156 821 l 257
 168 821 l 257
339 739 m 257
 339 821 l 257
 168 889 l 257
 168 821 l 257
 339 739 l 257
EndSplineSet
EndChar

StartChar: uni0312
Encoding: 786 786 867
GlifName: uni0312
Width: 0
VWidth: 0
GlyphClass: 4
Flags: W
HStem: 1594 443
VStem: -58 137
AnchorPoint: "top" 19 1583 mark 0
LayerCount: 2
Fore
SplineSet
-51 1629 m 257
 86 1629 l 257
 86 1858 l 257
 -51 1858 l 257
 -51 1629 l 257
47 1731 m 257
 86 1858 l 257
 -38 2072 l 257
 -71 2012 l 257
 47 1731 l 257
EndSplineSet
PickledDataWithLists: "(dp0
Vcom.fontlab.hintData
p1
(dp2
Vhhints
p3
(lp4
(dp5
Vposition
p6
I1594
sVwidth
p7
I443
sasVvhints
p8
(lp9
(dp10
g6
I-58
sg7
I137
sass."
EndChar

StartChar: uni031B
Encoding: 795 795 868
GlifName: uni031B_
Width: 0
VWidth: 0
GlyphClass: 4
Flags: W
AnchorPoint: "top" 3 781 mark 0
LayerCount: 2
Fore
SplineSet
-65 1125 m 257
 -65 968 l 257
 71 968 l 257
 71 1125 l 257
 -65 1125 l 257
19 1095 m 257
 -23 861 l 257
 27 812 l 257
 69 986 l 257
 19 1095 l 257
EndSplineSet
EndChar

StartChar: uni0324
Encoding: 804 804 869
GlifName: uni0324
Width: 0
VWidth: 0
GlyphClass: 4
Flags: W
AnchorPoint: "base" -8 -147 mark 0
LayerCount: 2
Fore
SplineSet
83 -255 m 257
 83 -378 l 257
 215 -378 l 257
 215 -255 l 257
 83 -255 l 257
-212 -255 m 257
 -212 -378 l 257
 -80 -378 l 257
 -80 -255 l 257
 -212 -255 l 257
EndSplineSet
EndChar

StartChar: uni0326
Encoding: 806 806 870
GlifName: uni0326
Width: 0
VWidth: 0
GlyphClass: 4
Flags: W
AnchorPoint: "base" 3 58 mark 0
LayerCount: 2
Fore
SplineSet
-34 0 m 257
 -34 -132 l 257
 78 -132 l 257
 78 0 l 257
 -34 0 l 257
-34 -132 m 257
 -78 -246 l 257
 -14 -273 l 257
 78 -132 l 257
 -34 -132 l 257
EndSplineSet
EndChar

StartChar: uni0327
Encoding: 807 807 871
GlifName: uni0327
Width: 0
VWidth: 0
GlyphClass: 4
Flags: W
AnchorPoint: "base" -190 66 mark 0
LayerCount: 2
Fore
SplineSet
-226 180 m 257
 -226 -60 l 257
 -168 -60 l 257
 -168 180 l 257
 -226 180 l 257
-220 -347 m 257
 -220 -406 l 257
 226 -406 l 257
 226 -347 l 257
 -220 -347 l 257
167 0 m 257
 167 -372 l 257
 226 -372 l 257
 226 0 l 257
 167 0 l 257
-220 0 m 257
 -220 -60 l 257
 226 -60 l 257
 226 0 l 257
 -220 0 l 257
EndSplineSet
EndChar

StartChar: uni0328
Encoding: 808 808 872
GlifName: uni0328
Width: 0
VWidth: 0
GlyphClass: 4
Flags: W
AnchorPoint: "base" -4 70 mark 0
LayerCount: 2
Fore
SplineSet
-271 -351 m 257
 -271 -411 l 257
 270 -411 l 257
 270 -351 l 257
 -271 -351 l 257
-271 0 m 257
 -271 -411 l 257
 -211 -411 l 257
 -211 0 l 257
 -271 0 l 257
-271 0 m 257
 -271 -59 l 257
 271 -59 l 257
 271 0 l 257
 -271 0 l 257
EndSplineSet
EndChar

StartChar: uni0329
Encoding: 809 809 873
GlifName: uni0329
Width: 0
VWidth: 0
GlyphClass: 4
Flags: W
AnchorPoint: "base" 4 -39 mark 0
LayerCount: 2
Fore
SplineSet
-30 -76 m 257
 -30 -419 l 257
 32 -419 l 257
 32 -76 l 257
 -30 -76 l 257
EndSplineSet
EndChar

StartChar: uni032E
Encoding: 814 814 874
GlifName: uni032E_
Width: 0
VWidth: 0
GlyphClass: 4
Flags: W
VStem: -298 660<-173 -91 -173 -76>
AnchorPoint: "base" -8 -4 mark 0
LayerCount: 2
Fore
SplineSet
197 -173 m 257
 197 -241 l 257
 362 -173 l 257
 362 -76 l 257
 197 -173 l 257
-127 -173 m 257
 -127 -241 l 257
 197 -241 l 257
 197 -173 l 257
 -127 -173 l 257
-298 -91 m 257
 -298 -173 l 257
 -127 -241 l 257
 -127 -173 l 257
 -298 -91 l 257
EndSplineSet
PickledDataWithLists: "(dp0
Vcom.fontlab.hintData
p1
(dp2
Vvhints
p3
(lp4
(dp5
Vposition
p6
I-298
sVwidth
p7
I660
sass."
EndChar

StartChar: uni0331
Encoding: 817 817 875
GlifName: uni0331
Width: 0
VWidth: 0
GlyphClass: 4
Flags: W
AnchorPoint: "base" 4 -163 mark 0
LayerCount: 2
Fore
SplineSet
-280 -204 m 257
 -280 -248 l 257
 280 -248 l 257
 280 -204 l 257
 -280 -204 l 257
EndSplineSet
EndChar

StartChar: uni0335
Encoding: 821 821 877
GlifName: uni0335
Width: 0
VWidth: 0
GlyphClass: 4
Flags: W
HStem: 935 78<-575 -15>
VStem: -575 560<935 1013 935 1013>
AnchorPoint: "base" 4 -163 mark 0
LayerCount: 2
Fore
SplineSet
-575 1013 m 257
 -575 935 l 257
 -15 935 l 257
 -15 1013 l 257
 -575 1013 l 257
EndSplineSet
PickledDataWithLists: "(dp0
Vcom.fontlab.hintData
p1
(dp2
Vhhints
p3
(lp4
(dp5
Vposition
p6
I935
sVwidth
p7
I78
sasVvhints
p8
(lp9
(dp10
g6
I-575
sg7
I560
sass."
EndChar

StartChar: uni0345
Encoding: 837 837 878
GlifName: uni0345
Width: 0
VWidth: 0
GlyphClass: 4
Flags: W
LayerCount: 2
Fore
SplineSet
-30 -107 m 257
 -30 -338 l 257
 30 -338 l 257
 30 -107 l 257
 -30 -107 l 257
-31 -338 m 257
 2 -391 l 257
 231 -356 l 257
 199 -303 l 257
 -31 -338 l 257
EndSplineSet
EndChar

StartChar: uni0394
Encoding: 916 916 879
GlifName: uni0394
Width: 1024
VWidth: 0
GlyphClass: 2
Flags: W
LayerCount: 2
Fore
SplineSet
125 57 m 257
 125 0 l 257
 899 0 l 257
 899 57 l 257
 125 57 l 257
917 0 m 257
 578 1548 l 257
 506 1548 l 257
 865 0 l 257
 917 0 l 257
155 0 m 257
 511 1548 l 257
 440 1548 l 257
 106 0 l 257
 155 0 l 257
EndSplineSet
EndChar

StartChar: uni03A9
Encoding: 937 937 880
GlifName: uni03A_9
Width: 1024
VWidth: 0
GlyphClass: 2
Flags: W
LayerCount: 2
Fore
SplineSet
558 557 m 257
 558 59 l 257
 618 59 l 257
 618 557 l 257
 558 557 l 257
409 557 m 257
 409 59 l 257
 469 59 l 257
 469 557 l 257
 409 557 l 257
558 69 m 257
 558 9 l 257
 915 9 l 257
 915 69 l 257
 558 69 l 257
112 69 m 257
 112 9 l 257
 469 9 l 257
 469 69 l 257
 112 69 l 257
558 617 m 257
 558 555 l 257
 910 555 l 257
 910 617 l 257
 558 617 l 257
110 1537 m 257
 110 566 l 257
 170 566 l 257
 170 1537 l 257
 110 1537 l 257
850 1537 m 257
 850 566 l 257
 910 566 l 257
 910 1537 l 257
 850 1537 l 257
160 1537 m 257
 160 1477 l 257
 872 1477 l 257
 872 1537 l 257
 160 1537 l 257
112 611 m 257
 112 555 l 257
 469 555 l 257
 469 611 l 257
 112 611 l 257
EndSplineSet
EndChar

StartChar: uni0900
Encoding: 2304 2304 917
GlifName: uni0900
Width: 0
VWidth: 0
GlyphClass: 4
Flags: W
AnchorPoint: "abvm_deva" -307 1612 mark 0
LayerCount: 2
Fore
SplineSet
-332 2121 m 257
 -332 1639 l 257
 -272 1639 l 257
 -272 2121 l 257
 -332 2121 l 257
-318 2122 m 257
 -318 2061 l 257
 294 2061 l 257
 294 2122 l 257
 -318 2122 l 257
-46 1919 m 257
 -46 1796 l 257
 70 1796 l 257
 70 1919 l 257
 -46 1919 l 257
272 2122 m 257
 272 1636 l 257
 332 1636 l 257
 332 2122 l 257
 272 2122 l 257
EndSplineSet
EndChar

StartChar: uni0901
Encoding: 2305 2305 918
GlifName: uni0901
Width: 0
VWidth: 0
GlyphClass: 4
Flags: W
AnchorPoint: "abvm_deva" 0 1618 mark 0
LayerCount: 2
Fore
SplineSet
-349 2124 m 257
 -349 1639 l 257
 -289 1639 l 257
 -289 2124 l 257
 -349 2124 l 257
-314 1699 m 257
 -314 1639 l 257
 320 1639 l 257
 320 1699 l 257
 -314 1699 l 257
-47 1962 m 257
 -47 1839 l 257
 70 1839 l 257
 70 1962 l 257
 -47 1962 l 257
289 2130 m 257
 289 1639 l 257
 349 1639 l 257
 349 2130 l 257
 289 2130 l 257
EndSplineSet
EndChar

StartChar: uni0902
Encoding: 2306 2306 919
GlifName: uni0902
Width: 0
VWidth: 0
GlyphClass: 4
Flags: W
AnchorPoint: "abvm_deva" -156 1621 mark 0
LayerCount: 2
Fore
SplineSet
-60 1700 m 257
 -60 1580 l 257
 60 1580 l 257
 60 1700 l 257
 -60 1700 l 257
EndSplineSet
EndChar

StartChar: uni0903
Encoding: 2307 2307 920
GlifName: uni0903
Width: 1024
VWidth: 0
GlyphClass: 2
Flags: W
LayerCount: 2
Fore
SplineSet
471 410 m 257
 471 290 l 257
 591 290 l 257
 591 410 l 257
 471 410 l 257
433 1302 m 257
 433 1182 l 257
 553 1182 l 257
 553 1302 l 257
 433 1302 l 257
EndSplineSet
EndChar

StartChar: uni0904
Encoding: 2308 2308 921
GlifName: uni0904
Width: 1024
VWidth: 0
GlyphClass: 2
Flags: W
AnchorPoint: "abvm_deva" 642 1893 basechar 0
LayerCount: 2
Fore
SplineSet
259 2062 m 257
 259 1823 l 257
 320 1823 l 257
 320 2062 l 257
 259 2062 l 257
258 1866 m 257
 258 1809 l 257
 941 1809 l 257
 941 1866 l 257
 258 1866 l 257
881 1863 m 257
 881 1550 l 257
 941 1550 l 257
 941 1863 l 257
 881 1863 l 257
729 1550 m 257
 729 1488 l 257
 1026 1488 l 257
 1026 1550 l 257
 729 1550 l 257
908 1518 m 257
 908 0 l 257
 969 0 l 257
 969 1518 l 257
 908 1518 l 257
43 1550 m 257
 43 1487 l 257
 566 1487 l 257
 566 1550 l 257
 43 1550 l 257
533 1550 m 257
 533 34 l 257
 592 34 l 257
 592 1550 l 257
 533 1550 l 257
127 894 m 257
 127 835 l 257
 935 835 l 257
 935 894 l 257
 127 894 l 257
18 65 m 257
 18 0 l 257
 592 0 l 257
 592 65 l 257
 18 65 l 257
EndSplineSet
EndChar

StartChar: uni0905
Encoding: 2309 2309 922
GlifName: uni0905
Width: 1024
VWidth: 0
GlyphClass: 2
Flags: W
AnchorPoint: "abvm_deva" 901 1563 basechar 0
LayerCount: 2
Fore
SplineSet
728 1550 m 257
 728 1488 l 257
 1025 1488 l 257
 1025 1550 l 257
 728 1550 l 257
908 1518 m 257
 908 0 l 257
 969 0 l 257
 969 1518 l 257
 908 1518 l 257
43 1550 m 257
 43 1487 l 257
 566 1487 l 257
 566 1550 l 257
 43 1550 l 257
533 1550 m 257
 533 34 l 257
 592 34 l 257
 592 1550 l 257
 533 1550 l 257
127 894 m 257
 127 835 l 257
 935 835 l 257
 935 894 l 257
 127 894 l 257
18 65 m 257
 18 0 l 257
 592 0 l 257
 592 65 l 257
 18 65 l 257
EndSplineSet
EndChar

StartChar: uni0906
Encoding: 2310 2310 923
GlifName: uni0906
Width: 1024
VWidth: 0
GlyphClass: 2
Flags: W
AnchorPoint: "abvm_deva" 823 1557 basechar 0
LayerCount: 2
Fore
SplineSet
525 1550 m 257
 525 1488 l 257
 1026 1488 l 257
 1026 1550 l 257
 525 1550 l 257
708 1518 m 257
 708 0 l 257
 769 0 l 257
 769 1518 l 257
 708 1518 l 257
41 1550 m 257
 41 1487 l 257
 364 1487 l 257
 364 1550 l 257
 41 1550 l 257
331 1550 m 257
 331 34 l 257
 390 34 l 257
 390 1550 l 257
 331 1550 l 257
125 894 m 257
 125 835 l 257
 733 835 l 257
 733 894 l 257
 125 894 l 257
16 65 m 257
 16 0 l 257
 390 0 l 257
 390 65 l 257
 16 65 l 257
891 1518 m 257
 891 0 l 257
 952 0 l 257
 952 1518 l 257
 891 1518 l 257
EndSplineSet
EndChar

StartChar: uni0907
Encoding: 2311 2311 924
GlifName: uni0907
Width: 1024
VWidth: 0
GlyphClass: 2
Flags: W
AnchorPoint: "abvm_deva" 709 1576 basechar 0
LayerCount: 2
Fore
SplineSet
0 1550 m 257
 0 1488 l 257
 1028 1488 l 257
 1028 1550 l 257
 0 1550 l 257
690 1518 m 257
 690 1173 l 257
 749 1173 l 257
 749 1518 l 257
 690 1518 l 257
168 1205 m 257
 168 1144 l 257
 748 1144 l 257
 748 1205 l 257
 168 1205 l 257
168 1181 m 257
 168 845 l 257
 226 845 l 257
 226 1181 l 257
 168 1181 l 257
168 881 m 257
 168 819 l 257
 814 819 l 257
 814 881 l 257
 168 881 l 257
780 881 m 257
 780 285 l 257
 840 285 l 257
 840 881 l 257
 780 881 l 257
146 298 m 257
 146 237 l 257
 841 237 l 257
 841 298 l 257
 146 298 l 257
262 298 m 257
 262 -244 l 257
 322 -244 l 257
 322 298 l 257
 262 298 l 257
EndSplineSet
EndChar

StartChar: uni0908
Encoding: 2312 2312 925
GlifName: uni0908
Width: 1024
VWidth: 0
GlyphClass: 2
Flags: W
AnchorPoint: "abvm_deva" 872 1563 basechar 0
LayerCount: 2
Fore
SplineSet
0 1550 m 257
 0 1488 l 257
 1031 1488 l 257
 1031 1550 l 257
 0 1550 l 257
692 1529 m 257
 692 1183 l 257
 752 1183 l 257
 752 1529 l 257
 692 1529 l 257
170 1207 m 257
 170 1146 l 257
 752 1146 l 257
 752 1207 l 257
 170 1207 l 257
170 1181 m 257
 170 849 l 257
 230 849 l 257
 230 1181 l 257
 170 1181 l 257
170 881 m 257
 170 821 l 257
 822 821 l 257
 822 881 l 257
 170 881 l 257
784 881 m 257
 784 285 l 257
 844 285 l 257
 844 881 l 257
 784 881 l 257
148 298 m 257
 148 237 l 257
 846 237 l 257
 846 298 l 257
 148 298 l 257
264 298 m 257
 264 -244 l 257
 324 -244 l 257
 324 298 l 257
 264 298 l 257
316 1860 m 257
 547 1550 l 257
 651 1550 l 257
 394 1908 l 257
 316 1860 l 257
EndSplineSet
EndChar

StartChar: uni0909
Encoding: 2313 2313 926
GlifName: uni0909
Width: 1024
VWidth: 0
GlyphClass: 2
Flags: W
AnchorPoint: "abvm_deva" 870 1582 basechar 0
LayerCount: 2
Fore
SplineSet
0 1550 m 257
 0 1488 l 257
 1025 1488 l 257
 1025 1550 l 257
 0 1550 l 257
623 1530 m 257
 623 1001 l 257
 682 1001 l 257
 682 1530 l 257
 623 1530 l 257
238 1044 m 257
 238 985 l 257
 880 985 l 257
 880 1044 l 257
 238 1044 l 257
821 994 m 257
 821 0 l 257
 880 0 l 257
 880 994 l 257
 821 994 l 257
133 61 m 257
 133 0 l 257
 870 0 l 257
 870 61 l 257
 133 61 l 257
133 346 m 257
 133 19 l 257
 192 19 l 257
 192 346 l 257
 133 346 l 257
EndSplineSet
EndChar

StartChar: uni090A
Encoding: 2314 2314 927
GlifName: uni090A_
Width: 1024
VWidth: 0
GlyphClass: 2
Flags: W
AnchorPoint: "abvm_deva" 791 1563 basechar 0
LayerCount: 2
Fore
SplineSet
0 1550 m 257
 0 1488 l 257
 1025 1488 l 257
 1025 1550 l 257
 0 1550 l 257
334 1530 m 257
 334 1001 l 257
 395 1001 l 257
 395 1530 l 257
 334 1530 l 257
154 1044 m 257
 154 983 l 257
 959 983 l 257
 959 1044 l 257
 154 1044 l 257
629 994 m 257
 629 33 l 257
 690 33 l 257
 690 994 l 257
 629 994 l 257
49 61 m 257
 49 0 l 257
 690 0 l 257
 690 61 l 257
 49 61 l 257
49 346 m 257
 49 19 l 257
 110 19 l 257
 110 346 l 257
 49 346 l 257
899 1023 m 257
 899 197 l 257
 959 197 l 257
 959 1023 l 257
 899 1023 l 257
EndSplineSet
EndChar

StartChar: uni090B
Encoding: 2315 2315 928
GlifName: uni090B_
Width: 1024
VWidth: 0
GlyphClass: 2
Flags: W
AnchorPoint: "abvm_deva" 768 1551 basechar 0
LayerCount: 2
Fore
SplineSet
0 1550 m 257
 0 1488 l 257
 1017 1488 l 257
 1017 1550 l 257
 0 1550 l 257
508 1533 m 257
 508 0 l 257
 556 0 l 257
 556 1550 l 257
 508 1533 l 257
18 1043 m 257
 18 983 l 257
 321 983 l 257
 321 1043 l 257
 18 1043 l 257
529 471 m 257
 82 422 l 257
 167 376 l 257
 564 417 l 257
 529 471 l 257
321 1043 m 257
 321 983 l 257
 555 902 l 257
 555 958 l 257
 321 1043 l 257
555 897 m 257
 555 837 l 257
 896 837 l 257
 896 897 l 257
 555 897 l 257
854 897 m 257
 854 265 l 257
 915 265 l 257
 915 897 l 257
 854 897 l 257
854 324 m 257
 854 264 l 257
 1024 264 l 257
 1024 324 l 257
 854 324 l 257
EndSplineSet
EndChar

StartChar: uni090C
Encoding: 2316 2316 929
GlifName: uni090C_
Width: 1024
VWidth: 0
GlyphClass: 2
Flags: W
AnchorPoint: "abvm_deva" 817 1552 basechar 0
LayerCount: 2
Fore
SplineSet
0 1550 m 257
 0 1488 l 257
 1032 1488 l 257
 1032 1550 l 257
 0 1550 l 257
706 1550 m 257
 706 759 l 257
 766 759 l 257
 766 1550 l 257
 706 1550 l 257
964 791 m 257
 48 791 l 257
 48 731 l 257
 964 731 l 257
 964 791 l 257
50 777 m 257
 50 252 l 257
 110 252 l 257
 110 777 l 257
 50 777 l 257
472 791 m 257
 472 433 l 257
 532 433 l 257
 532 791 l 257
 472 791 l 257
894 792 m 257
 894 73 l 257
 954 73 l 257
 954 792 l 257
 894 792 l 257
938 132 m 257
 938 71 l 257
 1030 71 l 257
 1030 132 l 257
 938 132 l 257
EndSplineSet
EndChar

StartChar: uni090D
Encoding: 2317 2317 930
GlifName: uni090D_
Width: 1024
VWidth: 0
GlyphClass: 2
Flags: W
AnchorPoint: "abvm_deva" 999 1552 basechar 0
LayerCount: 2
Fore
SplineSet
0 1550 m 257
 0 1488 l 257
 1030 1488 l 257
 1030 1550 l 257
 0 1550 l 257
868 1550 m 257
 868 779 l 257
 928 779 l 257
 928 1550 l 257
 868 1550 l 257
634 839 m 257
 634 779 l 257
 928 779 l 257
 928 839 l 257
 634 839 l 257
142 1550 m 257
 142 338 l 257
 202 338 l 257
 202 1550 l 257
 142 1550 l 257
142 358 m 257
 142 297 l 257
 742 297 l 257
 742 358 l 257
 142 358 l 257
688 358 m 257
 688 -98 l 257
 748 -98 l 257
 748 358 l 257
 688 358 l 257
386 -38 m 257
 386 -98 l 257
 746 -98 l 257
 746 -38 l 257
 386 -38 l 257
156 2124 m 257
 156 1639 l 257
 216 1639 l 257
 216 2124 l 257
 156 2124 l 257
202 1702 m 257
 202 1641 l 257
 796 1641 l 257
 796 1702 l 257
 202 1702 l 257
760 2132 m 257
 760 1641 l 257
 820 1641 l 257
 820 2132 l 257
 760 2132 l 257
EndSplineSet
EndChar

StartChar: uni090E
Encoding: 2318 2318 931
GlifName: uni090E_
Width: 1024
VWidth: 0
GlyphClass: 2
Flags: W
AnchorPoint: "abvm_deva" 1022 1552 basechar 0
LayerCount: 2
Fore
SplineSet
0 1550 m 257
 0 1488 l 257
 1030 1488 l 257
 1030 1550 l 257
 0 1550 l 257
868 1550 m 257
 868 779 l 257
 928 779 l 257
 928 1550 l 257
 868 1550 l 257
634 839 m 257
 634 779 l 257
 928 779 l 257
 928 839 l 257
 634 839 l 257
142 1550 m 257
 142 338 l 257
 202 338 l 257
 202 1550 l 257
 142 1550 l 257
142 358 m 257
 142 297 l 257
 742 297 l 257
 742 358 l 257
 142 358 l 257
688 358 m 257
 688 -98 l 257
 748 -98 l 257
 748 358 l 257
 688 358 l 257
386 -38 m 257
 386 -98 l 257
 746 -98 l 257
 746 -38 l 257
 386 -38 l 257
270 2062 m 257
 270 1823 l 257
 330 1823 l 257
 330 2062 l 257
 270 2062 l 257
268 1866 m 257
 268 1809 l 257
 952 1809 l 257
 952 1866 l 257
 268 1866 l 257
894 1858 m 257
 894 1540 l 257
 954 1540 l 257
 954 1858 l 257
 894 1858 l 257
EndSplineSet
EndChar

StartChar: uni090F
Encoding: 2319 2319 932
GlifName: uni090F_
Width: 1024
VWidth: 0
GlyphClass: 2
Flags: W
AnchorPoint: "abvm_deva" 898 1552 basechar 0
LayerCount: 2
Fore
SplineSet
0 1550 m 257
 0 1488 l 257
 1030 1488 l 257
 1030 1550 l 257
 0 1550 l 257
868 1550 m 257
 868 779 l 257
 928 779 l 257
 928 1550 l 257
 868 1550 l 257
634 839 m 257
 634 779 l 257
 928 779 l 257
 928 839 l 257
 634 839 l 257
142 1550 m 257
 142 338 l 257
 202 338 l 257
 202 1550 l 257
 142 1550 l 257
142 358 m 257
 142 297 l 257
 742 297 l 257
 742 358 l 257
 142 358 l 257
688 358 m 257
 688 -98 l 257
 748 -98 l 257
 748 358 l 257
 688 358 l 257
386 -38 m 257
 386 -98 l 257
 746 -98 l 257
 746 -38 l 257
 386 -38 l 257
EndSplineSet
EndChar

StartChar: uni0910
Encoding: 2320 2320 933
GlifName: uni0910
Width: 1024
VWidth: 0
GlyphClass: 2
Flags: W
AnchorPoint: "abvm_deva" 991 1550 basechar 0
LayerCount: 2
Fore
SplineSet
0 1550 m 257
 0 1489 l 257
 1030 1489 l 257
 1030 1550 l 257
 0 1550 l 257
866 1550 m 257
 866 779 l 257
 928 779 l 257
 928 1550 l 257
 866 1550 l 257
634 840 m 257
 634 779 l 257
 928 779 l 257
 928 840 l 257
 634 840 l 257
142 1550 m 257
 142 338 l 257
 202 338 l 257
 202 1550 l 257
 142 1550 l 257
142 359 m 257
 142 297 l 257
 742 297 l 257
 742 359 l 257
 142 359 l 257
702 358 m 257
 702 -98 l 257
 760 -98 l 257
 760 358 l 257
 702 358 l 257
386 -37 m 257
 386 -98 l 257
 746 -98 l 257
 746 -37 l 257
 386 -37 l 257
556 1962 m 257
 854 1550 l 257
 926 1550 l 257
 610 1998 l 257
 556 1962 l 257
EndSplineSet
EndChar

StartChar: uni0911
Encoding: 2321 2321 934
GlifName: uni0911
Width: 1024
VWidth: 0
GlyphClass: 2
Flags: W
AnchorPoint: "abvm_deva" 781 1712 basechar 0
LayerCount: 2
Fore
SplineSet
536 1550 m 257
 536 1488 l 257
 1024 1488 l 257
 1024 1550 l 257
 536 1550 l 257
544 1506 m 257
 544 0 l 257
 606 0 l 257
 606 1506 l 257
 544 1506 l 257
26 1550 m 257
 26 1488 l 257
 386 1488 l 257
 386 1550 l 257
 26 1550 l 257
352 1550 m 257
 352 30 l 257
 412 30 l 257
 412 1550 l 257
 352 1550 l 257
110 894 m 257
 110 834 l 257
 582 834 l 257
 582 894 l 257
 110 894 l 257
0 61 m 257
 0 0 l 257
 412 0 l 257
 412 61 l 257
 0 61 l 257
812 1504 m 257
 812 0 l 257
 872 0 l 257
 872 1504 l 257
 812 1504 l 257
526 2085 m 257
 526 1639 l 257
 588 1639 l 257
 588 2085 l 257
 526 2085 l 257
532 1701 m 257
 532 1641 l 257
 1024 1641 l 257
 1024 1701 l 257
 532 1701 l 257
952 2083 m 257
 952 1641 l 257
 1024 1641 l 257
 1024 2083 l 257
 952 2083 l 257
EndSplineSet
EndChar

StartChar: uni0912
Encoding: 2322 2322 935
GlifName: uni0912
Width: 1024
VWidth: 0
GlyphClass: 2
Flags: W
AnchorPoint: "abvm_deva" 998 1557 basechar 0
LayerCount: 2
Fore
SplineSet
507 1553 m 257
 507 1494 l 257
 1023 1496 l 257
 1023 1550 l 257
 507 1553 l 257
708 1518 m 257
 708 0 l 257
 769 0 l 257
 769 1518 l 257
 708 1518 l 257
41 1550 m 257
 41 1487 l 257
 364 1487 l 257
 364 1550 l 257
 41 1550 l 257
331 1550 m 257
 331 34 l 257
 390 34 l 257
 390 1550 l 257
 331 1550 l 257
125 894 m 257
 125 835 l 257
 733 835 l 257
 733 894 l 257
 125 894 l 257
16 65 m 257
 16 0 l 257
 390 0 l 257
 390 65 l 257
 16 65 l 257
891 1518 m 257
 891 0 l 257
 952 0 l 257
 952 1518 l 257
 891 1518 l 257
257 2062 m 257
 257 1823 l 257
 318 1823 l 257
 318 2062 l 257
 257 2062 l 257
256 1866 m 257
 256 1809 l 257
 939 1809 l 257
 939 1866 l 257
 256 1866 l 257
879 1863 m 257
 879 1550 l 257
 939 1550 l 257
 939 1863 l 257
 879 1863 l 257
EndSplineSet
EndChar

StartChar: uni0913
Encoding: 2323 2323 936
GlifName: uni0913
Width: 1024
VWidth: 0
GlyphClass: 2
Flags: W
AnchorPoint: "abvm_deva" 978 1556 basechar 0
LayerCount: 2
Fore
SplineSet
523 1550 m 257
 523 1489 l 257
 1024 1489 l 257
 1024 1550 l 257
 523 1550 l 257
708 1518 m 257
 708 0 l 257
 769 0 l 257
 769 1518 l 257
 708 1518 l 257
41 1550 m 257
 41 1487 l 257
 364 1487 l 257
 364 1550 l 257
 41 1550 l 257
331 1550 m 257
 331 34 l 257
 390 34 l 257
 390 1550 l 257
 331 1550 l 257
125 894 m 257
 125 835 l 257
 733 835 l 257
 733 894 l 257
 125 894 l 257
16 65 m 257
 16 0 l 257
 390 0 l 257
 390 65 l 257
 16 65 l 257
891 1518 m 257
 891 0 l 257
 952 0 l 257
 952 1518 l 257
 891 1518 l 257
689 1807 m 257
 770 1529 l 257
 846 1550 l 257
 762 1826 l 257
 689 1807 l 257
EndSplineSet
EndChar

StartChar: uni0914
Encoding: 2324 2324 937
GlifName: uni0914
Width: 1024
VWidth: 0
GlyphClass: 2
Flags: W
AnchorPoint: "abvm_deva" 954 1557 basechar 0
LayerCount: 2
Fore
SplineSet
507 1553 m 257
 507 1494 l 257
 1008 1494 l 257
 1008 1553 l 257
 507 1553 l 257
708 1518 m 257
 708 0 l 257
 769 0 l 257
 769 1518 l 257
 708 1518 l 257
41 1550 m 257
 41 1487 l 257
 364 1487 l 257
 364 1550 l 257
 41 1550 l 257
331 1550 m 257
 331 34 l 257
 390 34 l 257
 390 1550 l 257
 331 1550 l 257
125 894 m 257
 125 835 l 257
 733 835 l 257
 733 894 l 257
 125 894 l 257
16 65 m 257
 16 0 l 257
 390 0 l 257
 390 65 l 257
 16 65 l 257
891 1518 m 257
 891 0 l 257
 952 0 l 257
 952 1518 l 257
 891 1518 l 257
326 1767 m 257
 704 1525 l 257
 768 1540 l 257
 367 1816 l 257
 326 1767 l 257
575 1905 m 257
 778 1550 l 257
 859 1550 l 257
 628 1937 l 257
 575 1905 l 257
EndSplineSet
EndChar

StartChar: uni0915
Encoding: 2325 2325 938
GlifName: uni0915
Width: 1024
VWidth: 0
GlyphClass: 2
Flags: W
AnchorPoint: "abvm_deva" 636 1558 basechar 0
AnchorPoint: "blwm_deva" 615 -50 basechar 0
LayerCount: 2
Fore
SplineSet
0 1553 m 257
 0 1492 l 257
 1024 1492 l 257
 1024 1553 l 257
 0 1553 l 257
598 1509 m 257
 598 0 l 257
 658 0 l 257
 658 1509 l 257
 598 1509 l 257
181 1069 m 257
 181 1008 l 257
 540 1008 l 257
 540 1069 l 257
 181 1069 l 257
170 1068 m 257
 170 510 l 257
 230 510 l 257
 230 1068 l 257
 170 1068 l 257
185 572 m 257
 185 511 l 257
 645 511 l 257
 645 572 l 257
 185 572 l 257
623 999 m 257
 623 938 l 257
 888 938 l 257
 888 999 l 257
 623 999 l 257
838 1000 m 257
 838 779 l 257
 900 779 l 257
 900 1000 l 257
 838 1000 l 257
EndSplineSet
EndChar

StartChar: uni0915_uni0930_uni094D.vatu
Encoding: 65551 -1 939
GlifName: uni0915_uni0930_uni094D_.vatu
Width: 1024
VWidth: 0
GlyphClass: 3
Flags: W
AnchorPoint: "abvm_deva" 670 1600 basechar 0
AnchorPoint: "blwm_deva" 638 -59 basechar 0
LayerCount: 2
Fore
SplineSet
0 1553 m 257
 0 1492 l 257
 1024 1492 l 257
 1024 1553 l 257
 0 1553 l 257
598 1509 m 257
 598 0 l 257
 658 0 l 257
 658 1509 l 257
 598 1509 l 257
181 1069 m 257
 181 1008 l 257
 525 1008 l 257
 525 1069 l 257
 181 1069 l 257
170 1068 m 257
 170 510 l 257
 230 510 l 257
 230 1068 l 257
 170 1068 l 257
185 572 m 257
 185 511 l 257
 645 511 l 257
 645 572 l 257
 185 572 l 257
623 999 m 257
 623 938 l 257
 888 938 l 257
 888 999 l 257
 623 999 l 257
838 1000 m 257
 838 779 l 257
 900 779 l 257
 900 1000 l 257
 838 1000 l 257
57 0 m 257
 177 0 l 257
 654 215 l 257
 654 285 l 257
 57 0 l 257
EndSplineSet
Ligature2: "rkrfRakarVariantsinDevanagari2lookup0 subtable" uni0915 uni094D uni0930
EndChar

StartChar: uni0915_uni094D.half
Encoding: 65552 -1 940
GlifName: uni0915_uni094D_.half
Width: 1024
VWidth: 0
GlyphClass: 2
Flags: W
AnchorPoint: "abvm_deva" 670 1600 basechar 0
AnchorPoint: "blwm_deva" 638 -59 basechar 0
LayerCount: 2
Fore
SplineSet
0 1553 m 257
 0 1492 l 257
 1024 1492 l 257
 1024 1553 l 257
 0 1553 l 257
598 1509 m 257
 598 0 l 257
 658 0 l 257
 658 1509 l 257
 598 1509 l 257
181 1069 m 257
 181 1008 l 257
 535 1008 l 257
 535 1069 l 257
 181 1069 l 257
170 1068 m 257
 170 510 l 257
 230 510 l 257
 230 1068 l 257
 170 1068 l 257
185 572 m 257
 185 511 l 257
 645 511 l 257
 645 572 l 257
 185 572 l 257
623 999 m 257
 623 938 l 257
 1031 938 l 257
 1031 999 l 257
 623 999 l 257
EndSplineSet
Ligature2: "halfHalfFormsinDevanagari2lookup0 subtable" uni0915 uni094D
EndChar

StartChar: uni0915_uni094D.haln
Encoding: 65553 -1 941
GlifName: uni0915_uni094D_.haln
Width: 1024
VWidth: 0
GlyphClass: 3
Flags: W
AnchorPoint: "abvm_deva" 670 1600 basechar 0
AnchorPoint: "blwm_deva" 638 -59 basechar 0
LayerCount: 2
Fore
SplineSet
0 1553 m 257
 0 1492 l 257
 1024 1492 l 257
 1024 1553 l 257
 0 1553 l 257
598 1509 m 257
 598 0 l 257
 658 0 l 257
 658 1509 l 257
 598 1509 l 257
181 1069 m 257
 181 1008 l 257
 540 1008 l 257
 540 1069 l 257
 181 1069 l 257
170 1068 m 257
 170 510 l 257
 230 510 l 257
 230 1068 l 257
 170 1068 l 257
185 572 m 257
 185 511 l 257
 645 511 l 257
 645 572 l 257
 185 572 l 257
623 999 m 257
 623 938 l 257
 888 938 l 257
 888 999 l 257
 623 999 l 257
838 1000 m 257
 838 779 l 257
 900 779 l 257
 900 1000 l 257
 838 1000 l 257
623 -16 m 257
 623 -77 l 257
 967 -77 l 257
 967 -16 l 257
 623 -16 l 257
938 -71 m 257
 1248 -418 l 257
 1278 -366 l 257
 967 -15 l 257
 938 -71 l 257
EndSplineSet
Ligature2: "halnHalantFormsinDevanagari2lookup0 subtable" uni0915 uni094D
EndChar

StartChar: uni0915_uni094D_uni0937.akhn
Encoding: 65554 -1 942
GlifName: uni0915_uni094D__uni0937.akhn
Width: 1024
VWidth: 0
GlyphClass: 3
Flags: W
AnchorPoint: "abvm_deva" 850 1594 basechar 0
AnchorPoint: "blwm_deva" 818 -65 basechar 0
LayerCount: 2
Fore
SplineSet
665 1550 m 257
 665 1491 l 257
 1024 1491 l 257
 1024 1550 l 257
 665 1550 l 257
862 1511 m 257
 862 0 l 257
 921 0 l 257
 921 1511 l 257
 862 1511 l 257
126 1078 m 257
 126 1023 l 257
 921 1023 l 257
 921 1078 l 257
 126 1078 l 257
126 1023 m 257
 186 1023 l 257
 186 1422 l 257
 126 1422 l 257
 126 1023 l 257
127 1435 m 257
 127 1374 l 257
 567 1374 l 257
 567 1435 l 257
 127 1435 l 257
506 1422 m 257
 506 1023 l 257
 566 1023 l 257
 566 1422 l 257
 506 1422 l 257
158 647 m 257
 218 647 l 257
 565 1023 l 257
 507 1023 l 257
 158 647 l 257
158 647 m 257
 158 200 l 257
 218 200 l 257
 218 647 l 257
 158 647 l 257
158 226 m 257
 158 166 l 257
 882 166 l 257
 882 226 l 257
 158 226 l 257
EndSplineSet
Ligature2: "akhnAkhandinDevanagari2lookup0 subtable" uni0915 uni094D uni0937
EndChar

StartChar: uni0915_uni094D_uni0937.half
Encoding: 65555 -1 943
GlifName: uni0915_uni094D__uni0937.half
Width: 1024
VWidth: 0
GlyphClass: 3
Flags: W
AnchorPoint: "abvm_deva" 850 1594 basechar 0
AnchorPoint: "blwm_deva" 818 -65 basechar 0
LayerCount: 2
Fore
SplineSet
665 1550 m 257
 665 1491 l 257
 1024 1491 l 257
 1024 1550 l 257
 665 1550 l 257
126 1078 m 257
 126 1023 l 257
 1021 1023 l 257
 1021 1078 l 257
 126 1078 l 257
126 1023 m 257
 186 1023 l 257
 186 1422 l 257
 126 1422 l 257
 126 1023 l 257
127 1435 m 257
 127 1374 l 257
 567 1374 l 257
 567 1435 l 257
 127 1435 l 257
506 1422 m 257
 506 1023 l 257
 566 1023 l 257
 566 1422 l 257
 506 1422 l 257
158 647 m 257
 218 647 l 257
 565 1023 l 257
 507 1023 l 257
 158 647 l 257
158 647 m 257
 158 200 l 257
 218 200 l 257
 218 647 l 257
 158 647 l 257
158 226 m 257
 158 166 l 257
 982 166 l 257
 982 226 l 257
 158 226 l 257
EndSplineSet
Ligature2: "halfHalfFormsinDevanagari2lookup0 subtable" uni0915_uni094D_uni0937.akhn uni094D
EndChar

StartChar: uni0915_uni094D_uni0937_uni094D
Encoding: 65556 -1 944
GlifName: uni0915_uni094D__uni0937_uni094D_
Width: 1024
VWidth: 0
GlyphClass: 2
Flags: W
AnchorPoint: "abvm_deva" 850 1594 basechar 0
AnchorPoint: "blwm_deva" 818 -65 basechar 0
LayerCount: 2
Fore
SplineSet
665 1550 m 257
 665 1491 l 257
 1024 1491 l 257
 1024 1550 l 257
 665 1550 l 257
862 1511 m 257
 862 0 l 257
 921 0 l 257
 921 1511 l 257
 862 1511 l 257
126 1078 m 257
 126 1023 l 257
 921 1023 l 257
 921 1078 l 257
 126 1078 l 257
126 1023 m 257
 186 1023 l 257
 186 1422 l 257
 126 1422 l 257
 126 1023 l 257
127 1435 m 257
 127 1374 l 257
 567 1374 l 257
 567 1435 l 257
 127 1435 l 257
506 1422 m 257
 506 1023 l 257
 566 1023 l 257
 566 1422 l 257
 506 1422 l 257
158 647 m 257
 218 647 l 257
 565 1023 l 257
 507 1023 l 257
 158 647 l 257
158 647 m 257
 158 200 l 257
 218 200 l 257
 218 647 l 257
 158 647 l 257
158 226 m 257
 158 166 l 257
 882 166 l 257
 882 226 l 257
 158 226 l 257
776 -16 m 257
 776 -77 l 257
 1120 -77 l 257
 1120 -16 l 257
 776 -16 l 257
1091 -71 m 257
 1401 -418 l 257
 1431 -366 l 257
 1120 -15 l 257
 1091 -71 l 257
EndSplineSet
Ligature2: "halnHalantFormsinDevanagari2lookup0 subtable" uni0915_uni094D_uni0937.akhn uni094D
EndChar

StartChar: uni0916
Encoding: 2326 2326 945
GlifName: uni0916
Width: 1024
VWidth: 0
GlyphClass: 2
Flags: W
AnchorPoint: "abvm_deva" 866 1551 basechar 0
AnchorPoint: "blwm_deva" 877 -46 basechar 0
LayerCount: 2
Fore
SplineSet
0 1553 m 257
 0 1496 l 257
 1026 1496 l 257
 1026 1553 l 257
 0 1553 l 257
832 1514 m 257
 832 0 l 257
 894 0 l 257
 894 1514 l 257
 832 1514 l 257
414 979 m 257
 414 919 l 257
 676 919 l 257
 676 979 l 257
 414 979 l 257
384 979 m 257
 384 414 l 257
 444 414 l 257
 444 979 l 257
 384 979 l 257
384 429 m 257
 384 368 l 257
 848 368 l 257
 848 429 l 257
 384 429 l 257
186 1510 m 257
 186 120 l 257
 248 120 l 257
 248 1510 l 257
 186 1510 l 257
16 714 m 257
 16 654 l 257
 246 654 l 257
 246 714 l 257
 16 714 l 257
186 130 m 257
 186 70 l 257
 830 70 l 257
 830 130 l 257
 186 130 l 257
EndSplineSet
EndChar

StartChar: uni0916_uni0930_uni094D.vatu
Encoding: 65557 -1 946
GlifName: uni0916_uni0930_uni094D_.vatu
Width: 1024
VWidth: 0
GlyphClass: 3
Flags: W
AnchorPoint: "abvm_deva" 880 1594 basechar 0
AnchorPoint: "blwm_deva" 848 -65 basechar 0
LayerCount: 2
Fore
SplineSet
239 0 m 257
 359 0 l 257
 836 215 l 257
 836 285 l 257
 239 0 l 257
0 1553 m 257
 0 1496 l 257
 1026 1496 l 257
 1026 1553 l 257
 0 1553 l 257
832 1514 m 257
 832 0 l 257
 894 0 l 257
 894 1514 l 257
 832 1514 l 257
414 1279 m 257
 414 1219 l 257
 676 1219 l 257
 676 1279 l 257
 414 1279 l 257
384 1279 m 257
 384 714 l 257
 444 714 l 257
 444 1279 l 257
 384 1279 l 257
384 729 m 257
 384 668 l 257
 848 668 l 257
 848 729 l 257
 384 729 l 257
186 1510 m 257
 186 420 l 257
 248 420 l 257
 248 1510 l 257
 186 1510 l 257
16 1023 m 257
 16 954 l 257
 246 954 l 257
 246 1023 l 257
 16 1023 l 257
186 430 m 257
 186 370 l 257
 830 370 l 257
 830 430 l 257
 186 430 l 257
EndSplineSet
Ligature2: "rkrfRakarVariantsinDevanagari2lookup0 subtable" uni0916 uni094D uni0930
EndChar

StartChar: uni0916_uni094D.half
Encoding: 65558 -1 947
GlifName: uni0916_uni094D_.half
Width: 1024
VWidth: 0
GlyphClass: 2
Flags: W
AnchorPoint: "abvm_deva" 913 1597 basechar 0
AnchorPoint: "blwm_deva" 864 -30 basechar 0
LayerCount: 2
Fore
SplineSet
0 1553 m 257
 0 1496 l 257
 1026 1496 l 257
 1026 1553 l 257
 0 1553 l 257
414 979 m 257
 414 919 l 257
 851 919 l 257
 851 979 l 257
 414 979 l 257
384 979 m 257
 384 414 l 257
 444 414 l 257
 444 979 l 257
 384 979 l 257
384 429 m 257
 384 368 l 257
 1024 368 l 257
 1024 429 l 257
 384 429 l 257
186 1510 m 257
 186 120 l 257
 248 120 l 257
 248 1510 l 257
 186 1510 l 257
16 714 m 257
 16 654 l 257
 246 654 l 257
 246 714 l 257
 16 714 l 257
186 130 m 257
 186 70 l 257
 1006 70 l 257
 1006 130 l 257
 186 130 l 257
EndSplineSet
Ligature2: "halfHalfFormsinDevanagari2lookup0 subtable" uni0916 uni094D
EndChar

